#N canvas 1 119 755 381 10;
#X obj 28 320 dac~ 1;
#X msg 172 14 \; pd dsp 0;
#X obj 28 259 *~ 0.1;
#X msg 91 15 \; pd dsp 1;
#X floatatom 28 204 5 0 0 0 - - -, f 5;
#X obj 28 236 osc~ 222;
#X obj 119 87 hsl 600 100 1 10000 0 0 empty empty empty -2 -8 0 10
-262144 -1 -1 0 1;
#X text 115 68 Filter frequency;
#X text 74 320 send to the first output channel;
#X connect 2 0 0 0;
#X connect 4 0 5 0;
#X connect 5 0 2 0;
#X connect 6 0 4 0;
