#N canvas 189 407 1440 792 10;
#X obj 207 126 cnv 15 333 277 empty empty empty 20 12 0 14 -228856
-66577 0;
#X obj 622 46 cnv 15 400 333 empty empty empty 20 12 0 14 -233017 -66577
0;
#X obj 65 37 inlet;
#X text 63 11 target;
#X text 312 1 sources;
#X obj 320 25 inlet;
#X obj 248 88 i;
#X obj 23 181 oscformat monitor mono;
#X obj 222 281 oscformat route pi;
#X msg 222 255 \$2 0 \$1 1 1;
#X obj 402 281 oscformat route pi;
#X msg 402 255 \$2 1 \$1 1 1;
#X obj 222 307 s OSC;
#X obj 402 307 s OSC;
#X obj 23 206 s OSC;
#X obj 168 666 netsend -u -b;
#X obj 168 635 list trim;
#X obj 168 604 list prepend send;
#X msg 128 550 connect 85.214.78.6 57120;
#X obj 128 514 loadbang;
#X obj 168 577 r OSC;
#X obj 463 455 r OSC;
#X obj 463 478 oscparse;
#X obj 463 501 route list;
#X msg 23 131 \$1 1;
#X obj 309 165 pack \$2 \$1, f 15;
#X obj 663 290 oscformat route spatial;
#X obj 663 245 pack, f 23;
#X obj 663 170 * 2;
#X floatatom 663 223 5 0 0 0 - - -;
#X floatatom 663 123 5 0 0 0 - - -;
#X obj 463 524 print;
#X obj 663 313 s OSC;
#X msg 663 268 \$2 0 \$1 0;
#X obj 663 145 t f f;
#X obj 858 288 oscformat route spatial;
#X obj 858 243 pack, f 23;
#X obj 858 168 * 2;
#X floatatom 858 221 5 0 0 0 - - -;
#X floatatom 858 121 5 0 0 0 - - -;
#X obj 858 311 s OSC;
#X obj 858 143 t f f;
#X obj 858 191 + 1;
#X msg 858 266 \$2 1 \$1 0;
#X text 432 427 just for printing;
#X text 164 475 for sending;
#X obj 299 82 t b i;
#X connect 2 0 6 1;
#X connect 2 0 24 0;
#X connect 5 0 25 1;
#X connect 5 0 30 0;
#X connect 5 0 39 0;
#X connect 5 0 46 0;
#X connect 6 0 25 0;
#X connect 7 0 14 0;
#X connect 8 0 12 0;
#X connect 9 0 8 0;
#X connect 10 0 13 0;
#X connect 11 0 10 0;
#X connect 16 0 15 0;
#X connect 17 0 16 0;
#X connect 18 0 15 0;
#X connect 19 0 18 0;
#X connect 20 0 17 0;
#X connect 21 0 22 0;
#X connect 22 0 23 0;
#X connect 23 0 31 0;
#X connect 24 0 7 0;
#X connect 25 0 9 0;
#X connect 25 0 11 0;
#X connect 26 0 32 0;
#X connect 27 0 33 0;
#X connect 28 0 29 0;
#X connect 29 0 27 0;
#X connect 30 0 34 0;
#X connect 33 0 26 0;
#X connect 34 0 28 0;
#X connect 34 1 27 1;
#X connect 35 0 40 0;
#X connect 36 0 43 0;
#X connect 37 0 42 0;
#X connect 38 0 36 0;
#X connect 39 0 41 0;
#X connect 41 0 37 0;
#X connect 41 1 36 1;
#X connect 42 0 38 0;
#X connect 43 0 35 0;
#X connect 46 0 6 0;
#X connect 46 1 25 1;
#X coords 0 -1 1 1 85 60 1 100 100;
