#N canvas 89 50 1323 694 12;
#X obj 564 601 netsend -u -b;
#X obj 559 544 list trim;
#X obj 553 520 list prepend send;
#X msg 301 563 disconnect;
#X msg 301 526 connect 85.214.78.6 57120;
#X obj 302 447 loadbang;
#X obj 393 119 bng 30 250 50 0 empty empty empty 17 7 0 10 -258113
-1 -1;
#N canvas 89 23 1036 676 control 0;
#X obj 204 551 outlet;
#X msg -28 275 1;
#X obj 119 177 bng 22 250 50 0 empty empty empty 17 7 0 10 -258113
-1 -1;
#X obj 209 300 oscformat mute_all_spatial;
#X msg 208 274 1;
#X obj 306 175 bng 22 250 50 0 empty empty empty 17 7 0 10 -258113
-1 -1;
#X text 339 176 Mute all spatial;
#X obj -27 301 oscformat default_spatial_routing;
#X msg 392 278 1;
#X obj 306 140 bng 22 250 50 0 empty empty empty 17 7 0 10 -258113
-1 -1;
#X text 340 143 Mute all AP;
#X obj 393 304 oscformat mute_all_ap;
#X text 153 179 Default spatial;
#X obj 643 384 oscformat monitor gain;
#X msg 643 222 0 \, 1 \, 2 \, 3 \, 4 \, 5 \, 6 \, 7 \, 8 \, 9 \, 10
\, 11 \, 12 \, 13 \, 14 \, 15;
#X text 641 193 silence all binaural monitors;
#X obj 643 357 pack \$1 1;
#X obj 119 142 bng 22 250 50 0 empty empty empty 17 7 0 10 -204786
-1 -1;
#X text 152 142 default monitor;
#X connect 1 0 7 0;
#X connect 2 0 1 0;
#X connect 3 0 0 0;
#X connect 4 0 3 0;
#X connect 5 0 4 0;
#X connect 7 0 0 0;
#X connect 8 0 11 0;
#X connect 9 0 8 0;
#X connect 11 0 0 0;
#X connect 13 0 0 0;
#X connect 14 0 16 0;
#X connect 16 0 13 0;
#X connect 17 0 14 0;
#X coords 0 -1 1 1 400 150 1 100 100;
#X restore 717 119 pd control;
#N canvas 0 156 1302 626 sub1 0;
#X text 105 193 Set azimuth;
#X text 526 189 Set reverb amount;
#X text 401 187 Set distance;
#X text 249 190 Set elevation;
#X floatatom 117 149 5 0 0 0 - - -;
#X obj 117 171 s source;
#X obj 323 512 list trim;
#X obj 323 485 list prepend send;
#X obj 109 434 oscformat source azim;
#X obj 253 433 oscformat source elev;
#X obj 403 433 oscformat source dist;
#X obj 545 433 oscformat source reverb;
#X obj 560 344 r source;
#X obj 545 397 pack i f, f 13;
#X floatatom 545 290 5 0 0 0 - - -;
#X obj 545 370 i;
#X obj 545 312 t b f, f 13;
#X obj 124 345 r source;
#X obj 109 398 pack i f, f 13;
#X floatatom 109 291 5 0 0 0 - - -;
#X obj 109 371 i;
#X obj 109 313 t b f, f 13;
#X obj 268 349 r source;
#X obj 253 402 pack i f, f 13;
#X floatatom 253 295 5 0 0 0 - - -;
#X obj 253 375 i;
#X obj 253 317 t b f, f 13;
#X obj 418 347 r source;
#X obj 403 400 pack i f, f 13;
#X floatatom 403 293 5 0 0 0 - - -;
#X obj 403 373 i;
#X obj 403 315 t b f, f 13;
#X obj 323 535 outlet;
#X text 321 168 Control parameters:;
#X obj 494 143 bng 15 250 50 0 empty empty empty 17 7 0 10 -262144
-1 -1;
#X msg 738 183 2;
#X obj 748 110 t b b b b b;
#X obj 975 117 t b b b b b;
#X obj 532 144 bng 15 250 50 0 empty empty empty 17 7 0 10 -262144
-1 -1;
#X text 123 124 Set source to control;
#X obj 108 213 hsl 128 15 -3 3 0 0 empty empty empty -2 -8 0 10 -262144
-1 -1 0 1;
#X obj 238 234 hsl 128 15 -3 3 0 0 empty empty empty -2 -8 0 10 -262144
-1 -1 0 1;
#X obj 375 213 hsl 128 15 0 10 0 0 empty empty empty -2 -8 0 10 -262144
-1 -1 0 1;
#X obj 515 231 hsl 128 15 0 1 0 0 empty empty empty -2 -8 0 10 -262144
-1 -1 0 1;
#X msg 783 183 2;
#X msg 830 182 1;
#X msg 876 182 0.1;
#X msg 962 195 -2;
#X msg 1010 190 -2;
#X msg 1057 189 0;
#X msg 1103 189 0.5;
#X obj 917 291 t b b b b b;
#X obj 573 143 bng 15 250 50 0 empty empty empty 17 7 0 10 -262144
-1 -1;
#X msg 1045 363 0;
#X msg 999 363 0;
#X msg 952 364 0;
#X msg 907 364 0;
#X connect 4 0 5 0;
#X connect 6 0 32 0;
#X connect 7 0 6 0;
#X connect 8 0 7 0;
#X connect 9 0 7 0;
#X connect 10 0 7 0;
#X connect 11 0 7 0;
#X connect 12 0 15 1;
#X connect 13 0 11 0;
#X connect 14 0 16 0;
#X connect 15 0 13 0;
#X connect 16 0 15 0;
#X connect 16 1 13 1;
#X connect 17 0 20 1;
#X connect 18 0 8 0;
#X connect 19 0 21 0;
#X connect 20 0 18 0;
#X connect 21 0 20 0;
#X connect 21 1 18 1;
#X connect 22 0 25 1;
#X connect 23 0 9 0;
#X connect 24 0 26 0;
#X connect 25 0 23 0;
#X connect 26 0 25 0;
#X connect 26 1 23 1;
#X connect 27 0 30 1;
#X connect 28 0 10 0;
#X connect 29 0 31 0;
#X connect 30 0 28 0;
#X connect 31 0 30 0;
#X connect 31 1 28 1;
#X connect 34 0 36 0;
#X connect 35 0 40 0;
#X connect 36 0 35 0;
#X connect 36 1 44 0;
#X connect 36 2 45 0;
#X connect 36 3 46 0;
#X connect 36 4 4 0;
#X connect 37 0 47 0;
#X connect 37 1 48 0;
#X connect 37 2 49 0;
#X connect 37 3 50 0;
#X connect 37 4 4 0;
#X connect 38 0 37 0;
#X connect 40 0 19 0;
#X connect 41 0 24 0;
#X connect 42 0 29 0;
#X connect 43 0 14 0;
#X connect 44 0 41 0;
#X connect 45 0 42 0;
#X connect 46 0 43 0;
#X connect 47 0 40 0;
#X connect 48 0 41 0;
#X connect 49 0 42 0;
#X connect 50 0 43 0;
#X connect 51 0 56 0;
#X connect 51 1 55 0;
#X connect 51 2 54 0;
#X connect 51 3 53 0;
#X connect 51 4 4 0;
#X connect 52 0 51 0;
#X connect 53 0 43 0;
#X connect 54 0 42 0;
#X connect 55 0 41 0;
#X connect 56 0 40 0;
#X coords 0 -1 1 1 555 155 2 100 100;
#X restore 718 282 pd sub1;
#N canvas 143 119 450 300 default 0;
#X obj 128 259 list trim;
#X obj 128 232 list prepend send;
#X obj 128 282 outlet;
#X text 98 111 all sources default;
#X obj 146 139 bng 33 250 50 0 empty empty empty 17 7 0 10 -258113
-1 -1;
#X obj 128 199 oscformat default_source_positions;
#X connect 0 0 2 0;
#X connect 1 0 0 0;
#X connect 4 0 5 0;
#X connect 5 0 1 0;
#X coords 0 -1 1 1 133 88 2 100 100;
#X restore 854 441 pd default;
#X text 907 139 1: mute all AP;
#X text 375 97 4:start;
#X text 1005 293 5: control spatialisation;
#X text 1078 339 Preset1;
#X text 301 509 comment;
#X text 811 306 comment;
#X text 853 444 all sources default;
#X floatatom 718 442 5 0 0 0 - - -;
#X floatatom 718 466 5 0 0 0 - - -;
#X text 1133 340 Preset2;
#X text 1186 339 preset3;
#N canvas 0 23 1440 804 more 0;
#X obj 110 245 outlet;
#X msg 109 193 1;
#X obj 109 148 bng 22 250 50 0 empty empty empty 17 7 0 10 -257985
-1 -1;
#X obj 110 219 oscformat monitor all_stereo;
#X text 112 111 all stereo;
#X connect 1 0 3 0;
#X connect 2 0 1 0;
#X connect 3 0 0 0;
#X coords 0 -1 1 1 88 77 2 100 100;
#X restore 621 168 pd more;
#X obj 184 233 granular_setter;
#X text 145 183 2: set target;
#X text 253 183 3: set source;
#X obj 235 124 t b b;
#X msg 183 204 3;
#X msg 271 203 6;
#X connect 1 0 0 0;
#X connect 2 0 1 0;
#X connect 3 0 0 0;
#X connect 4 0 0 0;
#X connect 5 0 4 0;
#X connect 6 0 25 0;
#X connect 7 0 2 0;
#X connect 8 0 0 0;
#X connect 8 0 17 0;
#X connect 9 0 0 0;
#X connect 17 0 18 0;
#X connect 21 0 2 0;
#X connect 25 0 27 0;
#X connect 25 1 26 0;
#X connect 26 0 22 0;
#X connect 27 0 22 1;
