#N canvas 37 94 955 582 10;
#N canvas 24 75 1044 684 granular 0;
#X obj 818 154 s maxLength;
#X msg 818 133 4410;
#X obj 817 111 loadbang;
#X obj 871 183 bng 15 250 50 0 empty empty empty 17 7 0 10 -262144
-1 -1;
#X msg 820 206 0.5;
#X msg 820 228 0.1;
#X msg 769 232 1;
#X msg 820 270 0;
#X msg 820 184 1000;
#X obj 873 208 s stMeanH;
#X obj 873 228 s tMeanH;
#X obj 873 268 s spMeanH;
#X obj 873 288 s volMeanH;
#X obj 873 308 s panningH;
#X obj 952 208 s stRangeH;
#X obj 952 228 s tRangeH;
#X obj 954 268 s spRangeH;
#X obj 952 288 s volRangeH;
#X obj 873 248 s lMeanH;
#X obj 952 248 s lRangeH;
#X msg 983 162 2000;
#X obj 983 183 s maxDel;
#X obj 909 122 delwrite~ tape1 5000;
#N canvas 0 23 1258 676 online8grains 0;
#N canvas 0 22 1020 608 selector8toggles 0;
#X msg 200 147 1;
#X msg 161 147 0;
#X msg 240 192 1;
#X msg 201 192 0;
#X obj 161 340 tgl 15 0 empty empty empty 17 7 0 10 -262144 -1 -1 1
1;
#X obj 184 340 tgl 15 0 empty empty empty 17 7 0 10 -262144 -1 -1 1
1;
#X obj 206 340 tgl 15 0 empty empty empty 17 7 0 10 -262144 -1 -1 1
1;
#X obj 229 340 tgl 15 0 empty empty empty 17 7 0 10 -262144 -1 -1 1
1;
#X msg 280 238 1;
#X msg 241 238 0;
#X msg 321 286 1;
#X msg 282 286 0;
#X obj 161 125 moses 1;
#X obj 201 170 moses 2;
#X obj 241 216 moses 3;
#X obj 282 264 moses 4;
#X msg 290 149 1;
#X msg 251 149 0;
#X msg 330 194 1;
#X msg 291 194 0;
#X msg 370 240 1;
#X msg 331 240 0;
#X msg 411 288 1;
#X msg 372 288 0;
#X obj 251 127 moses 5;
#X obj 291 172 moses 6;
#X obj 331 218 moses 7;
#X obj 372 266 moses 8;
#X obj 260 340 tgl 15 0 empty empty empty 17 7 0 10 -262144 -1 -1 1
1;
#X obj 283 340 tgl 15 0 empty empty empty 17 7 0 10 -262144 -1 -1 1
1;
#X obj 305 340 tgl 15 0 empty empty empty 17 7 0 10 -262144 -1 -1 1
1;
#X obj 328 340 tgl 15 0 empty empty empty 17 7 0 10 -262144 -1 -1 1
1;
#X obj 295 95 inlet;
#X obj 184 385 outlet;
#X obj 161 362 outlet;
#X obj 229 383 outlet;
#X obj 206 360 outlet;
#X obj 283 384 outlet;
#X obj 260 361 outlet;
#X obj 328 382 outlet;
#X obj 305 359 outlet;
#X connect 0 0 4 0;
#X connect 1 0 4 0;
#X connect 2 0 5 0;
#X connect 3 0 5 0;
#X connect 4 0 34 0;
#X connect 5 0 33 0;
#X connect 6 0 36 0;
#X connect 7 0 35 0;
#X connect 8 0 6 0;
#X connect 9 0 6 0;
#X connect 10 0 7 0;
#X connect 11 0 7 0;
#X connect 12 0 1 0;
#X connect 12 1 0 0;
#X connect 13 0 3 0;
#X connect 13 1 2 0;
#X connect 14 0 9 0;
#X connect 14 1 8 0;
#X connect 15 0 11 0;
#X connect 15 1 10 0;
#X connect 16 0 28 0;
#X connect 17 0 28 0;
#X connect 18 0 29 0;
#X connect 19 0 29 0;
#X connect 20 0 30 0;
#X connect 21 0 30 0;
#X connect 22 0 31 0;
#X connect 23 0 31 0;
#X connect 24 0 17 0;
#X connect 24 1 16 0;
#X connect 25 0 19 0;
#X connect 25 1 18 0;
#X connect 26 0 21 0;
#X connect 26 1 20 0;
#X connect 27 0 23 0;
#X connect 27 1 22 0;
#X connect 28 0 38 0;
#X connect 29 0 37 0;
#X connect 30 0 40 0;
#X connect 31 0 39 0;
#X connect 32 0 12 0;
#X connect 32 0 13 0;
#X connect 32 0 14 0;
#X connect 32 0 15 0;
#X connect 32 0 24 0;
#X connect 32 0 25 0;
#X connect 32 0 26 0;
#X connect 32 0 27 0;
#X restore 956 48 pd selector8toggles;
#X obj 956 25 inlet;
#X obj 99 52 r tMean;
#X obj 106 72 r tRange;
#X obj 121 115 r lRange;
#X obj 128 135 r spMean;
#X obj 136 154 r spRange;
#X obj 145 173 r stMean;
#X obj 114 94 r lMean;
#X obj 150 192 r stRange;
#X obj 158 210 r volMean;
#X obj 165 229 r volRange;
#X obj 173 248 r panning;
#X obj 182 266 r octaveLock;
#X obj 102 28 tgl 15 0 empty empty empty 17 7 0 10 -262144 -1 -1 1
1;
#X obj 275 51 r tMean;
#X obj 282 71 r tRange;
#X obj 297 114 r lRange;
#X obj 304 134 r spMean;
#X obj 312 153 r spRange;
#X obj 321 172 r stMean;
#X obj 290 93 r lMean;
#X obj 326 191 r stRange;
#X obj 334 209 r volMean;
#X obj 341 228 r volRange;
#X obj 349 247 r panning;
#X obj 358 265 r octaveLock;
#X obj 278 27 tgl 15 0 empty empty empty 17 7 0 10 -262144 -1 -1 1
1;
#X obj 439 54 r tMean;
#X obj 446 74 r tRange;
#X obj 461 117 r lRange;
#X obj 468 137 r spMean;
#X obj 476 156 r spRange;
#X obj 485 175 r stMean;
#X obj 454 96 r lMean;
#X obj 490 194 r stRange;
#X obj 498 212 r volMean;
#X obj 505 231 r volRange;
#X obj 513 250 r panning;
#X obj 522 268 r octaveLock;
#X obj 442 30 tgl 15 0 empty empty empty 17 7 0 10 -262144 -1 -1 1
1;
#X obj 615 53 r tMean;
#X obj 622 73 r tRange;
#X obj 637 116 r lRange;
#X obj 644 136 r spMean;
#X obj 652 155 r spRange;
#X obj 661 174 r stMean;
#X obj 630 95 r lMean;
#X obj 666 193 r stRange;
#X obj 674 211 r volMean;
#X obj 681 230 r volRange;
#X obj 689 249 r panning;
#X obj 698 267 r octaveLock;
#X obj 618 29 tgl 15 0 empty empty empty 17 7 0 10 -262144 -1 -1 1
1;
#X obj 443 341 r tMean;
#X obj 450 361 r tRange;
#X obj 465 404 r lRange;
#X obj 472 424 r spMean;
#X obj 480 443 r spRange;
#X obj 489 462 r stMean;
#X obj 458 383 r lMean;
#X obj 494 481 r stRange;
#X obj 502 499 r volMean;
#X obj 509 518 r volRange;
#X obj 517 537 r panning;
#X obj 526 555 r octaveLock;
#X obj 446 317 tgl 15 0 empty empty empty 17 7 0 10 -262144 -1 -1 1
1;
#X obj 619 340 r tMean;
#X obj 626 360 r tRange;
#X obj 641 403 r lRange;
#X obj 648 423 r spMean;
#X obj 656 442 r spRange;
#X obj 665 461 r stMean;
#X obj 634 382 r lMean;
#X obj 670 480 r stRange;
#X obj 678 498 r volMean;
#X obj 685 517 r volRange;
#X obj 693 536 r panning;
#X obj 702 554 r octaveLock;
#X obj 622 316 tgl 15 0 empty empty empty 17 7 0 10 -262144 -1 -1 1
1;
#X obj 783 343 r tMean;
#X obj 790 363 r tRange;
#X obj 805 406 r lRange;
#X obj 812 426 r spMean;
#X obj 820 445 r spRange;
#X obj 829 464 r stMean;
#X obj 798 385 r lMean;
#X obj 834 483 r stRange;
#X obj 842 501 r volMean;
#X obj 849 520 r volRange;
#X obj 857 539 r panning;
#X obj 866 557 r octaveLock;
#X obj 786 319 tgl 15 0 empty empty empty 17 7 0 10 -262144 -1 -1 1
1;
#X obj 959 342 r tMean;
#X obj 966 362 r tRange;
#X obj 981 405 r lRange;
#X obj 988 425 r spMean;
#X obj 996 444 r spRange;
#X obj 1005 463 r stMean;
#X obj 974 384 r lMean;
#X obj 1010 482 r stRange;
#X obj 1018 500 r volMean;
#X obj 1025 519 r volRange;
#X obj 1033 538 r panning;
#X obj 1042 556 r octaveLock;
#X obj 962 318 tgl 15 0 empty empty empty 17 7 0 10 -262144 -1 -1 1
1;
#X obj 421 645 outlet~;
#X obj 352 646 outlet~;
#X obj 102 287 AbstractionGrain;
#X obj 278 286 AbstractionGrain;
#X obj 442 289 AbstractionGrain;
#X obj 618 289 AbstractionGrain;
#X obj 446 576 AbstractionGrain;
#X obj 622 575 AbstractionGrain;
#X obj 786 578 AbstractionGrain;
#X obj 962 577 AbstractionGrain;
#X connect 0 0 14 0;
#X connect 0 1 27 0;
#X connect 0 2 40 0;
#X connect 0 3 53 0;
#X connect 0 4 66 0;
#X connect 0 5 79 0;
#X connect 0 6 92 0;
#X connect 0 7 105 0;
#X connect 1 0 0 0;
#X connect 2 0 108 1;
#X connect 3 0 108 2;
#X connect 4 0 108 4;
#X connect 5 0 108 5;
#X connect 6 0 108 6;
#X connect 7 0 108 7;
#X connect 8 0 108 3;
#X connect 9 0 108 8;
#X connect 10 0 108 9;
#X connect 11 0 108 10;
#X connect 12 0 108 11;
#X connect 13 0 108 12;
#X connect 14 0 108 0;
#X connect 15 0 109 1;
#X connect 16 0 109 2;
#X connect 17 0 109 4;
#X connect 18 0 109 5;
#X connect 19 0 109 6;
#X connect 20 0 109 7;
#X connect 21 0 109 3;
#X connect 22 0 109 8;
#X connect 23 0 109 9;
#X connect 24 0 109 10;
#X connect 25 0 109 11;
#X connect 26 0 109 12;
#X connect 27 0 109 0;
#X connect 28 0 110 1;
#X connect 29 0 110 2;
#X connect 30 0 110 4;
#X connect 31 0 110 5;
#X connect 32 0 110 6;
#X connect 33 0 110 7;
#X connect 34 0 110 3;
#X connect 35 0 110 8;
#X connect 36 0 110 9;
#X connect 37 0 110 10;
#X connect 38 0 110 11;
#X connect 39 0 110 12;
#X connect 40 0 110 0;
#X connect 41 0 111 1;
#X connect 42 0 111 2;
#X connect 43 0 111 4;
#X connect 44 0 111 5;
#X connect 45 0 111 6;
#X connect 46 0 111 7;
#X connect 47 0 111 3;
#X connect 48 0 111 8;
#X connect 49 0 111 9;
#X connect 50 0 111 10;
#X connect 51 0 111 11;
#X connect 52 0 111 12;
#X connect 53 0 111 0;
#X connect 54 0 112 1;
#X connect 55 0 112 2;
#X connect 56 0 112 4;
#X connect 57 0 112 5;
#X connect 58 0 112 6;
#X connect 59 0 112 7;
#X connect 60 0 112 3;
#X connect 61 0 112 8;
#X connect 62 0 112 9;
#X connect 63 0 112 10;
#X connect 64 0 112 11;
#X connect 65 0 112 12;
#X connect 66 0 112 0;
#X connect 67 0 113 1;
#X connect 68 0 113 2;
#X connect 69 0 113 4;
#X connect 70 0 113 5;
#X connect 71 0 113 6;
#X connect 72 0 113 7;
#X connect 73 0 113 3;
#X connect 74 0 113 8;
#X connect 75 0 113 9;
#X connect 76 0 113 10;
#X connect 77 0 113 11;
#X connect 78 0 113 12;
#X connect 79 0 113 0;
#X connect 80 0 114 1;
#X connect 81 0 114 2;
#X connect 82 0 114 4;
#X connect 83 0 114 5;
#X connect 84 0 114 6;
#X connect 85 0 114 7;
#X connect 86 0 114 3;
#X connect 87 0 114 8;
#X connect 88 0 114 9;
#X connect 89 0 114 10;
#X connect 90 0 114 11;
#X connect 91 0 114 12;
#X connect 92 0 114 0;
#X connect 93 0 115 1;
#X connect 94 0 115 2;
#X connect 95 0 115 4;
#X connect 96 0 115 5;
#X connect 97 0 115 6;
#X connect 98 0 115 7;
#X connect 99 0 115 3;
#X connect 100 0 115 8;
#X connect 101 0 115 9;
#X connect 102 0 115 10;
#X connect 103 0 115 11;
#X connect 104 0 115 12;
#X connect 105 0 115 0;
#X connect 108 0 107 0;
#X connect 108 1 106 0;
#X connect 109 0 107 0;
#X connect 109 1 106 0;
#X connect 110 0 107 0;
#X connect 110 1 106 0;
#X connect 111 0 107 0;
#X connect 111 1 106 0;
#X connect 112 0 107 0;
#X connect 112 1 106 0;
#X connect 113 0 107 0;
#X connect 113 1 106 0;
#X connect 114 0 107 0;
#X connect 114 1 106 0;
#X connect 115 0 107 0;
#X connect 115 1 106 0;
#X restore 311 97 pd online8grains;
#X obj 309 68 r grainsNum;
#N canvas 0 23 1258 676 online8grains 0;
#N canvas 0 22 1020 608 selector8toggles 0;
#X msg 200 147 1;
#X msg 161 147 0;
#X msg 240 192 1;
#X msg 201 192 0;
#X obj 161 340 tgl 15 0 empty empty empty 17 7 0 10 -262144 -1 -1 1
1;
#X obj 184 340 tgl 15 0 empty empty empty 17 7 0 10 -262144 -1 -1 1
1;
#X obj 206 340 tgl 15 0 empty empty empty 17 7 0 10 -262144 -1 -1 0
1;
#X obj 229 340 tgl 15 0 empty empty empty 17 7 0 10 -262144 -1 -1 0
1;
#X msg 280 238 1;
#X msg 241 238 0;
#X msg 321 286 1;
#X msg 282 286 0;
#X obj 161 125 moses 1;
#X obj 201 170 moses 2;
#X obj 241 216 moses 3;
#X obj 282 264 moses 4;
#X msg 290 149 1;
#X msg 251 149 0;
#X msg 330 194 1;
#X msg 291 194 0;
#X msg 370 240 1;
#X msg 331 240 0;
#X msg 411 288 1;
#X msg 372 288 0;
#X obj 251 127 moses 5;
#X obj 291 172 moses 6;
#X obj 331 218 moses 7;
#X obj 372 266 moses 8;
#X obj 260 340 tgl 15 0 empty empty empty 17 7 0 10 -262144 -1 -1 0
1;
#X obj 283 340 tgl 15 0 empty empty empty 17 7 0 10 -262144 -1 -1 0
1;
#X obj 305 340 tgl 15 0 empty empty empty 17 7 0 10 -262144 -1 -1 0
1;
#X obj 328 340 tgl 15 0 empty empty empty 17 7 0 10 -262144 -1 -1 0
1;
#X obj 295 95 inlet;
#X obj 184 385 outlet;
#X obj 161 362 outlet;
#X obj 229 383 outlet;
#X obj 206 360 outlet;
#X obj 283 384 outlet;
#X obj 260 361 outlet;
#X obj 328 382 outlet;
#X obj 305 359 outlet;
#X connect 0 0 4 0;
#X connect 1 0 4 0;
#X connect 2 0 5 0;
#X connect 3 0 5 0;
#X connect 4 0 34 0;
#X connect 5 0 33 0;
#X connect 6 0 36 0;
#X connect 7 0 35 0;
#X connect 8 0 6 0;
#X connect 9 0 6 0;
#X connect 10 0 7 0;
#X connect 11 0 7 0;
#X connect 12 0 1 0;
#X connect 12 1 0 0;
#X connect 13 0 3 0;
#X connect 13 1 2 0;
#X connect 14 0 9 0;
#X connect 14 1 8 0;
#X connect 15 0 11 0;
#X connect 15 1 10 0;
#X connect 16 0 28 0;
#X connect 17 0 28 0;
#X connect 18 0 29 0;
#X connect 19 0 29 0;
#X connect 20 0 30 0;
#X connect 21 0 30 0;
#X connect 22 0 31 0;
#X connect 23 0 31 0;
#X connect 24 0 17 0;
#X connect 24 1 16 0;
#X connect 25 0 19 0;
#X connect 25 1 18 0;
#X connect 26 0 21 0;
#X connect 26 1 20 0;
#X connect 27 0 23 0;
#X connect 27 1 22 0;
#X connect 28 0 38 0;
#X connect 29 0 37 0;
#X connect 30 0 40 0;
#X connect 31 0 39 0;
#X connect 32 0 12 0;
#X connect 32 0 13 0;
#X connect 32 0 14 0;
#X connect 32 0 15 0;
#X connect 32 0 24 0;
#X connect 32 0 25 0;
#X connect 32 0 26 0;
#X connect 32 0 27 0;
#X restore 956 48 pd selector8toggles;
#X obj 956 25 inlet;
#X obj 99 52 r tMean;
#X obj 106 72 r tRange;
#X obj 121 115 r lRange;
#X obj 128 135 r spMean;
#X obj 136 154 r spRange;
#X obj 145 173 r stMean;
#X obj 114 94 r lMean;
#X obj 150 192 r stRange;
#X obj 158 210 r volMean;
#X obj 165 229 r volRange;
#X obj 173 248 r panning;
#X obj 182 266 r octaveLock;
#X obj 102 28 tgl 15 0 empty empty empty 17 7 0 10 -262144 -1 -1 1
1;
#X obj 275 51 r tMean;
#X obj 282 71 r tRange;
#X obj 297 114 r lRange;
#X obj 304 134 r spMean;
#X obj 312 153 r spRange;
#X obj 321 172 r stMean;
#X obj 290 93 r lMean;
#X obj 326 191 r stRange;
#X obj 334 209 r volMean;
#X obj 341 228 r volRange;
#X obj 349 247 r panning;
#X obj 358 265 r octaveLock;
#X obj 278 27 tgl 15 0 empty empty empty 17 7 0 10 -262144 -1 -1 1
1;
#X obj 439 54 r tMean;
#X obj 446 74 r tRange;
#X obj 461 117 r lRange;
#X obj 468 137 r spMean;
#X obj 476 156 r spRange;
#X obj 485 175 r stMean;
#X obj 454 96 r lMean;
#X obj 490 194 r stRange;
#X obj 498 212 r volMean;
#X obj 505 231 r volRange;
#X obj 513 250 r panning;
#X obj 522 268 r octaveLock;
#X obj 442 30 tgl 15 0 empty empty empty 17 7 0 10 -262144 -1 -1 0
1;
#X obj 615 53 r tMean;
#X obj 622 73 r tRange;
#X obj 637 116 r lRange;
#X obj 644 136 r spMean;
#X obj 652 155 r spRange;
#X obj 661 174 r stMean;
#X obj 630 95 r lMean;
#X obj 666 193 r stRange;
#X obj 674 211 r volMean;
#X obj 681 230 r volRange;
#X obj 689 249 r panning;
#X obj 698 267 r octaveLock;
#X obj 618 29 tgl 15 0 empty empty empty 17 7 0 10 -262144 -1 -1 0
1;
#X obj 443 341 r tMean;
#X obj 450 361 r tRange;
#X obj 465 404 r lRange;
#X obj 472 424 r spMean;
#X obj 480 443 r spRange;
#X obj 489 462 r stMean;
#X obj 458 383 r lMean;
#X obj 494 481 r stRange;
#X obj 502 499 r volMean;
#X obj 509 518 r volRange;
#X obj 517 537 r panning;
#X obj 526 555 r octaveLock;
#X obj 446 317 tgl 15 0 empty empty empty 17 7 0 10 -262144 -1 -1 0
1;
#X obj 619 340 r tMean;
#X obj 626 360 r tRange;
#X obj 641 403 r lRange;
#X obj 648 423 r spMean;
#X obj 656 442 r spRange;
#X obj 665 461 r stMean;
#X obj 634 382 r lMean;
#X obj 670 480 r stRange;
#X obj 678 498 r volMean;
#X obj 685 517 r volRange;
#X obj 693 536 r panning;
#X obj 702 554 r octaveLock;
#X obj 622 316 tgl 15 0 empty empty empty 17 7 0 10 -262144 -1 -1 0
1;
#X obj 783 343 r tMean;
#X obj 790 363 r tRange;
#X obj 805 406 r lRange;
#X obj 812 426 r spMean;
#X obj 820 445 r spRange;
#X obj 829 464 r stMean;
#X obj 798 385 r lMean;
#X obj 834 483 r stRange;
#X obj 842 501 r volMean;
#X obj 849 520 r volRange;
#X obj 857 539 r panning;
#X obj 866 557 r octaveLock;
#X obj 786 319 tgl 15 0 empty empty empty 17 7 0 10 -262144 -1 -1 0
1;
#X obj 959 342 r tMean;
#X obj 966 362 r tRange;
#X obj 981 405 r lRange;
#X obj 988 425 r spMean;
#X obj 996 444 r spRange;
#X obj 1005 463 r stMean;
#X obj 974 384 r lMean;
#X obj 1010 482 r stRange;
#X obj 1018 500 r volMean;
#X obj 1025 519 r volRange;
#X obj 1033 538 r panning;
#X obj 1042 556 r octaveLock;
#X obj 962 318 tgl 15 0 empty empty empty 17 7 0 10 -262144 -1 -1 0
1;
#X obj 421 645 outlet~;
#X obj 352 646 outlet~;
#X obj 102 287 AbstractionGrain;
#X obj 278 286 AbstractionGrain;
#X obj 442 289 AbstractionGrain;
#X obj 618 288 AbstractionGrain;
#X obj 446 576 AbstractionGrain;
#X obj 623 575 AbstractionGrain;
#X obj 786 579 AbstractionGrain;
#X obj 962 577 AbstractionGrain;
#X connect 0 0 14 0;
#X connect 0 1 27 0;
#X connect 0 2 40 0;
#X connect 0 3 53 0;
#X connect 0 4 66 0;
#X connect 0 5 79 0;
#X connect 0 6 92 0;
#X connect 0 7 105 0;
#X connect 1 0 0 0;
#X connect 2 0 108 1;
#X connect 3 0 108 2;
#X connect 4 0 108 4;
#X connect 5 0 108 5;
#X connect 6 0 108 6;
#X connect 7 0 108 7;
#X connect 8 0 108 3;
#X connect 9 0 108 8;
#X connect 10 0 108 9;
#X connect 11 0 108 10;
#X connect 12 0 108 11;
#X connect 13 0 108 12;
#X connect 14 0 108 0;
#X connect 15 0 109 1;
#X connect 16 0 109 2;
#X connect 17 0 109 4;
#X connect 18 0 109 5;
#X connect 19 0 109 6;
#X connect 20 0 109 7;
#X connect 21 0 109 3;
#X connect 22 0 109 8;
#X connect 23 0 109 9;
#X connect 24 0 109 10;
#X connect 25 0 109 11;
#X connect 26 0 109 12;
#X connect 27 0 109 0;
#X connect 28 0 110 1;
#X connect 29 0 110 2;
#X connect 30 0 110 4;
#X connect 31 0 110 5;
#X connect 32 0 110 6;
#X connect 33 0 110 7;
#X connect 34 0 110 3;
#X connect 35 0 110 8;
#X connect 36 0 110 9;
#X connect 37 0 110 10;
#X connect 38 0 110 11;
#X connect 39 0 110 12;
#X connect 40 0 110 0;
#X connect 41 0 111 1;
#X connect 42 0 111 2;
#X connect 43 0 111 4;
#X connect 44 0 111 5;
#X connect 45 0 111 6;
#X connect 46 0 111 7;
#X connect 47 0 111 3;
#X connect 48 0 111 8;
#X connect 49 0 111 9;
#X connect 50 0 111 10;
#X connect 51 0 111 11;
#X connect 52 0 111 12;
#X connect 53 0 111 0;
#X connect 54 0 112 1;
#X connect 55 0 112 2;
#X connect 56 0 112 4;
#X connect 57 0 112 5;
#X connect 58 0 112 6;
#X connect 59 0 112 7;
#X connect 60 0 112 3;
#X connect 61 0 112 8;
#X connect 62 0 112 9;
#X connect 63 0 112 10;
#X connect 64 0 112 11;
#X connect 65 0 112 12;
#X connect 66 0 112 0;
#X connect 67 0 113 1;
#X connect 68 0 113 2;
#X connect 69 0 113 4;
#X connect 70 0 113 5;
#X connect 71 0 113 6;
#X connect 72 0 113 7;
#X connect 73 0 113 3;
#X connect 74 0 113 8;
#X connect 75 0 113 9;
#X connect 76 0 113 10;
#X connect 77 0 113 11;
#X connect 78 0 113 12;
#X connect 79 0 113 0;
#X connect 80 0 114 1;
#X connect 81 0 114 2;
#X connect 82 0 114 4;
#X connect 83 0 114 5;
#X connect 84 0 114 6;
#X connect 85 0 114 7;
#X connect 86 0 114 3;
#X connect 87 0 114 8;
#X connect 88 0 114 9;
#X connect 89 0 114 10;
#X connect 90 0 114 11;
#X connect 91 0 114 12;
#X connect 92 0 114 0;
#X connect 93 0 115 1;
#X connect 94 0 115 2;
#X connect 95 0 115 4;
#X connect 96 0 115 5;
#X connect 97 0 115 6;
#X connect 98 0 115 7;
#X connect 99 0 115 3;
#X connect 100 0 115 8;
#X connect 101 0 115 9;
#X connect 102 0 115 10;
#X connect 103 0 115 11;
#X connect 104 0 115 12;
#X connect 105 0 115 0;
#X connect 108 0 107 0;
#X connect 108 1 106 0;
#X connect 109 0 107 0;
#X connect 109 1 106 0;
#X connect 110 0 107 0;
#X connect 110 1 106 0;
#X connect 111 0 107 0;
#X connect 111 1 106 0;
#X connect 112 0 107 0;
#X connect 112 1 106 0;
#X connect 113 0 107 0;
#X connect 113 1 106 0;
#X connect 114 0 107 0;
#X connect 114 1 106 0;
#X connect 115 0 107 0;
#X connect 115 1 106 0;
#X restore 420 95 pd online8grains;
#X obj 418 45 r grainsNum;
#N canvas 182 23 1258 676 online8grains 0;
#N canvas 0 22 1020 608 selector8toggles 0;
#X msg 200 147 1;
#X msg 161 147 0;
#X msg 240 192 1;
#X msg 201 192 0;
#X obj 161 340 tgl 15 0 empty empty empty 17 7 0 10 -262144 -1 -1 0
1;
#X obj 184 340 tgl 15 0 empty empty empty 17 7 0 10 -262144 -1 -1 0
1;
#X obj 206 340 tgl 15 0 empty empty empty 17 7 0 10 -262144 -1 -1 0
1;
#X obj 229 340 tgl 15 0 empty empty empty 17 7 0 10 -262144 -1 -1 0
1;
#X msg 280 238 1;
#X msg 241 238 0;
#X msg 321 286 1;
#X msg 282 286 0;
#X obj 161 125 moses 1;
#X obj 201 170 moses 2;
#X obj 241 216 moses 3;
#X obj 282 264 moses 4;
#X msg 290 149 1;
#X msg 251 149 0;
#X msg 330 194 1;
#X msg 291 194 0;
#X msg 370 240 1;
#X msg 331 240 0;
#X msg 411 288 1;
#X msg 372 288 0;
#X obj 251 127 moses 5;
#X obj 291 172 moses 6;
#X obj 331 218 moses 7;
#X obj 372 266 moses 8;
#X obj 260 340 tgl 15 0 empty empty empty 17 7 0 10 -262144 -1 -1 0
1;
#X obj 283 340 tgl 15 0 empty empty empty 17 7 0 10 -262144 -1 -1 0
1;
#X obj 305 340 tgl 15 0 empty empty empty 17 7 0 10 -262144 -1 -1 0
1;
#X obj 328 340 tgl 15 0 empty empty empty 17 7 0 10 -262144 -1 -1 0
1;
#X obj 295 95 inlet;
#X obj 184 385 outlet;
#X obj 161 362 outlet;
#X obj 229 383 outlet;
#X obj 206 360 outlet;
#X obj 283 384 outlet;
#X obj 260 361 outlet;
#X obj 328 382 outlet;
#X obj 305 359 outlet;
#X connect 0 0 4 0;
#X connect 1 0 4 0;
#X connect 2 0 5 0;
#X connect 3 0 5 0;
#X connect 4 0 34 0;
#X connect 5 0 33 0;
#X connect 6 0 36 0;
#X connect 7 0 35 0;
#X connect 8 0 6 0;
#X connect 9 0 6 0;
#X connect 10 0 7 0;
#X connect 11 0 7 0;
#X connect 12 0 1 0;
#X connect 12 1 0 0;
#X connect 13 0 3 0;
#X connect 13 1 2 0;
#X connect 14 0 9 0;
#X connect 14 1 8 0;
#X connect 15 0 11 0;
#X connect 15 1 10 0;
#X connect 16 0 28 0;
#X connect 17 0 28 0;
#X connect 18 0 29 0;
#X connect 19 0 29 0;
#X connect 20 0 30 0;
#X connect 21 0 30 0;
#X connect 22 0 31 0;
#X connect 23 0 31 0;
#X connect 24 0 17 0;
#X connect 24 1 16 0;
#X connect 25 0 19 0;
#X connect 25 1 18 0;
#X connect 26 0 21 0;
#X connect 26 1 20 0;
#X connect 27 0 23 0;
#X connect 27 1 22 0;
#X connect 28 0 38 0;
#X connect 29 0 37 0;
#X connect 30 0 40 0;
#X connect 31 0 39 0;
#X connect 32 0 12 0;
#X connect 32 0 13 0;
#X connect 32 0 14 0;
#X connect 32 0 15 0;
#X connect 32 0 24 0;
#X connect 32 0 25 0;
#X connect 32 0 26 0;
#X connect 32 0 27 0;
#X restore 956 48 pd selector8toggles;
#X obj 956 25 inlet;
#X obj 99 52 r tMean;
#X obj 106 72 r tRange;
#X obj 121 115 r lRange;
#X obj 128 135 r spMean;
#X obj 136 154 r spRange;
#X obj 145 173 r stMean;
#X obj 114 94 r lMean;
#X obj 150 192 r stRange;
#X obj 158 210 r volMean;
#X obj 165 229 r volRange;
#X obj 173 248 r panning;
#X obj 182 266 r octaveLock;
#X obj 102 28 tgl 15 0 empty empty empty 17 7 0 10 -262144 -1 -1 0
1;
#X obj 275 51 r tMean;
#X obj 282 71 r tRange;
#X obj 297 114 r lRange;
#X obj 304 134 r spMean;
#X obj 312 153 r spRange;
#X obj 321 172 r stMean;
#X obj 290 93 r lMean;
#X obj 326 191 r stRange;
#X obj 334 209 r volMean;
#X obj 341 228 r volRange;
#X obj 349 247 r panning;
#X obj 358 265 r octaveLock;
#X obj 278 27 tgl 15 0 empty empty empty 17 7 0 10 -262144 -1 -1 0
1;
#X obj 439 54 r tMean;
#X obj 446 74 r tRange;
#X obj 461 117 r lRange;
#X obj 468 137 r spMean;
#X obj 476 156 r spRange;
#X obj 485 175 r stMean;
#X obj 454 96 r lMean;
#X obj 490 194 r stRange;
#X obj 498 212 r volMean;
#X obj 505 231 r volRange;
#X obj 513 250 r panning;
#X obj 522 268 r octaveLock;
#X obj 442 30 tgl 15 0 empty empty empty 17 7 0 10 -262144 -1 -1 0
1;
#X obj 615 53 r tMean;
#X obj 622 73 r tRange;
#X obj 637 116 r lRange;
#X obj 644 136 r spMean;
#X obj 652 155 r spRange;
#X obj 661 174 r stMean;
#X obj 630 95 r lMean;
#X obj 666 193 r stRange;
#X obj 674 211 r volMean;
#X obj 681 230 r volRange;
#X obj 689 249 r panning;
#X obj 698 267 r octaveLock;
#X obj 618 29 tgl 15 0 empty empty empty 17 7 0 10 -262144 -1 -1 0
1;
#X obj 443 341 r tMean;
#X obj 450 361 r tRange;
#X obj 465 404 r lRange;
#X obj 472 424 r spMean;
#X obj 480 443 r spRange;
#X obj 489 462 r stMean;
#X obj 458 383 r lMean;
#X obj 494 481 r stRange;
#X obj 502 499 r volMean;
#X obj 509 518 r volRange;
#X obj 517 537 r panning;
#X obj 526 555 r octaveLock;
#X obj 446 317 tgl 15 0 empty empty empty 17 7 0 10 -262144 -1 -1 0
1;
#X obj 619 340 r tMean;
#X obj 626 360 r tRange;
#X obj 641 403 r lRange;
#X obj 648 423 r spMean;
#X obj 656 442 r spRange;
#X obj 665 461 r stMean;
#X obj 634 382 r lMean;
#X obj 670 480 r stRange;
#X obj 678 498 r volMean;
#X obj 685 517 r volRange;
#X obj 693 536 r panning;
#X obj 702 554 r octaveLock;
#X obj 622 316 tgl 15 0 empty empty empty 17 7 0 10 -262144 -1 -1 0
1;
#X obj 783 343 r tMean;
#X obj 790 363 r tRange;
#X obj 805 406 r lRange;
#X obj 812 426 r spMean;
#X obj 820 445 r spRange;
#X obj 829 464 r stMean;
#X obj 798 385 r lMean;
#X obj 834 483 r stRange;
#X obj 842 501 r volMean;
#X obj 849 520 r volRange;
#X obj 857 539 r panning;
#X obj 866 557 r octaveLock;
#X obj 786 319 tgl 15 0 empty empty empty 17 7 0 10 -262144 -1 -1 0
1;
#X obj 959 342 r tMean;
#X obj 966 362 r tRange;
#X obj 981 405 r lRange;
#X obj 988 425 r spMean;
#X obj 996 444 r spRange;
#X obj 1005 463 r stMean;
#X obj 974 384 r lMean;
#X obj 1010 482 r stRange;
#X obj 1018 500 r volMean;
#X obj 1025 519 r volRange;
#X obj 1033 538 r panning;
#X obj 1042 556 r octaveLock;
#X obj 962 318 tgl 15 0 empty empty empty 17 7 0 10 -262144 -1 -1 0
1;
#X obj 421 645 outlet~;
#X obj 352 646 outlet~;
#X obj 102 287 AbstractionGrain;
#X obj 278 287 AbstractionGrain;
#X obj 442 289 AbstractionGrain;
#X obj 618 288 AbstractionGrain;
#X obj 446 576 AbstractionGrain;
#X obj 622 575 AbstractionGrain;
#X obj 786 578 AbstractionGrain;
#X obj 962 577 AbstractionGrain;
#X connect 0 0 14 0;
#X connect 0 1 27 0;
#X connect 0 2 40 0;
#X connect 0 3 53 0;
#X connect 0 4 66 0;
#X connect 0 5 79 0;
#X connect 0 6 92 0;
#X connect 0 7 105 0;
#X connect 1 0 0 0;
#X connect 2 0 108 1;
#X connect 3 0 108 2;
#X connect 4 0 108 4;
#X connect 5 0 108 5;
#X connect 6 0 108 6;
#X connect 7 0 108 7;
#X connect 8 0 108 3;
#X connect 9 0 108 8;
#X connect 10 0 108 9;
#X connect 11 0 108 10;
#X connect 12 0 108 11;
#X connect 13 0 108 12;
#X connect 14 0 108 0;
#X connect 15 0 109 1;
#X connect 16 0 109 2;
#X connect 17 0 109 4;
#X connect 18 0 109 5;
#X connect 19 0 109 6;
#X connect 20 0 109 7;
#X connect 21 0 109 3;
#X connect 22 0 109 8;
#X connect 23 0 109 9;
#X connect 24 0 109 10;
#X connect 25 0 109 11;
#X connect 26 0 109 12;
#X connect 27 0 109 0;
#X connect 28 0 110 1;
#X connect 29 0 110 2;
#X connect 30 0 110 4;
#X connect 31 0 110 5;
#X connect 32 0 110 6;
#X connect 33 0 110 7;
#X connect 34 0 110 3;
#X connect 35 0 110 8;
#X connect 36 0 110 9;
#X connect 37 0 110 10;
#X connect 38 0 110 11;
#X connect 39 0 110 12;
#X connect 40 0 110 0;
#X connect 41 0 111 1;
#X connect 42 0 111 2;
#X connect 43 0 111 4;
#X connect 44 0 111 5;
#X connect 45 0 111 6;
#X connect 46 0 111 7;
#X connect 47 0 111 3;
#X connect 48 0 111 8;
#X connect 49 0 111 9;
#X connect 50 0 111 10;
#X connect 51 0 111 11;
#X connect 52 0 111 12;
#X connect 53 0 111 0;
#X connect 54 0 112 1;
#X connect 55 0 112 2;
#X connect 56 0 112 4;
#X connect 57 0 112 5;
#X connect 58 0 112 6;
#X connect 59 0 112 7;
#X connect 60 0 112 3;
#X connect 61 0 112 8;
#X connect 62 0 112 9;
#X connect 63 0 112 10;
#X connect 64 0 112 11;
#X connect 65 0 112 12;
#X connect 66 0 112 0;
#X connect 67 0 113 1;
#X connect 68 0 113 2;
#X connect 69 0 113 4;
#X connect 70 0 113 5;
#X connect 71 0 113 6;
#X connect 72 0 113 7;
#X connect 73 0 113 3;
#X connect 74 0 113 8;
#X connect 75 0 113 9;
#X connect 76 0 113 10;
#X connect 77 0 113 11;
#X connect 78 0 113 12;
#X connect 79 0 113 0;
#X connect 80 0 114 1;
#X connect 81 0 114 2;
#X connect 82 0 114 4;
#X connect 83 0 114 5;
#X connect 84 0 114 6;
#X connect 85 0 114 7;
#X connect 86 0 114 3;
#X connect 87 0 114 8;
#X connect 88 0 114 9;
#X connect 89 0 114 10;
#X connect 90 0 114 11;
#X connect 91 0 114 12;
#X connect 92 0 114 0;
#X connect 93 0 115 1;
#X connect 94 0 115 2;
#X connect 95 0 115 4;
#X connect 96 0 115 5;
#X connect 97 0 115 6;
#X connect 98 0 115 7;
#X connect 99 0 115 3;
#X connect 100 0 115 8;
#X connect 101 0 115 9;
#X connect 102 0 115 10;
#X connect 103 0 115 11;
#X connect 104 0 115 12;
#X connect 105 0 115 0;
#X connect 108 0 107 0;
#X connect 108 1 106 0;
#X connect 109 0 107 0;
#X connect 109 1 106 0;
#X connect 110 0 107 0;
#X connect 110 1 106 0;
#X connect 111 0 107 0;
#X connect 111 1 106 0;
#X connect 112 0 107 0;
#X connect 112 1 106 0;
#X connect 113 0 107 0;
#X connect 113 1 106 0;
#X connect 114 0 107 0;
#X connect 114 1 106 0;
#X connect 115 0 107 0;
#X connect 115 1 106 0;
#X restore 532 89 pd online8grains;
#X obj 532 44 r grainsNum;
#N canvas 97 44 1258 676 online8grains 0;
#N canvas 0 22 1020 608 selector8toggles 0;
#X msg 200 147 1;
#X msg 161 147 0;
#X msg 240 192 1;
#X msg 201 192 0;
#X obj 161 340 tgl 15 0 empty empty empty 17 7 0 10 -262144 -1 -1 0
1;
#X obj 184 340 tgl 15 0 empty empty empty 17 7 0 10 -262144 -1 -1 0
1;
#X obj 206 340 tgl 15 0 empty empty empty 17 7 0 10 -262144 -1 -1 0
1;
#X obj 229 340 tgl 15 0 empty empty empty 17 7 0 10 -262144 -1 -1 0
1;
#X msg 280 238 1;
#X msg 241 238 0;
#X msg 321 286 1;
#X msg 282 286 0;
#X obj 161 125 moses 1;
#X obj 201 170 moses 2;
#X obj 241 216 moses 3;
#X obj 282 264 moses 4;
#X msg 290 149 1;
#X msg 251 149 0;
#X msg 330 194 1;
#X msg 291 194 0;
#X msg 370 240 1;
#X msg 331 240 0;
#X msg 411 288 1;
#X msg 372 288 0;
#X obj 251 127 moses 5;
#X obj 291 172 moses 6;
#X obj 331 218 moses 7;
#X obj 372 266 moses 8;
#X obj 260 340 tgl 15 0 empty empty empty 17 7 0 10 -262144 -1 -1 0
1;
#X obj 283 340 tgl 15 0 empty empty empty 17 7 0 10 -262144 -1 -1 0
1;
#X obj 305 340 tgl 15 0 empty empty empty 17 7 0 10 -262144 -1 -1 0
1;
#X obj 328 340 tgl 15 0 empty empty empty 17 7 0 10 -262144 -1 -1 0
1;
#X obj 295 95 inlet;
#X obj 184 385 outlet;
#X obj 161 362 outlet;
#X obj 229 383 outlet;
#X obj 206 360 outlet;
#X obj 283 384 outlet;
#X obj 260 361 outlet;
#X obj 328 382 outlet;
#X obj 305 359 outlet;
#X connect 0 0 4 0;
#X connect 1 0 4 0;
#X connect 2 0 5 0;
#X connect 3 0 5 0;
#X connect 4 0 34 0;
#X connect 5 0 33 0;
#X connect 6 0 36 0;
#X connect 7 0 35 0;
#X connect 8 0 6 0;
#X connect 9 0 6 0;
#X connect 10 0 7 0;
#X connect 11 0 7 0;
#X connect 12 0 1 0;
#X connect 12 1 0 0;
#X connect 13 0 3 0;
#X connect 13 1 2 0;
#X connect 14 0 9 0;
#X connect 14 1 8 0;
#X connect 15 0 11 0;
#X connect 15 1 10 0;
#X connect 16 0 28 0;
#X connect 17 0 28 0;
#X connect 18 0 29 0;
#X connect 19 0 29 0;
#X connect 20 0 30 0;
#X connect 21 0 30 0;
#X connect 22 0 31 0;
#X connect 23 0 31 0;
#X connect 24 0 17 0;
#X connect 24 1 16 0;
#X connect 25 0 19 0;
#X connect 25 1 18 0;
#X connect 26 0 21 0;
#X connect 26 1 20 0;
#X connect 27 0 23 0;
#X connect 27 1 22 0;
#X connect 28 0 38 0;
#X connect 29 0 37 0;
#X connect 30 0 40 0;
#X connect 31 0 39 0;
#X connect 32 0 12 0;
#X connect 32 0 13 0;
#X connect 32 0 14 0;
#X connect 32 0 15 0;
#X connect 32 0 24 0;
#X connect 32 0 25 0;
#X connect 32 0 26 0;
#X connect 32 0 27 0;
#X restore 956 48 pd selector8toggles;
#X obj 956 25 inlet;
#X obj 99 52 r tMean;
#X obj 106 72 r tRange;
#X obj 121 115 r lRange;
#X obj 128 135 r spMean;
#X obj 136 154 r spRange;
#X obj 145 173 r stMean;
#X obj 114 94 r lMean;
#X obj 150 192 r stRange;
#X obj 158 210 r volMean;
#X obj 165 229 r volRange;
#X obj 173 248 r panning;
#X obj 182 266 r octaveLock;
#X obj 102 28 tgl 15 0 empty empty empty 17 7 0 10 -262144 -1 -1 0
1;
#X obj 275 51 r tMean;
#X obj 282 71 r tRange;
#X obj 297 114 r lRange;
#X obj 304 134 r spMean;
#X obj 312 153 r spRange;
#X obj 321 172 r stMean;
#X obj 290 93 r lMean;
#X obj 326 191 r stRange;
#X obj 334 209 r volMean;
#X obj 341 228 r volRange;
#X obj 349 247 r panning;
#X obj 358 265 r octaveLock;
#X obj 278 27 tgl 15 0 empty empty empty 17 7 0 10 -262144 -1 -1 0
1;
#X obj 439 54 r tMean;
#X obj 446 74 r tRange;
#X obj 461 117 r lRange;
#X obj 468 137 r spMean;
#X obj 476 156 r spRange;
#X obj 485 175 r stMean;
#X obj 454 96 r lMean;
#X obj 490 194 r stRange;
#X obj 498 212 r volMean;
#X obj 505 231 r volRange;
#X obj 513 250 r panning;
#X obj 522 268 r octaveLock;
#X obj 442 30 tgl 15 0 empty empty empty 17 7 0 10 -262144 -1 -1 0
1;
#X obj 615 53 r tMean;
#X obj 622 73 r tRange;
#X obj 637 116 r lRange;
#X obj 644 136 r spMean;
#X obj 652 155 r spRange;
#X obj 661 174 r stMean;
#X obj 630 95 r lMean;
#X obj 666 193 r stRange;
#X obj 674 211 r volMean;
#X obj 681 230 r volRange;
#X obj 689 249 r panning;
#X obj 698 267 r octaveLock;
#X obj 618 29 tgl 15 0 empty empty empty 17 7 0 10 -262144 -1 -1 0
1;
#X obj 443 341 r tMean;
#X obj 450 361 r tRange;
#X obj 465 404 r lRange;
#X obj 472 424 r spMean;
#X obj 480 443 r spRange;
#X obj 489 462 r stMean;
#X obj 458 383 r lMean;
#X obj 494 481 r stRange;
#X obj 502 499 r volMean;
#X obj 509 518 r volRange;
#X obj 517 537 r panning;
#X obj 526 555 r octaveLock;
#X obj 446 317 tgl 15 0 empty empty empty 17 7 0 10 -262144 -1 -1 0
1;
#X obj 619 340 r tMean;
#X obj 626 360 r tRange;
#X obj 641 403 r lRange;
#X obj 648 423 r spMean;
#X obj 656 442 r spRange;
#X obj 665 461 r stMean;
#X obj 634 382 r lMean;
#X obj 670 480 r stRange;
#X obj 678 498 r volMean;
#X obj 685 517 r volRange;
#X obj 693 536 r panning;
#X obj 702 554 r octaveLock;
#X obj 622 316 tgl 15 0 empty empty empty 17 7 0 10 -262144 -1 -1 0
1;
#X obj 783 343 r tMean;
#X obj 790 363 r tRange;
#X obj 805 406 r lRange;
#X obj 812 426 r spMean;
#X obj 820 445 r spRange;
#X obj 829 464 r stMean;
#X obj 798 385 r lMean;
#X obj 834 483 r stRange;
#X obj 842 501 r volMean;
#X obj 849 520 r volRange;
#X obj 857 539 r panning;
#X obj 866 557 r octaveLock;
#X obj 786 319 tgl 15 0 empty empty empty 17 7 0 10 -262144 -1 -1 0
1;
#X obj 959 342 r tMean;
#X obj 966 362 r tRange;
#X obj 981 405 r lRange;
#X obj 988 425 r spMean;
#X obj 996 444 r spRange;
#X obj 1005 463 r stMean;
#X obj 974 384 r lMean;
#X obj 1010 482 r stRange;
#X obj 1018 500 r volMean;
#X obj 1025 519 r volRange;
#X obj 1033 538 r panning;
#X obj 1042 556 r octaveLock;
#X obj 962 318 tgl 15 0 empty empty empty 17 7 0 10 -262144 -1 -1 0
1;
#X obj 421 645 outlet~;
#X obj 352 646 outlet~;
#X obj 102 287 AbstractionGrain;
#X obj 278 286 AbstractionGrain;
#X obj 442 289 AbstractionGrain;
#X obj 618 288 AbstractionGrain;
#X obj 446 576 AbstractionGrain;
#X obj 622 575 AbstractionGrain;
#X obj 786 578 AbstractionGrain;
#X obj 962 577 AbstractionGrain;
#X connect 0 0 14 0;
#X connect 0 1 27 0;
#X connect 0 2 40 0;
#X connect 0 3 53 0;
#X connect 0 4 66 0;
#X connect 0 5 79 0;
#X connect 0 6 92 0;
#X connect 0 7 105 0;
#X connect 1 0 0 0;
#X connect 2 0 108 1;
#X connect 3 0 108 2;
#X connect 4 0 108 4;
#X connect 5 0 108 5;
#X connect 6 0 108 6;
#X connect 7 0 108 7;
#X connect 8 0 108 3;
#X connect 9 0 108 8;
#X connect 10 0 108 9;
#X connect 11 0 108 10;
#X connect 12 0 108 11;
#X connect 13 0 108 12;
#X connect 14 0 108 0;
#X connect 15 0 109 1;
#X connect 16 0 109 2;
#X connect 17 0 109 4;
#X connect 18 0 109 5;
#X connect 19 0 109 6;
#X connect 20 0 109 7;
#X connect 21 0 109 3;
#X connect 22 0 109 8;
#X connect 23 0 109 9;
#X connect 24 0 109 10;
#X connect 25 0 109 11;
#X connect 26 0 109 12;
#X connect 27 0 109 0;
#X connect 28 0 110 1;
#X connect 29 0 110 2;
#X connect 30 0 110 4;
#X connect 31 0 110 5;
#X connect 32 0 110 6;
#X connect 33 0 110 7;
#X connect 34 0 110 3;
#X connect 35 0 110 8;
#X connect 36 0 110 9;
#X connect 37 0 110 10;
#X connect 38 0 110 11;
#X connect 39 0 110 12;
#X connect 40 0 110 0;
#X connect 41 0 111 1;
#X connect 42 0 111 2;
#X connect 43 0 111 4;
#X connect 44 0 111 5;
#X connect 45 0 111 6;
#X connect 46 0 111 7;
#X connect 47 0 111 3;
#X connect 48 0 111 8;
#X connect 49 0 111 9;
#X connect 50 0 111 10;
#X connect 51 0 111 11;
#X connect 52 0 111 12;
#X connect 53 0 111 0;
#X connect 54 0 112 1;
#X connect 55 0 112 2;
#X connect 56 0 112 4;
#X connect 57 0 112 5;
#X connect 58 0 112 6;
#X connect 59 0 112 7;
#X connect 60 0 112 3;
#X connect 61 0 112 8;
#X connect 62 0 112 9;
#X connect 63 0 112 10;
#X connect 64 0 112 11;
#X connect 65 0 112 12;
#X connect 66 0 112 0;
#X connect 67 0 113 1;
#X connect 68 0 113 2;
#X connect 69 0 113 4;
#X connect 70 0 113 5;
#X connect 71 0 113 6;
#X connect 72 0 113 7;
#X connect 73 0 113 3;
#X connect 74 0 113 8;
#X connect 75 0 113 9;
#X connect 76 0 113 10;
#X connect 77 0 113 11;
#X connect 78 0 113 12;
#X connect 79 0 113 0;
#X connect 80 0 114 1;
#X connect 81 0 114 2;
#X connect 82 0 114 4;
#X connect 83 0 114 5;
#X connect 84 0 114 6;
#X connect 85 0 114 7;
#X connect 86 0 114 3;
#X connect 87 0 114 8;
#X connect 88 0 114 9;
#X connect 89 0 114 10;
#X connect 90 0 114 11;
#X connect 91 0 114 12;
#X connect 92 0 114 0;
#X connect 93 0 115 1;
#X connect 94 0 115 2;
#X connect 95 0 115 4;
#X connect 96 0 115 5;
#X connect 97 0 115 6;
#X connect 98 0 115 7;
#X connect 99 0 115 3;
#X connect 100 0 115 8;
#X connect 101 0 115 9;
#X connect 102 0 115 10;
#X connect 103 0 115 11;
#X connect 104 0 115 12;
#X connect 105 0 115 0;
#X connect 108 0 107 0;
#X connect 108 1 106 0;
#X connect 109 0 107 0;
#X connect 109 1 106 0;
#X connect 110 0 107 0;
#X connect 110 1 106 0;
#X connect 111 0 107 0;
#X connect 111 1 106 0;
#X connect 112 0 107 0;
#X connect 112 1 106 0;
#X connect 113 0 107 0;
#X connect 113 1 106 0;
#X connect 114 0 107 0;
#X connect 114 1 106 0;
#X connect 115 0 107 0;
#X connect 115 1 106 0;
#X restore 340 171 pd online8grains;
#X obj 342 131 r grainsNum;
#N canvas 0 23 1258 676 online8grains 0;
#N canvas 0 22 1020 608 selector8toggles 0;
#X msg 200 147 1;
#X msg 161 147 0;
#X msg 240 192 1;
#X msg 201 192 0;
#X obj 161 340 tgl 15 0 empty empty empty 17 7 0 10 -262144 -1 -1 0
1;
#X obj 184 340 tgl 15 0 empty empty empty 17 7 0 10 -262144 -1 -1 0
1;
#X obj 206 340 tgl 15 0 empty empty empty 17 7 0 10 -262144 -1 -1 0
1;
#X obj 229 340 tgl 15 0 empty empty empty 17 7 0 10 -262144 -1 -1 0
1;
#X msg 280 238 1;
#X msg 241 238 0;
#X msg 321 286 1;
#X msg 282 286 0;
#X obj 161 125 moses 1;
#X obj 201 170 moses 2;
#X obj 241 216 moses 3;
#X obj 282 264 moses 4;
#X msg 290 149 1;
#X msg 251 149 0;
#X msg 330 194 1;
#X msg 291 194 0;
#X msg 370 240 1;
#X msg 331 240 0;
#X msg 411 288 1;
#X msg 372 288 0;
#X obj 251 127 moses 5;
#X obj 291 172 moses 6;
#X obj 331 218 moses 7;
#X obj 372 266 moses 8;
#X obj 260 340 tgl 15 0 empty empty empty 17 7 0 10 -262144 -1 -1 0
1;
#X obj 283 340 tgl 15 0 empty empty empty 17 7 0 10 -262144 -1 -1 0
1;
#X obj 305 340 tgl 15 0 empty empty empty 17 7 0 10 -262144 -1 -1 0
1;
#X obj 328 340 tgl 15 0 empty empty empty 17 7 0 10 -262144 -1 -1 0
1;
#X obj 295 95 inlet;
#X obj 184 385 outlet;
#X obj 161 362 outlet;
#X obj 229 383 outlet;
#X obj 206 360 outlet;
#X obj 283 384 outlet;
#X obj 260 361 outlet;
#X obj 328 382 outlet;
#X obj 305 359 outlet;
#X connect 0 0 4 0;
#X connect 1 0 4 0;
#X connect 2 0 5 0;
#X connect 3 0 5 0;
#X connect 4 0 34 0;
#X connect 5 0 33 0;
#X connect 6 0 36 0;
#X connect 7 0 35 0;
#X connect 8 0 6 0;
#X connect 9 0 6 0;
#X connect 10 0 7 0;
#X connect 11 0 7 0;
#X connect 12 0 1 0;
#X connect 12 1 0 0;
#X connect 13 0 3 0;
#X connect 13 1 2 0;
#X connect 14 0 9 0;
#X connect 14 1 8 0;
#X connect 15 0 11 0;
#X connect 15 1 10 0;
#X connect 16 0 28 0;
#X connect 17 0 28 0;
#X connect 18 0 29 0;
#X connect 19 0 29 0;
#X connect 20 0 30 0;
#X connect 21 0 30 0;
#X connect 22 0 31 0;
#X connect 23 0 31 0;
#X connect 24 0 17 0;
#X connect 24 1 16 0;
#X connect 25 0 19 0;
#X connect 25 1 18 0;
#X connect 26 0 21 0;
#X connect 26 1 20 0;
#X connect 27 0 23 0;
#X connect 27 1 22 0;
#X connect 28 0 38 0;
#X connect 29 0 37 0;
#X connect 30 0 40 0;
#X connect 31 0 39 0;
#X connect 32 0 12 0;
#X connect 32 0 13 0;
#X connect 32 0 14 0;
#X connect 32 0 15 0;
#X connect 32 0 24 0;
#X connect 32 0 25 0;
#X connect 32 0 26 0;
#X connect 32 0 27 0;
#X restore 956 48 pd selector8toggles;
#X obj 956 25 inlet;
#X obj 99 52 r tMean;
#X obj 106 72 r tRange;
#X obj 121 115 r lRange;
#X obj 128 135 r spMean;
#X obj 136 154 r spRange;
#X obj 145 173 r stMean;
#X obj 114 94 r lMean;
#X obj 150 192 r stRange;
#X obj 158 210 r volMean;
#X obj 165 229 r volRange;
#X obj 173 248 r panning;
#X obj 182 266 r octaveLock;
#X obj 102 28 tgl 15 0 empty empty empty 17 7 0 10 -262144 -1 -1 0
1;
#X obj 275 51 r tMean;
#X obj 282 71 r tRange;
#X obj 297 114 r lRange;
#X obj 304 134 r spMean;
#X obj 312 153 r spRange;
#X obj 321 172 r stMean;
#X obj 290 93 r lMean;
#X obj 326 191 r stRange;
#X obj 334 209 r volMean;
#X obj 341 228 r volRange;
#X obj 349 247 r panning;
#X obj 358 265 r octaveLock;
#X obj 278 27 tgl 15 0 empty empty empty 17 7 0 10 -262144 -1 -1 0
1;
#X obj 439 54 r tMean;
#X obj 446 74 r tRange;
#X obj 461 117 r lRange;
#X obj 468 137 r spMean;
#X obj 476 156 r spRange;
#X obj 485 175 r stMean;
#X obj 454 96 r lMean;
#X obj 490 194 r stRange;
#X obj 498 212 r volMean;
#X obj 505 231 r volRange;
#X obj 513 250 r panning;
#X obj 522 268 r octaveLock;
#X obj 442 30 tgl 15 0 empty empty empty 17 7 0 10 -262144 -1 -1 0
1;
#X obj 615 53 r tMean;
#X obj 622 73 r tRange;
#X obj 637 116 r lRange;
#X obj 644 136 r spMean;
#X obj 652 155 r spRange;
#X obj 661 174 r stMean;
#X obj 630 95 r lMean;
#X obj 666 193 r stRange;
#X obj 674 211 r volMean;
#X obj 681 230 r volRange;
#X obj 689 249 r panning;
#X obj 698 267 r octaveLock;
#X obj 618 29 tgl 15 0 empty empty empty 17 7 0 10 -262144 -1 -1 0
1;
#X obj 443 341 r tMean;
#X obj 450 361 r tRange;
#X obj 465 404 r lRange;
#X obj 472 424 r spMean;
#X obj 480 443 r spRange;
#X obj 489 462 r stMean;
#X obj 458 383 r lMean;
#X obj 494 481 r stRange;
#X obj 502 499 r volMean;
#X obj 509 518 r volRange;
#X obj 517 537 r panning;
#X obj 526 555 r octaveLock;
#X obj 446 317 tgl 15 0 empty empty empty 17 7 0 10 -262144 -1 -1 0
1;
#X obj 619 340 r tMean;
#X obj 626 360 r tRange;
#X obj 641 403 r lRange;
#X obj 648 423 r spMean;
#X obj 656 442 r spRange;
#X obj 665 461 r stMean;
#X obj 634 382 r lMean;
#X obj 670 480 r stRange;
#X obj 678 498 r volMean;
#X obj 685 517 r volRange;
#X obj 693 536 r panning;
#X obj 702 554 r octaveLock;
#X obj 622 316 tgl 15 0 empty empty empty 17 7 0 10 -262144 -1 -1 0
1;
#X obj 783 343 r tMean;
#X obj 790 363 r tRange;
#X obj 805 406 r lRange;
#X obj 812 426 r spMean;
#X obj 820 445 r spRange;
#X obj 829 464 r stMean;
#X obj 798 385 r lMean;
#X obj 834 483 r stRange;
#X obj 842 501 r volMean;
#X obj 849 520 r volRange;
#X obj 857 539 r panning;
#X obj 866 557 r octaveLock;
#X obj 786 319 tgl 15 0 empty empty empty 17 7 0 10 -262144 -1 -1 0
1;
#X obj 959 342 r tMean;
#X obj 966 362 r tRange;
#X obj 981 405 r lRange;
#X obj 988 425 r spMean;
#X obj 996 444 r spRange;
#X obj 1005 463 r stMean;
#X obj 974 384 r lMean;
#X obj 1010 482 r stRange;
#X obj 1018 500 r volMean;
#X obj 1025 519 r volRange;
#X obj 1033 538 r panning;
#X obj 1042 556 r octaveLock;
#X obj 962 318 tgl 15 0 empty empty empty 17 7 0 10 -262144 -1 -1 0
1;
#X obj 421 645 outlet~;
#X obj 352 646 outlet~;
#X obj 102 287 AbstractionGrain;
#X obj 278 286 AbstractionGrain;
#X obj 442 289 AbstractionGrain;
#X obj 618 288 AbstractionGrain;
#X obj 446 576 AbstractionGrain;
#X obj 622 575 AbstractionGrain;
#X obj 786 578 AbstractionGrain;
#X obj 962 577 AbstractionGrain;
#X connect 0 0 14 0;
#X connect 0 1 27 0;
#X connect 0 2 40 0;
#X connect 0 3 53 0;
#X connect 0 4 66 0;
#X connect 0 5 79 0;
#X connect 0 6 92 0;
#X connect 0 7 105 0;
#X connect 1 0 0 0;
#X connect 2 0 108 1;
#X connect 3 0 108 2;
#X connect 4 0 108 4;
#X connect 5 0 108 5;
#X connect 6 0 108 6;
#X connect 7 0 108 7;
#X connect 8 0 108 3;
#X connect 9 0 108 8;
#X connect 10 0 108 9;
#X connect 11 0 108 10;
#X connect 12 0 108 11;
#X connect 13 0 108 12;
#X connect 14 0 108 0;
#X connect 15 0 109 1;
#X connect 16 0 109 2;
#X connect 17 0 109 4;
#X connect 18 0 109 5;
#X connect 19 0 109 6;
#X connect 20 0 109 7;
#X connect 21 0 109 3;
#X connect 22 0 109 8;
#X connect 23 0 109 9;
#X connect 24 0 109 10;
#X connect 25 0 109 11;
#X connect 26 0 109 12;
#X connect 27 0 109 0;
#X connect 28 0 110 1;
#X connect 29 0 110 2;
#X connect 30 0 110 4;
#X connect 31 0 110 5;
#X connect 32 0 110 6;
#X connect 33 0 110 7;
#X connect 34 0 110 3;
#X connect 35 0 110 8;
#X connect 36 0 110 9;
#X connect 37 0 110 10;
#X connect 38 0 110 11;
#X connect 39 0 110 12;
#X connect 40 0 110 0;
#X connect 41 0 111 1;
#X connect 42 0 111 2;
#X connect 43 0 111 4;
#X connect 44 0 111 5;
#X connect 45 0 111 6;
#X connect 46 0 111 7;
#X connect 47 0 111 3;
#X connect 48 0 111 8;
#X connect 49 0 111 9;
#X connect 50 0 111 10;
#X connect 51 0 111 11;
#X connect 52 0 111 12;
#X connect 53 0 111 0;
#X connect 54 0 112 1;
#X connect 55 0 112 2;
#X connect 56 0 112 4;
#X connect 57 0 112 5;
#X connect 58 0 112 6;
#X connect 59 0 112 7;
#X connect 60 0 112 3;
#X connect 61 0 112 8;
#X connect 62 0 112 9;
#X connect 63 0 112 10;
#X connect 64 0 112 11;
#X connect 65 0 112 12;
#X connect 66 0 112 0;
#X connect 67 0 113 1;
#X connect 68 0 113 2;
#X connect 69 0 113 4;
#X connect 70 0 113 5;
#X connect 71 0 113 6;
#X connect 72 0 113 7;
#X connect 73 0 113 3;
#X connect 74 0 113 8;
#X connect 75 0 113 9;
#X connect 76 0 113 10;
#X connect 77 0 113 11;
#X connect 78 0 113 12;
#X connect 79 0 113 0;
#X connect 80 0 114 1;
#X connect 81 0 114 2;
#X connect 82 0 114 4;
#X connect 83 0 114 5;
#X connect 84 0 114 6;
#X connect 85 0 114 7;
#X connect 86 0 114 3;
#X connect 87 0 114 8;
#X connect 88 0 114 9;
#X connect 89 0 114 10;
#X connect 90 0 114 11;
#X connect 91 0 114 12;
#X connect 92 0 114 0;
#X connect 93 0 115 1;
#X connect 94 0 115 2;
#X connect 95 0 115 4;
#X connect 96 0 115 5;
#X connect 97 0 115 6;
#X connect 98 0 115 7;
#X connect 99 0 115 3;
#X connect 100 0 115 8;
#X connect 101 0 115 9;
#X connect 102 0 115 10;
#X connect 103 0 115 11;
#X connect 104 0 115 12;
#X connect 105 0 115 0;
#X connect 108 0 107 0;
#X connect 108 1 106 0;
#X connect 109 0 107 0;
#X connect 109 1 106 0;
#X connect 110 0 107 0;
#X connect 110 1 106 0;
#X connect 111 0 107 0;
#X connect 111 1 106 0;
#X connect 112 0 107 0;
#X connect 112 1 106 0;
#X connect 113 0 107 0;
#X connect 113 1 106 0;
#X connect 114 0 107 0;
#X connect 114 1 106 0;
#X connect 115 0 107 0;
#X connect 115 1 106 0;
#X restore 454 170 pd online8grains;
#X obj 456 130 r grainsNum;
#X obj 456 152 - 32;
#X obj 340 148 - 24;
#X obj 532 66 - 16;
#X obj 420 72 - 8;
#X obj 501 224 r grainsNum;
#X obj 584 226 r grainsNum;
#X obj 586 307 /~ 1;
#X obj 480 288 /~ 1;
#X obj 501 267 max 1;
#X obj 584 269 max 1;
#X obj 501 246 / 8;
#X obj 584 248 / 8;
#X obj 113 139 tgl 15 0 empty empty empty 17 7 0 10 -262144 -1 -1 0
1;
#X obj 603 448 *~;
#X text 133 139 use dry audio;
#X obj 600 502 *~ 0.7;
#X obj 689 34 inlet~;
#X msg 840 355 15;
#X obj 897 401 s grainsNumE;
#X obj 1081 114 hsl 128 15 0 1 0 0 empty spRangeH empty -2 -8 0 10
-262144 -1 -1 12700 1;
#X text 1121 113 speed range;
#X obj 1078 134 s spRange;
#X obj 1080 169 hsl 128 15 0 1 0 0 empty volMeanH empty -2 -8 0 10
-262144 -1 -1 12700 1;
#X obj 1144 192 hsl 128 15 0 0.5 0 0 empty volRangeH empty -2 -8 0
10 -262144 -1 -1 0 1;
#X text 1116 214 volume range;
#X obj 1077 188 s volMean;
#X obj 1141 212 s volRange;
#X text 1117 169 volume min;
#X obj 1080 266 hsl 128 15 0 1 0 0 empty lRangeH empty -2 -8 0 10 -262144
-1 -1 6350 1;
#X text 1119 266 length range;
#X obj 1077 286 s lRange;
#X obj 1081 324 hsl 128 15 0 1 0 0 empty stRangeH empty -2 -8 0 10
-262144 -1 -1 1270 1;
#X text 1142 346 start range;
#X obj 1078 344 s stRange;
#X obj 1092 391 hsl 128 15 0 1 0 0 empty panningH empty -2 -8 0 10
-262144 -1 -1 6350 1;
#X text 1199 399 panning;
#X obj 1063 418 s panning;
#X obj 1071 515 hsl 128 15 0 1 0 0 empty lMeanH empty -2 -8 0 10 -262144
-1 -1 6350 1;
#X obj 1072 464 hsl 195 15 0 1 0 0 empty stMeanH empty -2 -8 0 10 -262144
-1 -1 1940 1;
#X obj 1069 484 s stMean;
#X obj 1067 541 s lMean;
#X text 1128 484 start min;
#X text 1121 541 length min;
#X obj 412 591 outlet~;
#X obj 527 589 outlet~;
#X obj 112 171 tgl 15 0 empty empty empty 17 7 0 10 -262144 -1 -1 1
1;
#X text 132 174 use wet audio;
#X obj 439 477 *~;
#X obj 519 474 *~;
#X obj 36 121 loadbang;
#X obj 27 308 s spMean;
#X floatatom 27 288 5 0 0 0 - - -;
#X msg 27 265 loadbang;
#X connect 1 0 0 0;
#X connect 2 0 1 0;
#X connect 2 0 3 0;
#X connect 2 0 20 0;
#X connect 2 0 50 0;
#X connect 3 0 8 0;
#X connect 3 0 4 0;
#X connect 3 0 5 0;
#X connect 3 0 6 0;
#X connect 3 0 7 0;
#X connect 4 0 13 0;
#X connect 4 0 18 0;
#X connect 4 0 19 0;
#X connect 5 0 9 0;
#X connect 5 0 14 0;
#X connect 6 0 11 0;
#X connect 6 0 12 0;
#X connect 6 0 16 0;
#X connect 7 0 17 0;
#X connect 8 0 10 0;
#X connect 8 0 15 0;
#X connect 20 0 21 0;
#X connect 23 0 40 0;
#X connect 23 1 39 0;
#X connect 24 0 23 0;
#X connect 25 0 40 0;
#X connect 25 1 39 0;
#X connect 26 0 36 0;
#X connect 27 0 40 0;
#X connect 27 1 39 0;
#X connect 28 0 35 0;
#X connect 29 0 40 0;
#X connect 29 1 39 0;
#X connect 30 0 34 0;
#X connect 31 0 40 0;
#X connect 31 1 39 0;
#X connect 32 0 33 0;
#X connect 33 0 31 0;
#X connect 34 0 29 0;
#X connect 35 0 27 0;
#X connect 36 0 25 0;
#X connect 37 0 43 0;
#X connect 38 0 44 0;
#X connect 39 0 80 0;
#X connect 39 0 81 0;
#X connect 40 0 80 0;
#X connect 40 0 81 0;
#X connect 41 0 40 1;
#X connect 42 0 39 1;
#X connect 43 0 41 0;
#X connect 44 0 42 0;
#X connect 45 0 46 1;
#X connect 46 0 48 0;
#X connect 48 0 76 0;
#X connect 48 0 77 0;
#X connect 49 0 46 0;
#X connect 49 0 22 0;
#X connect 50 0 51 0;
#X connect 52 0 54 0;
#X connect 55 0 58 0;
#X connect 56 0 59 0;
#X connect 61 0 63 0;
#X connect 64 0 66 0;
#X connect 67 0 69 0;
#X connect 70 0 73 0;
#X connect 71 0 72 0;
#X connect 78 0 80 1;
#X connect 78 0 81 1;
#X connect 80 0 76 0;
#X connect 81 0 77 0;
#X connect 82 0 78 0;
#X connect 84 0 83 0;
#X connect 85 0 84 0;
#X coords 10 0 11 2 200 100 1 100 100;
#X restore 696 348 pd granular;
#X msg 16 489 \; pd dsp 0;
#X msg 696 232 \; pd dsp 1;
#X obj 376 64 s octaveLock;
#X obj 376 32 tgl 30 0 empty empty empty 17 7 0 10 -262144 -1 -1 1
1;
#X obj 376 12 loadbang;
#X obj 697 464 dac~;
#X obj 226 33 bng 30 250 50 0 empty empty empty 17 7 0 10 -262144 -1
-1;
#N canvas 503 153 937 671 presets 0;
#X obj 214 93 s tMeanH;
#X obj 213 121 s tRangeH;
#X obj 212 147 s spMeanH;
#X obj 210 182 s grainsNumE;
#X msg 158 370 14;
#X obj 221 296 s tMeanH;
#X obj 220 324 s tRangeH;
#X obj 219 350 s spMeanH;
#X obj 217 385 s grainsNumE;
#X msg 160 280 1000;
#X msg 157 308 1000;
#X obj 158 338 1;
#X obj 516 124 s tMeanH;
#X obj 515 152 s tRangeH;
#X obj 514 178 s spMeanH;
#X obj 512 213 s grainsNumE;
#X msg 455 108 162;
#X msg 452 136 897;
#X msg 453 198 3;
#X obj 56 78 r P1;
#X obj 60 236 r P2;
#X obj 355 64 r P3;
#X msg 152 77 96;
#X msg 150 105 302;
#X msg 151 167 13;
#X obj 151 135 1;
#X obj 453 166 1;
#X connect 4 0 8 0;
#X connect 9 0 5 0;
#X connect 10 0 6 0;
#X connect 11 0 7 0;
#X connect 16 0 12 0;
#X connect 17 0 13 0;
#X connect 18 0 15 0;
#X connect 19 0 22 0;
#X connect 19 0 23 0;
#X connect 19 0 24 0;
#X connect 19 0 25 0;
#X connect 20 0 9 0;
#X connect 20 0 10 0;
#X connect 20 0 11 0;
#X connect 20 0 4 0;
#X connect 21 0 16 0;
#X connect 21 0 17 0;
#X connect 21 0 18 0;
#X connect 21 0 26 0;
#X connect 22 0 0 0;
#X connect 23 0 1 0;
#X connect 24 0 3 0;
#X connect 25 0 2 0;
#X connect 26 0 14 0;
#X restore 759 492 pd presets;
#X obj 266 33 bng 30 250 50 0 empty empty empty 17 7 0 10 -262144 -1
-1;
#X obj 305 32 bng 30 250 50 0 empty empty empty 17 7 0 10 -262144 -1
-1;
#X text 22 54 stop audio;
#X obj 226 64 s P1;
#X obj 266 64 s P2;
#X obj 305 63 s P3;
#X text 222 8 Presets;
#X text 16 23 Start audio first;
#N canvas 0 23 308 261 recording 0;
#X obj 66 187 writesf~ 2;
#X msg 156 47 start;
#X msg 179 86 stop;
#X msg 57 47 open Rec2.wav;
#X connect 1 0 0 0;
#X connect 2 0 0 0;
#X connect 3 0 0 0;
#X restore 749 512 pd recording;
#X obj 697 312 adc~ 1 2;
#X obj 693 119 granular_setter;
#X msg 693 30 1;
#X text 652 7 1: set your index;
#X text 714 69 2: set your sources' indices;
#X msg 780 91 7;
#N canvas 0 23 1287 635 window 0;
#X obj 118 134 hsl 500 40 5 2000 0 0 empty tMeanH empty -2 -8 0 10
-262144 -1 -1 14600 1;
#X obj 116 208 hsl 500 40 0 1000 0 0 empty tRangeH empty -2 -8 0 10
-262144 -1 -1 31400 1;
#X text 626 216 time range;
#X obj 115 185 s tMean;
#X obj 113 260 s tRange;
#X obj 114 284 hsl 500 40 1 1.5 0 0 empty spMeanH empty -2 -8 0 10
-262144 -1 -1 25800 1;
#X obj 112 339 s spMean;
#X obj 111 448 s grainsNum;
#X floatatom 111 420 5 0 0 0 - - -;
#X obj 114 371 hsl 500 40 0 32 0 0 empty grainsNumE empty -2 -8 0 10
-262144 -1 -1 16200 1;
#X obj 111 406 int;
#X text 631 291 speed;
#X floatatom 111 326 5 0 0 0 - - -;
#X floatatom 113 251 5 0 0 0 - - -;
#X floatatom 115 178 5 0 0 0 - - -;
#X text 627 140 time min;
#X text 626 366 number of grains;
#X connect 0 0 3 0;
#X connect 0 0 14 0;
#X connect 1 0 4 0;
#X connect 1 0 13 0;
#X connect 5 0 12 0;
#X connect 8 0 7 0;
#X connect 9 0 10 0;
#X connect 10 0 8 0;
#X connect 12 0 6 0;
#X coords 0 -1 1 1 650 400 1 100 100;
#X restore 15 84 pd window;
#X connect 0 0 6 0;
#X connect 0 1 6 1;
#X connect 4 0 3 0;
#X connect 5 0 4 0;
#X connect 7 0 12 0;
#X connect 9 0 13 0;
#X connect 10 0 14 0;
#X connect 18 0 0 0;
#X connect 18 1 0 0;
#X connect 20 0 19 0;
#X connect 23 0 19 1;
