#N canvas 1 119 755 380 10;
#X obj 30 316 dac~ 1;
#X obj 30 17 adc~ 1;
#X text 87 17 get the first input channel;
#X text 76 315 send to the first output channel;
#X floatatom 69 197 5 0 0 0 - - -, f 5;
#X msg 605 17 \; pd dsp 0;
#X msg 524 18 \; pd dsp 1;
#X obj 72 73 hsl 600 100 1 10000 0 0 empty empty empty -2 -8 0 10 -262144
-1 -1 0 1;
#X text 446 24 Start audio;
#X obj 30 270 *~;
#X floatatom 134 198 5 0 0 0 - - -, f 5;
#X obj 29 232 bp~ 1000 1, f 14;
#X text 173 198 Filter Q;
#X text 68 54 Filter frequency;
#X text 365 249 A simple bandpass example with a hughe fader - make
sure to connect the jack ports of PD!;
#X obj 134 252 * 0.25;
#X connect 1 0 11 0;
#X connect 4 0 11 1;
#X connect 7 0 4 0;
#X connect 9 0 0 0;
#X connect 10 0 11 2;
#X connect 10 0 15 0;
#X connect 11 0 9 0;
#X connect 15 0 9 1;
#X coords 0 0 1 1 85 60 0;
