#N canvas 795 363 871 648 12;
#N canvas 1406 139 450 732 klaus 0;
#X text 94 290 Set reverb amount;
#X obj 98 456 oscformat source reverb;
#X floatatom 98 313 5 0 0 0 - - -;
#X msg 74 389 4 \$1;
#X msg 139 386 5 \$1;
#X obj 96 514 list trim;
#X obj 96 487 list prepend send;
#X obj 98 556 s OSC;
#X msg 104 245 0;
#X obj 133 123 bng 15 250 50 0 empty empty empty 17 7 0 10 -262144
-1 -1;
#X connect 1 0 6 0;
#X connect 2 0 3 0;
#X connect 2 0 4 0;
#X connect 3 0 1 0;
#X connect 4 0 1 0;
#X connect 5 0 7 0;
#X connect 6 0 5 0;
#X connect 8 0 2 0;
#X connect 9 0 8 0;
#X coords 0 -1 1 1 157 60 1 100 100;
#X restore 32 22 pd klaus;
#X obj 12 618 netsend -u -b;
#X msg 64 581 disconnect;
#X text 62 534 1: connect;
#X msg 64 553 connect localhost 57120;
#X obj 12 513 r OSC;
#N canvas 757 299 450 636 scaling 1;
#X obj 132 140 vsl 15 128 0.01 2 0 0 empty empty empty 0 -9 0 10 -262144
-1 -1 517 1;
#X obj 132 371 list trim;
#X obj 132 344 list prepend send;
#X obj 132 398 s OSC;
#X obj 132 313 oscformat global scaling;
#X floatatom 132 276 5 0 0 0 - - -;
#X connect 0 0 5 0;
#X connect 1 0 3 0;
#X connect 2 0 1 0;
#X connect 4 0 2 0;
#X connect 5 0 4 0;
#X coords 0 -1 1 1 94 232 1 100 100;
#X restore 544 89 pd scaling;
#X connect 2 0 1 0;
#X connect 4 0 1 0;
#X connect 5 0 1 0;
