#N canvas 870 444 668 441 10;
#X text 24 250 2: Set source to control (0...16);
#X obj 243 383 netsend -u -b;
#X obj 243 355 list trim;
#X obj 243 328 list prepend send;
#X msg 397 363 disconnect;
#X msg 397 338 connect 85.214.78.6 57120;
#X obj 243 303 oscformat source azim;
#X obj 243 277 pack i f, f 13;
#X floatatom 243 203 5 0 0 0 - - -, f 5;
#X obj 243 225 t b f, f 13;
#X msg 243 251 1;
#X obj 48 110 phasor~;
#X obj 48 140 snapshot~;
#X obj 118 122 metro 100;
#X floatatom 48 71 5 0 0 0 - - -, f 5;
#X floatatom 48 163 5 0 0 0 - - -, f 5;
#X obj 118 91 bng 15 250 50 0 empty empty empty 17 7 0 10 -262144 -1
-1;
#X obj 48 185 * 6.28319;
#X text 8 7 Example patch an automated circular source movement on
the SPRAWL server., f 95;
#X text 398 315 1: connect;
#X text 13 47 3: Control rotation speed;
#X connect 2 0 1 0;
#X connect 3 0 2 0;
#X connect 4 0 1 0;
#X connect 5 0 1 0;
#X connect 6 0 3 0;
#X connect 7 0 6 0;
#X connect 8 0 9 0;
#X connect 9 0 10 0;
#X connect 9 1 7 1;
#X connect 10 0 7 0;
#X connect 11 0 12 0;
#X connect 12 0 15 0;
#X connect 13 0 12 0;
#X connect 14 0 11 0;
#X connect 15 0 17 0;
#X connect 16 0 13 0;
#X connect 17 0 8 0;
