#N canvas 688 129 1314 567 10;
#X obj 369 486 udpsend;
#X msg 506 457 disconnect;
#X obj 369 388 packOSC;
#X msg 506 432 connect localhost 57120;
#X floatatom 97 192 5 0 0 0 - - -, f 5;
#X msg 97 319 /source/azim \$2 \$1;
#X obj 97 284 pack f i;
#X text 94 170 Set azimuth;
#X text 619 166 Set reverb amount;
#X text 441 164 Set distance;
#X text 260 167 Set elevation;
#X floatatom 263 192 5 0 0 0 - - -, f 5;
#X obj 263 284 pack f i;
#X floatatom 442 192 5 0 0 0 - - -, f 5;
#X obj 442 284 pack f i;
#X floatatom 623 192 5 0 0 0 - - -, f 5;
#X obj 623 284 pack f i;
#X obj 623 214 t f b;
#X obj 442 214 t f b;
#X obj 263 214 t f b;
#X obj 97 214 t f b;
#X msg 623 313 /source/reverb \$2 \$1;
#X msg 442 316 /source/dist \$2 \$1;
#X msg 263 318 /source/elev \$2 \$1;
#X text 986 175 2: Set source to control (0...16);
#X text 504 406 1: Set server address and port:;
#X text 344 116 3: Control parameters:;
#X text 21 19 Example patch for controlling spatial properties of a
sound on the SPRAWL server.;
#X obj 142 248 r source;
#X obj 308 248 r source;
#X obj 487 250 r source;
#X obj 668 250 r source;
#X floatatom 1019 239 5 0 0 0 - - -, f 5;
#X obj 1019 261 s source;
#X connect 1 0 0 0;
#X connect 2 0 0 0;
#X connect 3 0 0 0;
#X connect 4 0 20 0;
#X connect 5 0 2 0;
#X connect 6 0 5 0;
#X connect 11 0 19 0;
#X connect 12 0 23 0;
#X connect 13 0 18 0;
#X connect 14 0 22 0;
#X connect 15 0 17 0;
#X connect 16 0 21 0;
#X connect 17 0 16 0;
#X connect 18 0 14 0;
#X connect 19 0 12 0;
#X connect 20 0 6 0;
#X connect 21 0 2 0;
#X connect 22 0 2 0;
#X connect 23 0 2 0;
#X connect 28 0 6 1;
#X connect 29 0 12 1;
#X connect 30 0 14 1;
#X connect 31 0 16 1;
#X connect 32 0 33 0;
