#N canvas 2560 58 1920 1022 10;
#X obj 607 334 bng 15 250 50 0 empty empty empty 17 7 0 10 -258113
-1 -1;
#X obj 422 453 netsend -u -b;
#X obj 422 415 list trim;
#X obj 422 372 list prepend send;
#X floatatom 745 142 5 0 0 0 - - -, f 5;
#X floatatom 574 196 5 0 0 0 - - -, f 5;
#X floatatom 678 145 5 0 0 0 - - -, f 5;
#X obj 559 239 i;
#X obj 663 219 i;
#X msg 551 428 disconnect;
#X obj 607 354 oscformat all_silent;
#X obj 296 314 oscformat route pi;
#X text 602 144 set target;
#X text 501 195 set source;
#X text 242 12 Example patch for controlling send properties of a sound
on the SPRAWL server., f 83;
#X text 610 118 Send to virtual sound source;
#X text 550 385 1: connect;
#X obj 625 299 oscformat route spatial;
#X obj 625 272 pack i i i f;
#X floatatom 623 169 5 0 0 0 - - -, f 5;
#X obj 608 212 i;
#X text 550 168 set channel;
#X msg 551 405 connect localhost 57120;
#X obj 745 171 t b b b f;
#X floatatom 130 34 5 0 0 0 - - -, f 5;
#X floatatom 71 175 5 0 0 0 - - -, f 5;
#X obj 56 218 i;
#X text 0 174 set source;
#X floatatom 120 148 5 0 0 0 - - -, f 5;
#X obj 105 191 i;
#X text 47 147 set channel;
#X obj 296 287 pack i i i i f;
#X text 126 10 GAIN;
#X obj 130 63 t b b b b f;
#X floatatom 232 170 5 0 0 0 - - -, f 5;
#X obj 217 213 i;
#X floatatom 281 143 5 0 0 0 - - -, f 5;
#X obj 266 186 i;
#X text 208 142 set channel;
#X text 161 169 set target;
#X connect 0 0 10 0;
#X connect 2 0 1 0;
#X connect 3 0 2 0;
#X connect 4 0 23 0;
#X connect 5 0 7 1;
#X connect 6 0 8 1;
#X connect 7 0 18 0;
#X connect 8 0 18 2;
#X connect 9 0 1 0;
#X connect 10 0 3 0;
#X connect 11 0 3 0;
#X connect 17 0 3 0;
#X connect 18 0 17 0;
#X connect 19 0 20 1;
#X connect 20 0 18 1;
#X connect 22 0 1 0;
#X connect 23 0 7 0;
#X connect 23 1 8 0;
#X connect 23 2 20 0;
#X connect 23 3 18 3;
#X connect 24 0 33 0;
#X connect 25 0 26 1;
#X connect 26 0 31 0;
#X connect 28 0 29 1;
#X connect 29 0 31 1;
#X connect 31 0 11 0;
#X connect 33 0 26 0;
#X connect 33 1 29 0;
#X connect 33 2 35 0;
#X connect 33 3 37 0;
#X connect 33 4 31 4;
#X connect 34 0 35 1;
#X connect 35 0 31 2;
#X connect 36 0 37 1;
#X connect 37 0 31 3;
