#N canvas 2658 160 1042 600 10;
#X obj 560 378 bng 15 250 50 0 empty empty empty 17 7 0 10 -258113
-1 -1;
#X obj 339 548 netsend -u -b;
#X obj 339 510 list trim;
#X obj 339 467 list prepend send;
#X msg 468 523 disconnect;
#X obj 560 398 oscformat all_silent;
#X text 261 10 Example patch for controlling send properties of a sound
on the SPRAWL server., f 83;
#X text 467 480 1: connect;
#X msg 468 500 connect localhost 57120;
#N canvas 905 345 1462 991 sub1 0;
#X obj 406 412 oscformat route pi;
#X floatatom 454 151 5 0 0 0 - - -, f 5;
#X floatatom 183 250 5 0 0 0 - - -, f 5;
#X obj 168 293 i;
#X text 112 249 set source;
#X floatatom 232 223 5 0 0 0 - - -, f 5;
#X obj 217 266 i;
#X text 159 222 set channel;
#X obj 406 385 pack i i i i f;
#X obj 454 180 t b b b b f;
#X floatatom 344 245 5 0 0 0 - - -, f 5;
#X obj 329 288 i;
#X floatatom 393 218 5 0 0 0 - - -, f 5;
#X obj 378 261 i;
#X text 320 217 set channel;
#X text 273 244 set target;
#X obj 406 435 outlet;
#X text 234 171 1: set arguments;
#X text 451 127 2: GAIN;
#X connect 0 0 16 0;
#X connect 1 0 9 0;
#X connect 2 0 3 1;
#X connect 3 0 8 0;
#X connect 5 0 6 1;
#X connect 6 0 8 1;
#X connect 8 0 0 0;
#X connect 9 0 3 0;
#X connect 9 1 6 0;
#X connect 9 2 11 0;
#X connect 9 3 13 0;
#X connect 9 4 8 4;
#X connect 10 0 11 1;
#X connect 11 0 8 2;
#X connect 12 0 13 1;
#X connect 13 0 8 3;
#X coords 0 -1 1 1 444 222 1 100 100;
#X restore 43 104 pd sub1;
#N canvas 0 119 2560 1321 sub2 0;
#X floatatom 406 176 5 0 0 0 - - -, f 5;
#X floatatom 235 230 5 0 0 0 - - -, f 5;
#X floatatom 339 179 5 0 0 0 - - -, f 5;
#X obj 220 273 i;
#X obj 324 253 i;
#X text 263 178 set target;
#X text 162 229 set source;
#X text 271 152 Send to virtual sound source;
#X obj 286 333 oscformat route spatial;
#X obj 286 306 pack i i i f;
#X floatatom 284 203 5 0 0 0 - - -, f 5;
#X obj 269 246 i;
#X text 211 202 set channel;
#X obj 406 205 t b b b f;
#X obj 286 356 outlet;
#X connect 0 0 13 0;
#X connect 1 0 3 1;
#X connect 2 0 4 1;
#X connect 3 0 9 0;
#X connect 4 0 9 2;
#X connect 8 0 14 0;
#X connect 9 0 8 0;
#X connect 10 0 11 1;
#X connect 11 0 9 1;
#X connect 13 0 3 0;
#X connect 13 1 4 0;
#X connect 13 2 11 0;
#X connect 13 3 9 3;
#X coords 0 -1 1 1 444 222 1 100 100;
#X restore 548 101 pd sub2;
#X text 173 72 Send to access points;
#X text 699 72 Send to sptialization;
#X connect 0 0 5 0;
#X connect 2 0 1 0;
#X connect 3 0 2 0;
#X connect 4 0 1 0;
#X connect 5 0 3 0;
#X connect 8 0 1 0;
#X connect 9 0 3 0;
#X connect 10 0 3 0;
