#N canvas -633 101 1178 419 10;
#X text 8 7 Example patch for controlling spatial properties of a sound
on the SPRAWL server.;
#X obj 18 444 netsend -u -b;
#X msg 70 407 disconnect;
#X text 132 360 1: connect;
#N canvas -561 185 1302 626 sub1 0;
#X text 108 203 Set azimuth;
#X text 447 280 Set reverb amount;
#X text 171 289 Set distance;
#X text 392 201 Set elevation;
#X text 321 168 3: Control parameters:;
#X floatatom 117 149 5 0 0 0 - - -;
#X obj 117 171 s source;
#X obj 324 622 list trim;
#X obj 324 595 list prepend send;
#X obj 110 544 oscformat source azim;
#X obj 254 543 oscformat source elev;
#X obj 404 543 oscformat source dist;
#X obj 546 543 oscformat source reverb;
#X obj 561 454 r source;
#X obj 546 507 pack i f, f 13;
#X floatatom 449 347 5 0 0 0 - - -;
#X obj 546 480 i;
#X obj 546 422 t b f, f 13;
#X obj 125 455 r source;
#X obj 110 508 pack i f, f 13;
#X floatatom 108 259 5 0 0 0 - - -;
#X obj 110 481 i;
#X obj 110 423 t b f, f 13;
#X obj 269 459 r source;
#X obj 254 512 pack i f, f 13;
#X floatatom 367 262 5 0 0 0 - - -;
#X obj 254 485 i;
#X obj 254 427 t b f, f 13;
#X obj 419 457 r source;
#X obj 404 510 pack i f, f 13;
#X floatatom 185 349 5 0 0 0 - - -;
#X obj 404 483 i;
#X obj 404 425 t b f, f 13;
#X text 124 124 2: Set source to control (0...16);
#X obj 324 645 outlet;
#X obj 110 224 hsl 200 30 -3 3 0 0 empty empty empty -2 -8 0 10 -262144
-1 -1 18950 1;
#X obj 370 225 hsl 200 30 -3 3 0 0 empty empty empty -2 -8 0 10 -262144
-1 -1 4200 1;
#X obj 146 308 hsl 200 30 0 10 0 0 empty empty empty -2 -8 0 10 -262144
-1 -1 13600 1;
#X obj 401 310 hsl 200 30 0 1 0 0 empty empty empty -2 -8 0 10 -262144
-1 -1 13600 1;
#X obj 376 129 hsl 200 30 0 10 0 0 empty empty empty -2 -8 0 10 -262144
-1 -1 13600 1;
#X obj 334 221 / 10;
#X connect 5 0 6 0;
#X connect 7 0 34 0;
#X connect 8 0 7 0;
#X connect 9 0 8 0;
#X connect 10 0 8 0;
#X connect 11 0 8 0;
#X connect 12 0 8 0;
#X connect 13 0 16 1;
#X connect 14 0 12 0;
#X connect 15 0 17 0;
#X connect 16 0 14 0;
#X connect 17 0 16 0;
#X connect 17 1 14 1;
#X connect 18 0 21 1;
#X connect 19 0 9 0;
#X connect 20 0 22 0;
#X connect 21 0 19 0;
#X connect 22 0 21 0;
#X connect 22 1 19 1;
#X connect 23 0 26 1;
#X connect 24 0 10 0;
#X connect 25 0 27 0;
#X connect 26 0 24 0;
#X connect 27 0 26 0;
#X connect 27 1 24 1;
#X connect 28 0 31 1;
#X connect 29 0 11 0;
#X connect 30 0 32 0;
#X connect 31 0 29 0;
#X connect 32 0 31 0;
#X connect 32 1 29 1;
#X connect 35 0 20 0;
#X connect 36 0 25 0;
#X connect 37 0 30 0;
#X connect 38 0 15 0;
#X connect 39 0 37 0;
#X connect 39 0 40 0;
#X connect 40 0 38 0;
#X coords 0 -1 1 1 555 300 2 100 100;
#X restore 33 49 pd sub1;
#N canvas 1 119 450 300 default 0;
#X obj 128 259 list trim;
#X obj 128 232 list prepend send;
#X obj 128 282 outlet;
#X text 108 112 all sources default;
#X obj 146 139 bng 33 250 50 0 empty empty empty 17 7 0 10 -258113
-1 -1;
#X obj 128 199 oscformat default_source_positions;
#X connect 0 0 2 0;
#X connect 1 0 0 0;
#X connect 4 0 5 0;
#X connect 5 0 1 0;
#X coords 0 -1 1 1 133 88 2 100 100;
#X restore 439 356 pd default;
#X msg 70 379 connect 85.214.78.6 57120;
#X obj 70 359 loadbang;
#X connect 2 0 1 0;
#X connect 4 0 1 0;
#X connect 5 0 1 0;
#X connect 6 0 1 0;
#X connect 7 0 6 0;
