#N canvas 1107 379 698 453 10;
#X text 26 106 Set azimuth;
#X text 491 102 Set reverb amount;
#X text 343 100 Set distance;
#X text 182 103 Set elevation;
#X text 434 9 2: Set source to control (0...16);
#X text 254 73 3: Control parameters:;
#X text 8 7 Example patch for controlling spatial properties of a sound
on the SPRAWL server.;
#X floatatom 502 45 5 0 0 0 - - -, f 5;
#X obj 502 67 s source;
#X obj 243 375 netsend -u -b;
#X obj 243 347 list trim;
#X obj 243 320 list prepend send;
#X msg 399 353 disconnect;
#X msg 397 330 connect 85.214.78.6 57120;
#X obj 29 269 oscformat source azim;
#X obj 185 268 oscformat source elev;
#X obj 344 268 oscformat source dist;
#X obj 495 268 oscformat source reverb;
#X obj 510 179 r source;
#X obj 495 232 pack i f, f 13;
#X floatatom 495 125 5 0 0 0 - - -, f 5;
#X obj 495 205 i;
#X obj 495 147 t b f, f 13;
#X obj 44 180 r source;
#X obj 29 233 pack i f, f 13;
#X floatatom 29 126 5 0 0 0 - - -, f 5;
#X obj 29 206 i;
#X obj 29 148 t b f, f 13;
#X obj 200 184 r source;
#X obj 185 237 pack i f, f 13;
#X floatatom 185 130 5 0 0 0 - - -, f 5;
#X obj 185 210 i;
#X obj 185 152 t b f, f 13;
#X obj 359 182 r source;
#X obj 344 235 pack i f, f 13;
#X floatatom 344 128 5 0 0 0 - - -, f 5;
#X obj 344 208 i;
#X obj 344 150 t b f, f 13;
#X text 396 310 1: connect;
#X connect 7 0 8 0;
#X connect 10 0 9 0;
#X connect 11 0 10 0;
#X connect 12 0 9 0;
#X connect 13 0 9 0;
#X connect 14 0 11 0;
#X connect 15 0 11 0;
#X connect 16 0 11 0;
#X connect 17 0 11 0;
#X connect 18 0 21 1;
#X connect 19 0 17 0;
#X connect 20 0 22 0;
#X connect 21 0 19 0;
#X connect 22 0 21 0;
#X connect 22 1 19 1;
#X connect 23 0 26 1;
#X connect 24 0 14 0;
#X connect 25 0 27 0;
#X connect 26 0 24 0;
#X connect 27 0 26 0;
#X connect 27 1 24 1;
#X connect 28 0 31 1;
#X connect 29 0 15 0;
#X connect 30 0 32 0;
#X connect 31 0 29 0;
#X connect 32 0 31 0;
#X connect 32 1 29 1;
#X connect 33 0 36 1;
#X connect 34 0 16 0;
#X connect 35 0 37 0;
#X connect 36 0 34 0;
#X connect 37 0 36 0;
#X connect 37 1 34 1;
