#N canvas 504 182 1832 1085 10;
#X obj 207 377 netsend -u -b;
#X obj 207 339 list trim;
#X obj 206 313 list prepend send;
#X msg 12 374 disconnect;
#X text 146 14 Example patch for controlling send properties of a sound
on the SPRAWL server., f 83;
#X text 11 331 1: connect;
#N canvas 905 334 1462 991 sub1 0;
#X obj 192 384 oscformat route pi;
#X floatatom 362 132 5 0 0 0 - - -, f 5;
#X floatatom 147 166 5 0 0 0 - - -, f 5;
#X obj 146 192 i;
#X floatatom 145 239 5 0 0 0 - - -, f 5;
#X obj 132 274 i;
#X text 124 210 set channel;
#X obj 192 357 pack i i i i f;
#X obj 203 32 t b b b b f;
#X floatatom 245 167 5 0 0 0 - - -, f 5;
#X obj 284 167 i;
#X floatatom 244 241 5 0 0 0 - - -, f 5;
#X obj 300 242 i;
#X text 225 212 set channel;
#X obj 192 407 outlet;
#X text 198 110 2: set arguments;
#X text 112 145 set source index;
#X text 227 145 set target index;
#X text 338 112 3: Set GAIN;
#X connect 0 0 14 0;
#X connect 1 0 8 0;
#X connect 2 0 3 1;
#X connect 3 0 7 0;
#X connect 4 0 5 1;
#X connect 5 0 7 1;
#X connect 7 0 0 0;
#X connect 8 0 3 0;
#X connect 8 1 5 0;
#X connect 8 2 10 0;
#X connect 8 3 12 0;
#X connect 8 4 7 4;
#X connect 9 0 10 1;
#X connect 10 0 7 2;
#X connect 11 0 12 1;
#X connect 12 0 7 3;
#X coords 0 -1 1 1 338 171 2 100 100;
#X restore 21 63 pd sub1;
#N canvas 0 119 2560 1321 sub2 0;
#X floatatom 369 134 5 0 0 0 - - -, f 5;
#X floatatom 148 161 5 0 0 0 - - -, f 5;
#X floatatom 278 197 5 0 0 0 - - -, f 5;
#X obj 172 178 i;
#X obj 324 219 i;
#X obj 286 299 oscformat route spatial;
#X obj 286 272 pack i i i f;
#X floatatom 148 235 5 0 0 0 - - -, f 5;
#X obj 151 259 i;
#X text 128 216 set channel;
#X obj 406 171 t b b b f;
#X obj 286 322 outlet;
#X text 117 136 set source index;
#X text 245 172 set target source;
#X text 356 111 Set GAIN;
#X connect 0 0 10 0;
#X connect 1 0 3 1;
#X connect 2 0 4 1;
#X connect 3 0 6 0;
#X connect 4 0 6 2;
#X connect 5 0 11 0;
#X connect 6 0 5 0;
#X connect 7 0 8 1;
#X connect 8 0 6 1;
#X connect 10 0 3 0;
#X connect 10 1 4 0;
#X connect 10 2 8 0;
#X connect 10 3 6 3;
#X coords 0 -1 1 1 331 171 2 100 100;
#X restore 366 63 pd sub2;
#X text 116 41 Send to access points;
#X text 481 40 Send to sptialization;
#N canvas 0 119 2560 1321 sub2 0;
#X floatatom 140 196 5 0 0 0 - - -, f 5;
#X floatatom 139 137 5 0 0 0 - - -, f 5;
#X obj 230 185 i;
#X obj 286 356 outlet;
#X text 127 173 Set GAIN;
#X obj 286 306 pack i f;
#X text 108 112 set access point index;
#X obj 159 287 t b f;
#X obj 286 333 oscformat monitor gain;
#X connect 0 0 7 0;
#X connect 1 0 2 1;
#X connect 2 0 5 0;
#X connect 5 0 8 0;
#X connect 7 0 2 0;
#X connect 7 1 5 1;
#X connect 8 0 3 0;
#X coords 0 -1 1 1 160 133 2 100 100;
#X restore 368 246 pd sub2;
#N canvas 0 119 2560 1321 sub2 0;
#X floatatom 139 137 5 0 0 0 - - -, f 5;
#X obj 232 211 i;
#X obj 286 356 outlet;
#X obj 286 306 pack i f;
#X text 108 112 set access point index;
#X obj 159 287 t b f;
#X obj 286 333 oscformat monitor mono;
#X obj 125 197 tgl 15 0 empty empty empty 17 7 0 10 -262144 -1 -1 0
1;
#X text 112 178 MONO (left only);
#X connect 0 0 1 1;
#X connect 1 0 3 0;
#X connect 3 0 6 0;
#X connect 5 0 1 0;
#X connect 5 1 3 1;
#X connect 6 0 2 0;
#X connect 7 0 5 0;
#X coords 0 -1 1 1 160 134 2 100 100;
#X restore 539 245 pd sub2;
#N canvas 420 291 1767 956 more 1;
#X obj 190 409 outlet;
#X msg -28 275 1;
#X obj 144 144 bng 22 250 50 0 empty empty empty 17 7 0 10 -258113
-1 -1;
#X obj 209 300 oscformat mute_all_spatial;
#X msg 208 274 1;
#X obj 266 134 bng 22 250 50 0 empty empty empty 17 7 0 10 -258113
-1 -1;
#X text 229 112 Mute all spatial;
#X obj -27 301 oscformat default_spatial_routing;
#X msg 392 278 1;
#X obj 376 147 bng 22 250 50 0 empty empty empty 17 7 0 10 -258113
-1 -1;
#X text 353 125 Mute all AP;
#X obj 393 304 oscformat mute_all_ap;
#X text 107 122 Default spatial;
#X connect 1 0 7 0;
#X connect 2 0 1 0;
#X connect 3 0 0 0;
#X connect 4 0 3 0;
#X connect 5 0 4 0;
#X connect 7 0 0 0;
#X connect 8 0 11 0;
#X connect 9 0 8 0;
#X connect 11 0 0 0;
#X coords 0 -1 1 1 333 77 2 100 100;
#X restore 369 384 pd more;
#X msg 11 348 connect 85.214.78.6 57120;
#X connect 1 0 0 0;
#X connect 2 0 1 0;
#X connect 3 0 0 0;
#X connect 6 0 2 0;
#X connect 7 0 2 0;
#X connect 10 0 2 0;
#X connect 11 0 2 0;
#X connect 12 0 2 0;
#X connect 13 0 0 0;
