#N canvas 687 651 1125 596 10;
#X obj 828 293 bng 15 250 50 0 empty empty empty 17 7 0 10 -258113
-1 -1;
#X obj 446 499 netsend -u -b;
#X obj 446 461 list trim;
#X obj 446 418 list prepend send;
#X obj 576 257 pack i i f;
#X floatatom 636 127 5 0 0 0 - - -, f 5;
#X obj 636 156 t b b f;
#X floatatom 525 161 5 0 0 0 - - -, f 5;
#X floatatom 569 130 5 0 0 0 - - -, f 5;
#X obj 510 224 i;
#X obj 554 224 i;
#X msg 573 465 connect localhost 57120;
#X msg 593 430 disconnect;
#X obj 828 313 oscformat all_silent;
#X obj 210 299 oscformat route pi;
#X obj 210 271 pack i i f;
#X floatatom 270 141 5 0 0 0 - - -, f 5;
#X obj 270 170 t b b f;
#X floatatom 159 175 5 0 0 0 - - -, f 5;
#X floatatom 203 144 5 0 0 0 - - -, f 5;
#X obj 144 238 i;
#X obj 188 238 i;
#X text 132 143 set target;
#X text 91 174 set source;
#X text 493 129 set target;
#X text 452 160 set source;
#X obj 576 284 oscformat route binaural;
#X text 21 19 Example patch for controlling send properties of a sound
on the SPRAWL server.;
#X text 127 91 Send to specific access point;
#X text 489 82 Send to virtual sound source;
#X connect 0 0 13 0;
#X connect 2 0 1 0;
#X connect 3 0 2 0;
#X connect 4 0 26 0;
#X connect 5 0 6 0;
#X connect 6 0 9 0;
#X connect 6 1 10 0;
#X connect 6 2 4 2;
#X connect 7 0 9 1;
#X connect 8 0 10 1;
#X connect 9 0 4 0;
#X connect 10 0 4 1;
#X connect 11 0 1 0;
#X connect 12 0 1 0;
#X connect 13 0 3 0;
#X connect 14 0 3 0;
#X connect 15 0 14 0;
#X connect 16 0 17 0;
#X connect 17 0 20 0;
#X connect 17 1 21 0;
#X connect 17 2 15 2;
#X connect 18 0 20 1;
#X connect 19 0 21 1;
#X connect 20 0 15 0;
#X connect 21 0 15 1;
#X connect 26 0 3 0;
