#N canvas 1 119 755 380 10;
#X obj 30 316 dac~ 1;
#X obj 30 17 adc~ 1;
#X text 87 17 get the first input channel;
#X text 76 315 send to the first output channel;
#X obj 29 262 *~;
#X msg 605 17 \; pd dsp 0;
#X msg 524 18 \; pd dsp 1;
#X text 446 24 Start audio;
#X text 180 76 get the second input channel;
#X obj 123 76 adc~ 2;
#X text 279 205 A simple cross modulation example with a hughe fader
- make sure to connect the jack ports of PD!;
#X connect 1 0 4 0;
#X connect 4 0 0 0;
#X connect 9 0 4 1;
#X coords 0 0 1 1 85 60 0;
