#N canvas 1 119 755 380 10;
#X obj 30 316 dac~ 1;
#X obj 30 17 adc~ 1;
#X text 87 17 get the first input channel;
#X text 76 315 send to the first output channel;
#X msg 605 17 \; pd dsp 0;
#X msg 524 18 \; pd dsp 1;
#X obj 54 64 hsl 600 100 0.1 1000 0 0 empty empty empty -2 -8 0 10
-262144 -1 -1 0 1;
#X text 446 24 Start audio;
#X floatatom 51 190 5 0 0 0 - - -, f 5;
#N canvas 890 825 450 300 delay 0;
#X obj 39 242 outlet~;
#X obj 39 23 inlet~;
#X text 176 236 directly from the audio.examples;
#X floatatom 126 38 0 0 0 0 - - -;
#X obj 40 153 +~;
#X obj 126 86 *~ 0.7;
#X obj 126 62 delread~ G02-del 160;
#X obj 84 178 delwrite~ G02-del 2000;
#X obj 126 12 inlet;
#X obj 320 41 inlet;
#X floatatom 320 64 5 0 0 0 - - -, f 5;
#X connect 1 0 4 0;
#X connect 3 0 6 0;
#X connect 4 0 7 0;
#X connect 4 0 0 0;
#X connect 5 0 4 1;
#X connect 6 0 5 0;
#X connect 8 0 3 0;
#X connect 9 0 10 0;
#X connect 10 0 5 1;
#X coords 0 -1 1 1 32 62 1 100 100;
#X restore 29 235 pd delay;
#X text 51 42 delay time;
#X obj 112 191 hsl 600 100 0.01 1 0 0 empty empty empty -2 -8 0 10
-262144 -1 -1 0 1;
#X text 106 170 feedback gain;
#X text 355 310 A simple delay example with hughe faders - make sure
to connect the jack ports of PD!;
#X floatatom 81 290 5 0 0 0 - - -, f 5;
#X connect 1 0 9 0;
#X connect 6 0 8 0;
#X connect 8 0 9 1;
#X connect 9 0 0 0;
#X connect 11 0 14 0;
#X connect 14 0 9 2;
#X coords 0 0 1 1 85 60 0;
