#N canvas 1 119 662 339 10;
#X obj 58 57 hsl 500 50 -3.1415 3.1415 0 0 empty empty empty -2 -8
0 10 -4034 -1 -1 18400 1;
#X floatatom 56 121 5 0 0 0 - - -, f 5;
#N canvas 2924 201 1483 867 subpatch 0;
#X obj 215 485 netsend -u -b;
#X obj 215 413 list trim;
#X obj 215 365 list prepend send;
#X msg 705 415 disconnect;
#X msg 703 325 connect 85.214.78.6 57120;
#X text 699 245 1: connect;
#X text 210 58 Set azimuth;
#X obj 216 314 oscformat source azim;
#X obj 216 242 pack i f, f 13;
#X floatatom 216 98 5 0 0 0 - - -, f 5;
#X obj 216 142 t b f, f 13;
#X obj 140 26 inlet;
#X obj 419 24 inlet;
#X obj 532 23 inlet;
#X obj 644 25 inlet;
#X msg 217 191 0;
#X connect 1 0 0 0;
#X connect 2 0 1 0;
#X connect 3 0 0 0;
#X connect 4 0 0 0;
#X connect 7 0 2 0;
#X connect 8 0 7 0;
#X connect 9 0 10 0;
#X connect 10 0 15 0;
#X connect 10 1 8 1;
#X connect 11 0 9 0;
#X connect 15 0 8 0;
#X coords 0 -1 1 1 85 60 1 100 100;
#X restore 56 155 pd subpatch;
#X connect 0 0 1 0;
#X connect 1 0 2 0;
