#N canvas 0 62 800 418 10;
#X msg 151 43 \; pd dsp 0;
#X obj 782 224 bng 15 250 50 0 empty empty empty 17 7 0 10 -258113
-1 -1;
#X msg 70 44 \; pd dsp 1;
#X obj 589 536 netsend -u -b;
#X obj 589 498 list trim;
#X obj 589 455 list prepend send;
#X obj 605 311 pack i i f;
#X floatatom 675 178 5 0 1 0 - - -;
#X obj 665 210 t b b f;
#X floatatom 548 218 5 0 0 0 - - -;
#X floatatom 597 216 5 0 0 0 - - -;
#X msg 576 171 0;
#X obj 539 278 i;
#X obj 583 278 i;
#X floatatom 501 185 5 0 0 0 - - -;
#X msg 736 467 disconnect;
#X obj 782 244 oscformat all_silent;
#X obj 604 415 oscformat route speaker;
#X msg 716 502 connect 192.168.0.1 57120;
#X obj 234 181 osc~;
#X obj 343 180 tgl 15 0 empty empty empty 17 7 0 10 -262144 -1 -1 0
1;
#X obj 299 214 metro 10;
#X obj 239 266 snapshot~;
#X floatatom 304 151 5 0 0 0 - - -;
#X floatatom 269 349 5 0 0 0 - - -;
#X obj 249 511 netsend -u -b;
#X obj 249 473 list trim;
#X obj 249 430 list prepend send;
#X msg 396 442 disconnect;
#X msg 379 475 connect 192.168.0.1 4002;
#X obj 253 -10 vsl 15 128 0 127 0 0 empty empty empty 0 -9 0 10 -262144
-1 -1 0 1;
#X obj 243 137 * 0.01;
#X obj 346 371 oscformat track 1 dist;
#X obj 240 296 * 10;
#X obj 359 303 oscformat track 1 azim;
#X obj 324 269 * 180;
#X connect 1 0 16 0;
#X connect 4 0 3 0;
#X connect 5 0 4 0;
#X connect 6 0 17 0;
#X connect 7 0 8 0;
#X connect 8 0 12 0;
#X connect 8 1 13 0;
#X connect 8 2 6 2;
#X connect 9 0 12 1;
#X connect 10 0 13 1;
#X connect 11 0 9 0;
#X connect 11 0 10 0;
#X connect 12 0 6 0;
#X connect 13 0 6 1;
#X connect 14 0 9 0;
#X connect 14 0 10 0;
#X connect 15 0 3 0;
#X connect 16 0 5 0;
#X connect 17 0 5 0;
#X connect 18 0 3 0;
#X connect 19 0 22 0;
#X connect 20 0 21 0;
#X connect 21 0 22 0;
#X connect 22 0 33 0;
#X connect 22 0 35 0;
#X connect 24 0 32 0;
#X connect 26 0 25 0;
#X connect 27 0 26 0;
#X connect 28 0 25 0;
#X connect 29 0 25 0;
#X connect 30 0 31 0;
#X connect 31 0 19 0;
#X connect 31 0 23 0;
#X connect 32 0 27 0;
#X connect 33 0 24 0;
#X connect 34 0 27 0;
#X connect 35 0 34 0;
