#N canvas 0 125 862 407 10;
#X obj 98 278 dac~ 1;
#X obj 120 156 osc~ 111;
#X obj 191 240 dac~ 2;
#X obj 261 240 dac~ 3;
#X obj 331 240 dac~ 4;
#X obj 190 156 osc~ 222;
#X obj 260 156 osc~ 333;
#X obj 330 156 osc~ 444;
#X msg 151 43 \; pd dsp 0;
#X obj 126 231 *~ 0.1;
#X obj 260 179 *~ 0.1;
#X obj 330 179 *~ 0.1;
#X obj 782 224 bng 15 250 50 0 empty empty empty 17 7 0 10 -258113
-1 -1;
#X msg 70 44 \; pd dsp 1;
#X floatatom 347 -19 5 0 0 0 - - -;
#X obj 589 536 netsend -u -b;
#X obj 589 498 list trim;
#X obj 589 455 list prepend send;
#X obj 605 311 pack i i f;
#X floatatom 675 168 5 0 0 0 - - -;
#X obj 665 210 t b b f;
#X floatatom 554 215 5 0 0 0 - - -;
#X floatatom 598 214 5 0 0 0 - - -;
#X msg 576 156 0;
#X obj 539 278 i;
#X obj 583 278 i;
#X floatatom 501 185 5 0 0 0 - - -;
#X msg 736 467 disconnect;
#X floatatom 120 124 5 0 0 0 - - -;
#X floatatom 190 124 5 0 0 0 - - -;
#X floatatom 260 124 5 0 0 0 - - -;
#X floatatom 330 124 5 0 0 0 - - -;
#X obj 782 244 oscformat all_silent;
#X obj 190 179 *~ 155;
#X floatatom 375 379 5 0 0 0 - - -;
#X floatatom 466 347 5 0 0 0 - - -;
#X obj 707 352 snapshot~;
#X obj 784 300 tgl 15 0 empty empty empty 17 7 0 10 -262144 -1 -1 1
1;
#X obj 463 405 oscformat track 10 x;
#X obj 449 297 snapshot~;
#X obj 388 294 tgl 15 0 empty empty empty 17 7 0 10 -262144 -1 -1 1
1;
#X floatatom 526 309 5 0 0 0 - - -;
#X obj 387 326 metro 10;
#X obj 450 267 osc~ 0.2;
#X obj 708 322 osc~ 0.3;
#X obj 600 402 oscformat track 10 y;
#X obj 783 332 metro 10;
#X obj 411 113 loadbang;
#X obj 758 424 loadbang;
#X obj 464 377 * 5;
#X obj 597 354 * 5;
#X msg 716 502 connect 192.168.0.100 4002;
#X connect 1 0 9 0;
#X connect 5 0 33 0;
#X connect 6 0 10 0;
#X connect 7 0 11 0;
#X connect 9 0 0 0;
#X connect 10 0 3 0;
#X connect 11 0 4 0;
#X connect 12 0 32 0;
#X connect 16 0 15 0;
#X connect 17 0 16 0;
#X connect 19 0 20 0;
#X connect 20 0 24 0;
#X connect 20 1 25 0;
#X connect 20 2 18 2;
#X connect 21 0 24 1;
#X connect 22 0 25 1;
#X connect 23 0 21 0;
#X connect 23 0 22 0;
#X connect 24 0 18 0;
#X connect 25 0 18 1;
#X connect 26 0 21 0;
#X connect 26 0 22 0;
#X connect 27 0 15 0;
#X connect 28 0 1 0;
#X connect 29 0 5 0;
#X connect 30 0 6 0;
#X connect 31 0 7 0;
#X connect 33 0 2 0;
#X connect 33 0 1 0;
#X connect 34 0 38 0;
#X connect 35 0 49 0;
#X connect 36 0 35 0;
#X connect 37 0 46 0;
#X connect 38 0 17 0;
#X connect 39 0 41 0;
#X connect 39 0 50 0;
#X connect 40 0 42 0;
#X connect 42 0 39 0;
#X connect 43 0 39 0;
#X connect 44 0 36 0;
#X connect 45 0 17 0;
#X connect 46 0 36 0;
#X connect 47 0 40 0;
#X connect 47 0 13 0;
#X connect 47 0 37 0;
#X connect 48 0 51 0;
#X connect 49 0 38 0;
#X connect 50 0 45 0;
#X connect 51 0 15 0;
