#N canvas 0 96 800 384 10;
#X msg 151 43 \; pd dsp 0;
#X obj 782 224 bng 15 250 50 0 empty empty empty 17 7 0 10 -258113
-1 -1;
#X msg 70 44 \; pd dsp 1;
#X floatatom 347 -19 5 0 0 0 - - -;
#X obj 589 536 netsend -u -b;
#X obj 589 498 list trim;
#X obj 589 455 list prepend send;
#X obj 605 311 pack i i f;
#X floatatom 691 179 5 0 1 0 - - -;
#X obj 665 210 t b b f;
#X floatatom 548 217 5 0 0 0 - - -;
#X floatatom 598 214 5 0 0 0 - - -;
#X msg 576 171 0;
#X obj 539 278 i;
#X obj 583 278 i;
#X floatatom 501 185 5 0 0 0 - - -;
#X msg 736 467 disconnect;
#X obj 782 244 oscformat all_silent;
#X obj 495 374 oscformat route pi;
#X obj 676 376 oscformat route speaker;
#X msg 21 416 track/6/azim random 200;
#X obj 280 335 -100;
#X obj 281 362 / 50;
#X obj 77 283 oscformat track 6 azim;
#X obj 385 459 oscformat track 6 aed;
#X obj 464 235 bng 15 250 50 0 empty empty empty 17 7 0 10 -262144
-1 -1;
#X obj 356 397 f;
#X obj 389 396 f;
#X obj 420 395 f;
#X floatatom 284 388 5 0 0 0 - - -;
#X floatatom 404 280 5 0 10 0 - - -;
#X floatatom 453 285 5 0 6 0 - - -;
#X obj 285 285 bng 15 250 50 0 empty empty empty 17 7 0 10 -262144
-1 -1;
#X obj 385 433 pack f f f;
#X obj 376 352 bng 15 250 50 0 empty empty empty 17 7 0 10 -262144
-1 -1;
#X obj 282 312 random 400;
#X obj 185 350 bonk~;
#X msg 189 377 thresh 2.5 5;
#X obj 408 216 / 50;
#X floatatom 411 242 5 0 0 0 - - -;
#X obj 409 166 random 600;
#X obj 407 189 -200;
#X obj 572 89 osc~;
#X obj 635 80 snapshot~;
#X obj 667 13 tgl 15 0 empty empty empty 17 7 0 10 -262144 -1 -1 1
1;
#X obj 635 103 * 180;
#X floatatom 629 138 5 0 0 0 - - -;
#X obj 692 138 oscformat track 6 azim;
#X obj 478 135 * 0.001;
#X obj 662 40 metro 100;
#X floatatom 281 418 5 0 0 0 - - -;
#X obj 68 11 loadbang;
#X obj 668 -38 loadbang;
#X msg 668 -12 1;
#X obj 425 -39 loadbang;
#X obj 475 -7 vsl 15 128 0 127 0 0 empty empty empty 0 -9 0 10 -262144
-1 -1 4500 1;
#X msg 425 -12 45;
#X obj 823 474 loadbang;
#X obj 184 317 adc~ 1;
#X msg 711 507 connect 192.168.0.100 4002;
#X connect 1 0 17 0;
#X connect 5 0 4 0;
#X connect 6 0 5 0;
#X connect 7 0 19 0;
#X connect 8 0 9 0;
#X connect 9 0 13 0;
#X connect 9 1 14 0;
#X connect 9 2 7 2;
#X connect 10 0 13 1;
#X connect 11 0 14 1;
#X connect 12 0 10 0;
#X connect 12 0 11 0;
#X connect 13 0 7 0;
#X connect 14 0 7 1;
#X connect 15 0 10 0;
#X connect 15 0 11 0;
#X connect 16 0 4 0;
#X connect 17 0 6 0;
#X connect 19 0 6 0;
#X connect 21 0 22 0;
#X connect 22 0 29 0;
#X connect 24 0 6 0;
#X connect 26 0 33 0;
#X connect 27 0 33 1;
#X connect 28 0 33 2;
#X connect 29 0 26 0;
#X connect 29 0 34 0;
#X connect 29 0 50 0;
#X connect 30 0 27 0;
#X connect 30 0 34 0;
#X connect 31 0 28 0;
#X connect 31 0 34 0;
#X connect 32 0 35 0;
#X connect 32 0 40 0;
#X connect 33 0 24 0;
#X connect 34 0 26 0;
#X connect 34 0 27 0;
#X connect 34 0 28 0;
#X connect 35 0 21 0;
#X connect 36 0 37 0;
#X connect 37 0 32 0;
#X connect 38 0 39 0;
#X connect 39 0 31 0;
#X connect 40 0 41 0;
#X connect 41 0 38 0;
#X connect 42 0 43 0;
#X connect 43 0 45 0;
#X connect 44 0 49 0;
#X connect 45 0 46 0;
#X connect 46 0 47 0;
#X connect 47 0 6 0;
#X connect 48 0 42 0;
#X connect 49 0 43 0;
#X connect 51 0 2 0;
#X connect 52 0 53 0;
#X connect 53 0 44 0;
#X connect 54 0 56 0;
#X connect 55 0 48 0;
#X connect 56 0 55 0;
#X connect 57 0 59 0;
#X connect 58 0 36 0;
#X connect 59 0 4 0;
