#N canvas 0 62 800 418 10;
#X msg 151 43 \; pd dsp 0;
#X msg 70 44 \; pd dsp 1;
#X obj 234 181 osc~;
#X obj 343 180 tgl 15 0 empty empty empty 17 7 0 10 -262144 -1 -1 0
1;
#X obj 216 233 snapshot~;
#X floatatom 304 151 5 0 0 0 - - -;
#X floatatom 121 305 5 0 0 0 - - -;
#X obj 249 511 netsend -u -b;
#X obj 249 473 list trim;
#X obj 249 430 list prepend send;
#X msg 396 442 disconnect;
#X msg 379 475 connect 192.168.0.100 4002;
#X obj 253 -10 vsl 15 128 0 127 0 0 empty empty empty 0 -9 0 10 -262144
-1 -1 1000 1;
#X obj 243 137 * 0.01;
#X obj 89 349 oscformat track 1 dist;
#X obj 133 269 * 10;
#X obj 359 303 oscformat track 1 azim;
#X obj 324 269 * 180;
#X obj 70 -16 loadbang;
#X obj 395 57 loadbang;
#X msg 395 80 1;
#X obj 484 426 loadbang;
#X obj 312 -3 loadbang;
#X msg 312 20 10;
#X obj 283 207 metro 10;
#X connect 2 0 4 0;
#X connect 3 0 24 0;
#X connect 4 0 15 0;
#X connect 4 0 17 0;
#X connect 6 0 14 0;
#X connect 8 0 7 0;
#X connect 9 0 8 0;
#X connect 10 0 7 0;
#X connect 11 0 7 0;
#X connect 12 0 13 0;
#X connect 13 0 2 0;
#X connect 13 0 5 0;
#X connect 14 0 9 0;
#X connect 15 0 6 0;
#X connect 16 0 9 0;
#X connect 17 0 16 0;
#X connect 18 0 1 0;
#X connect 19 0 20 0;
#X connect 20 0 3 0;
#X connect 21 0 11 0;
#X connect 22 0 23 0;
#X connect 23 0 12 0;
#X connect 24 0 4 0;
