#N canvas 3 94 797 384 12;
#X obj 710 369 bng 15 250 50 0 empty empty empty 17 7 0 10 -258113
-1 -1;
#X obj 589 536 netsend -u -b;
#X obj 589 498 list trim;
#X obj 589 455 list prepend send;
#X msg 733 534 disconnect;
#X obj 709 397 oscformat all_silent;
#X obj 648 255 oscformat route pi;
#X obj 18 117 vsl 15 128 0.1 50 0 0 empty empty empty 0 -9 0 10 -262144
-1 -1 0 1;
#X floatatom 94 282 5 0 0 0 - - -;
#X obj 29 402 snapshot~;
#X floatatom 58 459 5 0 0 0 - - -;
#X obj 615 199 metro 10;
#X obj 668 157 tgl 15 0 empty empty empty 17 7 0 10 -262144 -1 -1 1
1;
#X obj 55 494 oscformat track 8 azim;
#X obj 213 137 vsl 15 128 1 200 1 0 empty empty empty 0 -9 0 10 -262144
-1 -1 0 1;
#X floatatom 354 250 5 0 0 0 - - -;
#X obj 301 316 snapshot~;
#X obj 382 420 oscformat track 8 dist;
#X obj 344 375 abs;
#X floatatom 382 392 5 0 0 0 - - -;
#X msg 694 91 \; pd dsp 1;
#X msg 774 91 \; pd dsp 0;
#X floatatom 362 217 5 0 20 0 - - -;
#X text 51 114 freq (azim);
#X text 206 103 freq (dist);
#X text 359 105 radius;
#X obj 652 333 oscformat route speaker;
#X msg 656 284 7 8 1;
#X obj 58 434 * 360;
#X obj 17 286 * 0.1;
#X obj 329 103 vsl 15 128 1 10 1 0 empty empty empty 0 -9 0 10 -262144
-1 -1 0 1;
#X obj 268 234 * 0.01;
#X obj 612 40 loadbang;
#X obj 345 341 * 5;
#X obj 751 453 loadbang;
#X obj 345 404 + 1;
#X obj 16 342 phasor~ 0.2;
#X obj 303 272 osc~ 0.15;
#X msg 716 502 connect 192.168.0.100 4002;
#X connect 0 0 5 0;
#X connect 2 0 1 0;
#X connect 3 0 2 0;
#X connect 4 0 1 0;
#X connect 5 0 3 0;
#X connect 6 0 3 0;
#X connect 7 0 29 0;
#X connect 9 0 28 0;
#X connect 10 0 13 0;
#X connect 11 0 9 0;
#X connect 11 0 16 0;
#X connect 12 0 11 0;
#X connect 13 0 3 0;
#X connect 14 0 31 0;
#X connect 16 0 33 0;
#X connect 17 0 3 0;
#X connect 18 0 35 0;
#X connect 19 0 17 0;
#X connect 22 0 33 1;
#X connect 26 0 3 0;
#X connect 27 0 26 0;
#X connect 28 0 10 0;
#X connect 29 0 8 0;
#X connect 29 0 36 0;
#X connect 30 0 22 0;
#X connect 31 0 15 0;
#X connect 31 0 37 0;
#X connect 32 0 20 0;
#X connect 32 0 12 0;
#X connect 33 0 18 0;
#X connect 34 0 38 0;
#X connect 35 0 19 0;
#X connect 36 0 9 0;
#X connect 37 0 16 0;
#X connect 38 0 1 0;
