#N canvas 0 94 800 406 12;
#X obj 178 495 netsend -u -b;
#X obj 178 457 list trim;
#X obj 168 407 list prepend send;
#X msg 328 428 disconnect;
#X obj 345 388 oscformat route speaker;
#X floatatom 63 182 5 0 0 0 - - -;
#X floatatom 145 165 5 0 0 0 - - -;
#X floatatom 258 180 5 0 0 0 - - -;
#X obj 116 294 pack f f f;
#X obj 107 208 bng 15 250 50 0 empty empty empty 17 7 0 10 -262144
-1 -1;
#X obj 59 254 f;
#X obj 115 239 f;
#X obj 203 259 f;
#X text 192 181 distance;
#X text 6 181 azimuth;
#X msg 345 347 2 2 1;
#X msg 401 11 \; pd dsp 0;
#X msg 320 12 \; pd dsp 1;
#X obj 168 334 oscformat track 2 aed;
#N canvas 673 234 800 398 muster 1;
#X floatatom 44 147 5 0 0 0 - - -;
#X obj 146 248 snapshot~;
#X obj 241 97 tgl 15 0 empty empty empty 17 7 0 10 -262144 -1 -1 1
1;
#X obj 150 366 outlet;
#X obj 401 367 outlet;
#X obj 620 364 outlet;
#X obj 116 61 metro 1000;
#X obj 399 241 snapshot~;
#X floatatom 401 334 5 0 0 0 - - -;
#X obj 476 162 tgl 15 0 empty empty empty 17 7 0 10 -262144 -1 -1 1
1;
#X floatatom 621 210 5 0 80 0 - - -;
#X obj 621 242 abs;
#X floatatom 620 301 5 0 80 0 - - -;
#X obj 602 67 tgl 15 0 empty empty empty 17 7 0 10 -262144 -1 -1 1
1;
#X obj 168 171 metro 10;
#X obj 605 134 random 3;
#X obj 620 270 + 45;
#X obj 476 212 metro 10;
#X obj 409 159 * 1e-05;
#X obj 407 213 osc~;
#X obj 359 107 metro 1000;
#X obj 359 134 random 16000;
#X obj 400 271 abs;
#X obj 383 -10 inlet;
#X obj 384 20 bng 15 250 50 0 empty empty empty 17 7 0 10 -262144 -1
-1;
#X obj 115 35 tgl 15 0 empty empty empty 17 7 0 10 -262144 -1 -1 1
1;
#X obj 358 74 tgl 15 0 empty empty empty 17 7 0 10 -262144 -1 -1 1
1;
#X obj 51 199 osc~;
#X obj 601 98 metro 10;
#X floatatom 405 188 5 0 0 0 - - -;
#X obj 400 303 * 20;
#X floatatom 147 282 5 0 0 0 - - -;
#X obj 114 116 * 1;
#X obj 72 232 *~ 360;
#X obj 114 86 random 360;
#X connect 0 0 27 0;
#X connect 0 0 31 0;
#X connect 2 0 14 0;
#X connect 6 0 34 0;
#X connect 7 0 22 0;
#X connect 8 0 4 0;
#X connect 9 0 17 0;
#X connect 10 0 11 0;
#X connect 11 0 16 0;
#X connect 12 0 5 0;
#X connect 13 0 28 0;
#X connect 14 0 1 0;
#X connect 15 0 10 0;
#X connect 16 0 12 0;
#X connect 17 0 7 0;
#X connect 18 0 29 0;
#X connect 19 0 7 0;
#X connect 20 0 21 0;
#X connect 21 0 18 0;
#X connect 22 0 30 0;
#X connect 23 0 24 0;
#X connect 24 0 25 0;
#X connect 24 0 2 0;
#X connect 24 0 26 0;
#X connect 24 0 9 0;
#X connect 24 0 13 0;
#X connect 25 0 6 0;
#X connect 26 0 20 0;
#X connect 27 0 33 0;
#X connect 28 0 15 0;
#X connect 29 0 19 0;
#X connect 30 0 8 0;
#X connect 31 0 3 0;
#X connect 32 0 0 0;
#X connect 33 0 1 0;
#X connect 34 0 32 0;
#X restore 83 76 pd muster;
#X obj 83 4 loadbang;
#X obj 208 47 send lb;
#X obj 229 432 receive lb;
#X text 128 178 Y;
#X obj 142 129 - 100;
#X obj 258 204 * 0.2;
#X msg 125 262 0;
#X msg 305 461 connect 192.168.0.100 4002;
#X connect 1 0 0 0;
#X connect 2 0 1 0;
#X connect 3 0 0 0;
#X connect 4 0 2 0;
#X connect 5 0 9 0;
#X connect 5 0 10 0;
#X connect 6 0 9 0;
#X connect 6 0 11 0;
#X connect 7 0 9 0;
#X connect 7 0 25 0;
#X connect 8 0 18 0;
#X connect 9 0 12 0;
#X connect 9 0 11 0;
#X connect 9 0 10 0;
#X connect 10 0 8 0;
#X connect 11 0 26 0;
#X connect 12 0 8 2;
#X connect 15 0 4 0;
#X connect 18 0 2 0;
#X connect 19 0 5 0;
#X connect 19 1 6 0;
#X connect 19 1 24 0;
#X connect 19 2 7 0;
#X connect 20 0 21 0;
#X connect 20 0 19 0;
#X connect 22 0 27 0;
#X connect 24 0 6 0;
#X connect 25 0 12 1;
#X connect 26 0 8 1;
#X connect 27 0 0 0;
