#N canvas 26 94 800 384 12;
#X msg 241 4 \; pd dsp 0;
#X obj 754 169 bng 15 250 50 0 empty empty empty 17 7 0 10 -258113
-1 -1;
#X msg 154 8 \; pd dsp 1;
#X obj 408 314 netsend -u -b;
#X obj 408 276 list trim;
#X obj 408 233 list prepend send;
#X msg 555 245 disconnect;
#X obj 631 197 oscformat all_silent;
#X floatatom 401 26 5 0 0 0 - - -;
#X obj 453 67 bng 15 250 50 0 empty empty empty 17 7 0 10 -262144 -1
-1;
#X floatatom 469 25 5 0 0 0 - - -;
#X floatatom 538 26 5 0 0 0 - - -;
#X obj 403 115 f;
#X obj 457 114 f;
#X obj 526 115 f;
#X obj 712 20 vsl 15 128 2 16 0 0 empty empty empty 0 -9 0 10 -262144
-1 -1 0 1;
#X obj 246 44 hsl 128 15 -179 0 0 0 empty empty empty -2 -8 0 10 -262144
-1 -1 0 1;
#X floatatom 711 158 5 0 0 0 - - -;
#X floatatom 243 65 5 0 0 0 - - -;
#X obj 424 192 oscformat track 7 aed;
#X obj 416 157 pack f f f;
#X obj 48 106 osc~;
#X obj 48 138 snapshot~;
#X obj 85 107 metro 10;
#X obj 62 84 tgl 15 0 empty empty empty 17 7 0 10 -262144 -1 -1 1 1
;
#X obj 19 60 vsl 15 128 0 1 0 0 empty empty empty 0 -9 0 10 -262144
-1 -1 1270 1;
#X obj 53 255 phasor~;
#X obj 24 242 vsl 15 128 0 10 0 0 empty empty empty 0 -9 0 10 -262144
-1 -1 11684 1;
#X obj 126 254 metro 10;
#X obj 126 226 tgl 15 0 empty empty empty 17 7 0 10 -262144 -1 -1 1
1;
#X obj 57 293 snapshot~;
#X obj 53 229 * 0.1;
#X obj 133 295 * 360;
#X msg 584 300 connect 192.168.0.100 4002;
#X obj 65 17 loadbang;
#X msg 48 58 1;
#X obj 584 269 loadbang;
#X msg 14 25 0.1;
#X obj 164 174 * 1.5;
#X obj 60 175 + 2;
#X msg 8 213 9.2;
#X connect 1 0 7 0;
#X connect 4 0 3 0;
#X connect 5 0 4 0;
#X connect 6 0 3 0;
#X connect 7 0 5 0;
#X connect 8 0 12 0;
#X connect 8 0 9 0;
#X connect 9 0 10 0;
#X connect 9 0 12 0;
#X connect 9 0 13 0;
#X connect 9 0 14 0;
#X connect 11 0 9 0;
#X connect 11 0 14 0;
#X connect 12 0 20 0;
#X connect 13 0 20 1;
#X connect 14 0 20 2;
#X connect 15 0 17 0;
#X connect 16 0 18 0;
#X connect 17 0 14 0;
#X connect 17 0 9 0;
#X connect 18 0 9 0;
#X connect 18 0 12 0;
#X connect 19 0 5 0;
#X connect 20 0 19 0;
#X connect 21 0 22 0;
#X connect 22 0 39 0;
#X connect 23 0 22 0;
#X connect 24 0 23 0;
#X connect 25 0 21 0;
#X connect 26 0 30 0;
#X connect 27 0 31 0;
#X connect 28 0 30 0;
#X connect 29 0 28 0;
#X connect 30 0 32 0;
#X connect 31 0 26 0;
#X connect 32 0 8 0;
#X connect 33 0 3 0;
#X connect 34 0 2 0;
#X connect 34 0 35 0;
#X connect 34 0 40 0;
#X connect 34 0 37 0;
#X connect 35 0 29 0;
#X connect 35 0 24 0;
#X connect 36 0 33 0;
#X connect 37 0 25 0;
#X connect 38 0 11 0;
#X connect 39 0 38 0;
#X connect 40 0 27 0;
