#N canvas 620 535 1086 830 10;
#X floatatom 253 -2 5 0 0 0 - - -;
#X obj 244 264 list prepend send;
#X obj 244 295 list trim;
#X obj 309 331 netsend -u -b;
#X floatatom 31 218 5 0 0 0 - - -;
#X msg 401 297 connect 192.168.0.100 4002;
#X msg 454 190 disconnect;
#X obj 61 43 osc~;
#X obj 61 14 * 0.01;
#X floatatom 136 43 5 0 0 0 - - -;
#X obj 92 111 snapshot~;
#X obj 105 82 metro 10;
#X obj 105 53 tgl 15 0 empty empty empty 17 7 0 10 -262144 -1 -1 1
1;
#X obj 48 154 * 180;
#X obj 49 -13 hsl 128 15 0 127 0 0 empty empty empty -2 -8 0 10 -262144
-1 -1 5500 1;
#X obj 577 98 loadbang;
#X obj 46 -82 loadbang;
#X msg 576 122 \; pd dsp 1;
#X obj 502 237 loadbang;
#X obj 186 -12 loadbang;
#X msg 186 13 1;
#X obj 360 85 loadbang;
#X obj 30 250 oscformat track 1 azim;
#X obj 252 204 oscformat track 1 dist;
#X msg 360 122 2;
#X msg 46 -45 55;
#X connect 1 0 2 0;
#X connect 2 0 3 0;
#X connect 4 0 22 0;
#X connect 5 0 3 0;
#X connect 6 0 3 0;
#X connect 7 0 10 0;
#X connect 8 0 7 0;
#X connect 8 0 9 0;
#X connect 10 0 13 0;
#X connect 11 0 10 0;
#X connect 12 0 11 0;
#X connect 13 0 4 0;
#X connect 14 0 8 0;
#X connect 15 0 17 0;
#X connect 16 0 25 0;
#X connect 18 0 5 0;
#X connect 19 0 20 0;
#X connect 20 0 12 0;
#X connect 21 0 24 0;
#X connect 22 0 1 0;
#X connect 23 0 1 0;
#X connect 24 0 23 0;
#X connect 25 0 14 0;
