#N canvas 0 94 800 388 12;
#X msg 192 45 \; pd dsp 0;
#X msg 111 46 \; pd dsp 1;
#X obj 107 244 netsend -u -b;
#X obj 107 206 list trim;
#X obj 107 163 list prepend send;
#X msg 254 175 disconnect;
#X obj 479 115 snapshot~;
#X obj 479 148 * 180;
#X floatatom 479 180 5 0 0 0 - - -;
#X obj 572 64 metro 10;
#X obj 570 33 tgl 15 0 empty empty empty 17 7 0 10 -262144 -1 -1 1
1;
#X obj 285 301 pack f f f;
#X obj 107 124 oscformat track 9 aed;
#X obj 319 251 5;
#X obj 677 118 snapshot~;
#X floatatom 678 281 5 0 0 0 - - -;
#X obj 680 229 abs;
#X obj 571 -4 loadbang;
#X obj 114 7 loadbang;
#X obj 359 123 loadbang;
#X text 481 45 azim;
#X text 681 63 distance;
#X obj 677 88 osc~ 0.075;
#X obj 677 190 * 7.5;
#X obj 478 73 osc~ 0.75;
#X msg 253 206 connect 192.168.0.100 4002;
#X connect 3 0 2 0;
#X connect 4 0 3 0;
#X connect 5 0 2 0;
#X connect 6 0 7 0;
#X connect 7 0 8 0;
#X connect 8 0 11 0;
#X connect 9 0 6 0;
#X connect 9 0 14 0;
#X connect 10 0 9 0;
#X connect 11 0 12 0;
#X connect 12 0 4 0;
#X connect 13 0 11 1;
#X connect 14 0 23 0;
#X connect 15 0 11 2;
#X connect 16 0 15 0;
#X connect 17 0 10 0;
#X connect 18 0 1 0;
#X connect 19 0 25 0;
#X connect 22 0 14 0;
#X connect 23 0 16 0;
#X connect 24 0 6 0;
#X connect 25 0 2 0;
