#N canvas 0 94 2560 1346 12;
#X obj 49 294 netsend -u -b;
#X obj 48 242 list trim;
#X obj 48 199 list prepend send;
#X msg 151 225 disconnect;
#X msg 152 251 connect 192.168.0.100 4002;
#X obj 302 3 vsl 15 128 -180 180 0 0 empty empty empty 0 -9 0 10 -262144
-1 -1 22578 1;
#X obj 394 100 hsl 128 15 0 127 0 0 empty empty empty -2 -8 0 10 -262144
-1 -1 24000 1;
#X floatatom 384 255 5 0 0 0 - - -;
#X floatatom 145 52 5 0 0 0 - - -;
#X obj 36 100 pack f f f;
#X obj 36 131 oscformat track 5 aed;
#X floatatom 328 29 5 0 0 0 - - -;
#X obj 393 187 snapshot~;
#X obj 460 121 tgl 15 0 empty empty empty 17 7 0 10 -262144 -1 -1 1
1;
#X obj 390 126 * 0.001;
#X floatatom 347 156 5 0 0 0 - - -;
#X obj 489 185 hsl 128 15 0 100 0 0 empty empty empty -2 -8 0 10 -262144
-1 -1 22860 1;
#X floatatom 480 343 5 0 0 0 - - -;
#X obj 493 240 osc~;
#X obj 489 275 snapshot~;
#X obj 556 209 tgl 15 0 empty empty empty 17 7 0 10 -262144 -1 -1 1
1;
#X obj 486 214 * 0.001;
#X floatatom 443 244 5 0 0 0 - - -;
#X obj 478 312 * 10;
#X obj 544 28 loadbang;
#X obj 260 222 loadbang;
#X obj 397 152 phasor~;
#X obj 382 224 * -360;
#X obj 556 110 1;
#X obj 440 44 120, f 4;
#X obj 612 142 90;
#X obj 393 5 140;
#X msg 664 80 \; pd dsp 1;
#X obj 552 233 metro 20;
#X obj 456 145 metro 20;
#X msg 145 75 0;
#X connect 1 0 0 0;
#X connect 2 0 1 0;
#X connect 3 0 0 0;
#X connect 4 0 0 0;
#X connect 5 0 8 0;
#X connect 6 0 14 0;
#X connect 7 0 9 0;
#X connect 8 0 35 0;
#X connect 9 0 10 0;
#X connect 10 0 2 0;
#X connect 11 0 9 2;
#X connect 12 0 27 0;
#X connect 13 0 34 0;
#X connect 14 0 15 0;
#X connect 14 0 26 0;
#X connect 16 0 21 0;
#X connect 17 0 11 0;
#X connect 18 0 19 0;
#X connect 19 0 23 0;
#X connect 20 0 33 0;
#X connect 21 0 18 0;
#X connect 21 0 22 0;
#X connect 23 0 17 0;
#X connect 24 0 28 0;
#X connect 24 0 29 0;
#X connect 24 0 30 0;
#X connect 24 0 31 0;
#X connect 24 0 32 0;
#X connect 25 0 4 0;
#X connect 26 0 12 0;
#X connect 27 0 7 0;
#X connect 28 0 13 0;
#X connect 28 0 20 0;
#X connect 29 0 6 0;
#X connect 30 0 16 0;
#X connect 31 0 5 0;
#X connect 33 0 19 0;
#X connect 34 0 12 0;
#X connect 35 0 9 1;
