#N canvas 383 209 800 406 12;
#X obj -82 503 netsend -u -b;
#X obj -82 465 list trim;
#X obj -82 422 list prepend send;
#X msg 64 433 disconnect;
#X obj 85 396 oscformat route speaker;
#X msg 45 469 connect 192.168.0.100 4002;
#X floatatom -52 193 5 0 0 0 - - -;
#X floatatom 16 199 5 0 0 0 - - -;
#X floatatom 86 191 5 0 0 0 - - -;
#X obj 1 305 pack f f f;
#X obj 35 235 bng 15 250 50 0 empty empty empty 17 7 0 10 -262144 -1
-1;
#X obj -56 265 f;
#X obj 8 266 f;
#X obj 88 270 f;
#X obj -58 166 hsl 128 15 -180 180 0 0 empty empty empty -2 -8 0 10
-262144 -1 -1 0 1;
#X obj 162 167 vsl 15 128 -20 20 0 0 empty empty empty 0 -9 0 10 -262144
-1 -1 7937 1;
#X text 138 132 distance;
#X text -43 140 azimuth;
#X obj -80 378 oscformat track 3 aed;
#X msg 66 345 2 2 1;
#X msg 5 -267 \; pd dsp 0;
#X msg -76 -266 \; pd dsp 1;
#X obj -72 -176 metro 1000;
#X obj -72 -133 - 5000;
#X obj -72 -108 +;
#X obj -72 -83 list append 1000;
#X obj -72 -58 line;
#X obj -73 -34 mod 36000;
#X floatatom -73 -9 5 0 0 0 - - -;
#X obj -73 15 float;
#X floatatom -73 98 5 0 0 0 - - -;
#X obj -75 -197 tgl 15 0 empty empty empty 17 7 0 10 -262144 -1 -1
1 1;
#X obj -76 -222 loadbang;
#X obj -74 42 / 100;
#X obj -74 67 - 180;
#X obj 142 -101 route 1;
#X obj 142 -72 tgl 15 0 empty empty empty 17 7 0 10 -262144 -1 -1 0
1;
#X floatatom 142 -51 5 0 0 0 - - -;
#X obj 142 -26 - 0.5;
#X obj 142 0 * 10;
#X obj 142 52 line;
#X floatatom 142 77 5 0 0 0 - - -;
#X obj 143 -150 random 5;
#X obj -72 -152 random 13000;
#X obj 142 26 list append 2000;
#X obj 161 429 loadbang;
#X obj 319 160 loadbang;
#X msg 319 185 5;
#X connect 1 0 0 0;
#X connect 2 0 1 0;
#X connect 3 0 0 0;
#X connect 4 0 2 0;
#X connect 5 0 0 0;
#X connect 6 0 10 0;
#X connect 6 0 11 0;
#X connect 7 0 10 0;
#X connect 7 0 12 0;
#X connect 8 0 10 0;
#X connect 8 0 13 0;
#X connect 9 0 18 0;
#X connect 10 0 13 0;
#X connect 10 0 12 0;
#X connect 10 0 11 0;
#X connect 11 0 9 0;
#X connect 12 0 9 1;
#X connect 13 0 9 2;
#X connect 14 0 6 0;
#X connect 15 0 8 0;
#X connect 18 0 2 0;
#X connect 19 0 4 0;
#X connect 22 0 42 0;
#X connect 22 0 43 0;
#X connect 23 0 24 0;
#X connect 24 0 25 0;
#X connect 25 0 26 0;
#X connect 26 0 27 0;
#X connect 27 0 28 0;
#X connect 28 0 29 0;
#X connect 29 0 33 0;
#X connect 30 0 6 0;
#X connect 31 0 22 0;
#X connect 32 0 31 0;
#X connect 33 0 34 0;
#X connect 34 0 30 0;
#X connect 35 0 36 0;
#X connect 36 0 37 0;
#X connect 37 0 38 0;
#X connect 38 0 39 0;
#X connect 39 0 44 0;
#X connect 40 0 41 0;
#X connect 41 0 8 0;
#X connect 42 0 35 0;
#X connect 43 0 23 0;
#X connect 44 0 40 0;
#X connect 45 0 5 0;
#X connect 46 0 47 0;
#X connect 47 0 15 0;
