#N canvas 1 119 755 380 10;
#X obj 30 316 dac~ 1;
#X obj 30 17 adc~ 1;
#X text 87 17 get the first input channel;
#X text 76 315 send to the first output channel;
#X msg 605 17 \; pd dsp 0;
#X msg 524 18 \; pd dsp 1;
#X obj 77 74 hsl 600 100 -100 1000 0 0 empty empty empty -2 -8 0 10
-262144 -1 -1 0 1;
#X text 446 24 Start audio;
#N canvas 890 847 450 300 pitch 0;
#X obj 205 120 cos~;
#X obj 248 98 +~ -0.25;
#X obj 248 121 cos~;
#X obj 40 165 *~;
#X obj 106 165 *~;
#X obj 39 189 -~;
#X floatatom 205 49 5 0 0 0 - - -, f 5;
#X obj 205 74 phasor~;
#X obj 40 127 hilbert~;
#X obj 39 242 outlet~;
#X obj 39 23 inlet~;
#X obj 204 16 inlet;
#X text 176 236 directly from the audio.examples;
#X connect 0 0 3 1;
#X connect 1 0 2 0;
#X connect 2 0 4 1;
#X connect 3 0 5 0;
#X connect 4 0 5 1;
#X connect 5 0 9 0;
#X connect 6 0 7 0;
#X connect 7 0 1 0;
#X connect 7 0 0 0;
#X connect 8 0 3 0;
#X connect 8 1 4 0;
#X connect 10 0 8 0;
#X connect 11 0 6 0;
#X coords 0 -1 1 1 32 62 1 100 100;
#X restore 29 235 pd pitch;
#X floatatom 74 200 5 0 0 0 - - -, f 5;
#X text 68 54 pitch shift;
#X text 349 279 A simple pitch shift example with a hughe fader - make
sure to connect the jack ports of PD!;
#X connect 1 0 8 0;
#X connect 6 0 9 0;
#X connect 8 0 0 0;
#X connect 9 0 8 1;
#X coords 0 0 1 1 85 60 0;
