#N canvas 1134 282 1355 931 10;
#X floatatom 73 226 5 0 0 0 - - -, f 5;
#X text 10 8 This example shows the use of the Python-based socket
connection. OSC messages can are send to and received from a local
connection. Messages sent to this connection are broadcasted to all
access points \, also to the sending one.;
#X obj 73 405 netsend -u -b;
#X obj 73 352 list trim;
#X obj 73 325 list prepend send;
#X msg 216 345 disconnect;
#X obj 436 216 netreceive -u -b;
#X obj 436 239 oscparse;
#X obj 436 264 route list;
#X msg 216 319 connect localhost 9495;
#X msg 436 183 listen 5003;
#X obj 73 298 oscformat henrik;
#X obj 436 332 print BACK;
#X msg 58 201 list HALLLOOO;
#X obj 192 161 metro 1000;
#X obj 192 139 tgl 15 0 empty empty empty 17 7 0 10 -262144 -1 -1 0
1;
#N canvas 140 465 815 657 counter 0;
#X obj 123 15 inlet;
#X obj 122 195 outlet;
#X obj 123 61 i 0;
#X obj 214 55 + 1;
#X obj 214 74 moses 10;
#X msg 241 17 0;
#X floatatom 123 125 5 0 0 0 - - -, f 5;
#X connect 0 0 2 0;
#X connect 2 0 3 0;
#X connect 2 0 6 0;
#X connect 3 0 4 0;
#X connect 4 0 2 1;
#X connect 4 1 5 0;
#X connect 5 0 2 1;
#X connect 6 0 1 0;
#X coords 0 -1 1 1 85 60 1 100 100;
#X restore 192 188 pd counter;
#X floatatom 249 138 5 0 0 0 - - -, f 5;
#X text 183 99 Send continuously:;
#X obj 305 275 bng 15 250 50 0 empty empty empty 17 7 0 10 -262144
-1 -1;
#X text 324 273 Receiving data?;
#X obj 202 405 bng 15 250 50 0 empty empty empty 17 7 0 10 -262144
-1 -1;
#X text 220 403 Sending data?;
#X connect 0 0 11 0;
#X connect 3 0 2 0;
#X connect 4 0 3 0;
#X connect 4 0 21 0;
#X connect 5 0 2 0;
#X connect 6 0 7 0;
#X connect 6 0 19 0;
#X connect 7 0 8 0;
#X connect 8 0 12 0;
#X connect 9 0 2 0;
#X connect 10 0 6 0;
#X connect 11 0 4 0;
#X connect 13 0 11 0;
#X connect 14 0 16 0;
#X connect 15 0 14 0;
#X connect 16 0 11 0;
#X connect 17 0 14 1;
