#N canvas 2560 58 1920 1022 10;
#X obj 47 255 dac~ 1;
#X obj 118 255 dac~ 2;
#X obj 188 255 dac~ 3;
#X obj 258 255 dac~ 4;
#X msg 172 14 \; pd dsp 0;
#X obj 47 194 *~ 0.1;
#X obj 117 194 *~ 0.1;
#X obj 187 194 *~ 0.1;
#X obj 257 194 *~ 0.1;
#X msg 91 15 \; pd dsp 1;
#X floatatom 47 139 5 0 0 0 - - -, f 5;
#X floatatom 117 139 5 0 0 0 - - -, f 5;
#X floatatom 187 139 5 0 0 0 - - -, f 5;
#X floatatom 257 139 5 0 0 0 - - -, f 5;
#X obj 198 89 hsl 128 15 -180 180 0 0 empty empty empty -2 -8 0 10
-232576 -1 -1 0 1;
#X floatatom 195 109 5 0 0 0 - - -, f 5;
#X obj 187 171 osc~ 666;
#X obj 47 171 osc~ 222;
#X obj 117 171 osc~ 444;
#X obj 257 171 osc~ 888;
#X obj 345 191 *~ 0.1;
#X obj 415 191 *~ 0.1;
#X obj 485 191 *~ 0.1;
#X obj 555 191 *~ 0.1;
#X floatatom 345 136 5 0 0 0 - - -, f 5;
#X floatatom 415 136 5 0 0 0 - - -, f 5;
#X floatatom 485 136 5 0 0 0 - - -, f 5;
#X floatatom 555 136 5 0 0 0 - - -, f 5;
#X obj 345 252 dac~ 5;
#X obj 416 252 dac~ 6;
#X obj 486 252 dac~ 7;
#X obj 556 252 dac~ 8;
#X obj 345 168 osc~ 999;
#X obj 415 168 osc~ 1111;
#X obj 485 168 osc~ 1323;
#X obj 555 168 osc~ 1555;
#X connect 5 0 0 0;
#X connect 6 0 1 0;
#X connect 7 0 2 0;
#X connect 8 0 3 0;
#X connect 10 0 17 0;
#X connect 11 0 18 0;
#X connect 12 0 16 0;
#X connect 13 0 19 0;
#X connect 14 0 15 0;
#X connect 16 0 7 0;
#X connect 17 0 5 0;
#X connect 18 0 6 0;
#X connect 19 0 8 0;
#X connect 20 0 28 0;
#X connect 21 0 29 0;
#X connect 22 0 30 0;
#X connect 23 0 31 0;
#X connect 24 0 32 0;
#X connect 25 0 33 0;
#X connect 26 0 34 0;
#X connect 27 0 35 0;
#X connect 32 0 20 0;
#X connect 33 0 21 0;
#X connect 34 0 22 0;
#X connect 35 0 23 0;
