#N canvas 349 495 450 300 10;
#X obj 47 255 dac~ 1;
#X obj 47 171 osc~ 111;
#X obj 118 255 dac~ 2;
#X obj 188 255 dac~ 3;
#X obj 258 255 dac~ 4;
#X obj 117 171 osc~ 222;
#X obj 187 171 osc~ 333;
#X obj 257 171 osc~ 444;
#X msg 172 14 \; pd dsp 0;
#X obj 47 194 *~ 0.1;
#X obj 117 194 *~ 0.1;
#X obj 187 194 *~ 0.1;
#X obj 257 194 *~ 0.1;
#X msg 91 15 \; pd dsp 1;
#X floatatom 47 139 5 0 0 0 - - -, f 5;
#X floatatom 117 139 5 0 0 0 - - -, f 5;
#X floatatom 187 139 5 0 0 0 - - -, f 5;
#X floatatom 257 139 5 0 0 0 - - -, f 5;
#X obj 198 89 hsl 128 15 -180 180 0 0 empty empty empty -2 -8 0 10
-232576 -1 -1 0 1;
#X floatatom 195 109 5 0 0 0 - - -, f 5;
#X connect 1 0 9 0;
#X connect 5 0 10 0;
#X connect 6 0 11 0;
#X connect 7 0 12 0;
#X connect 9 0 0 0;
#X connect 10 0 2 0;
#X connect 11 0 3 0;
#X connect 12 0 4 0;
#X connect 14 0 1 0;
#X connect 15 0 5 0;
#X connect 16 0 6 0;
#X connect 17 0 7 0;
#X connect 18 0 19 0;
