#N canvas 1331 630 892 581 10;
#X obj 120 240 dac~ 1;
#X obj 120 156 osc~ 111;
#X obj 191 240 dac~ 2;
#X obj 261 240 dac~ 3;
#X obj 331 240 dac~ 4;
#X obj 190 156 osc~ 222;
#X obj 260 156 osc~ 333;
#X obj 330 156 osc~ 444;
#X msg 151 43 \; pd dsp 0;
#X obj 120 179 *~ 0.1;
#X obj 190 179 *~ 0.1;
#X obj 260 179 *~ 0.1;
#X obj 330 179 *~ 0.1;
#X obj 782 224 bng 15 250 50 0 empty empty empty 17 7 0 10 -258113
-1 -1;
#X msg 782 252 /all_silent;
#X msg 70 44 \; pd dsp 1;
#X floatatom 347 -19 5 0 0 0 - - -, f 5;
#X obj 589 536 netsend -u -b;
#X obj 589 498 list trim;
#X obj 604 415 oscformat route;
#X obj 589 455 list prepend send;
#X obj 605 311 pack i i f;
#X floatatom 675 178 5 0 0 0 - - -, f 5;
#X obj 665 210 t b b f;
#X floatatom 554 215 5 0 0 0 - - -, f 5;
#X floatatom 598 214 5 0 0 0 - - -, f 5;
#X msg 576 171 0;
#X obj 539 278 i;
#X obj 583 278 i;
#X floatatom 501 185 5 0 0 0 - - -, f 5;
#X msg 716 502 connect localhost 57120;
#X msg 736 467 disconnect;
#X floatatom 120 124 5 0 0 0 - - -, f 5;
#X floatatom 190 124 5 0 0 0 - - -, f 5;
#X floatatom 260 124 5 0 0 0 - - -, f 5;
#X floatatom 330 124 5 0 0 0 - - -, f 5;
#X connect 1 0 9 0;
#X connect 5 0 10 0;
#X connect 6 0 11 0;
#X connect 7 0 12 0;
#X connect 9 0 0 0;
#X connect 10 0 2 0;
#X connect 11 0 3 0;
#X connect 12 0 4 0;
#X connect 13 0 14 0;
#X connect 18 0 17 0;
#X connect 19 0 20 0;
#X connect 20 0 18 0;
#X connect 21 0 19 0;
#X connect 22 0 23 0;
#X connect 23 0 27 0;
#X connect 23 1 28 0;
#X connect 23 2 21 2;
#X connect 24 0 27 1;
#X connect 25 0 28 1;
#X connect 26 0 24 0;
#X connect 26 0 25 0;
#X connect 27 0 21 0;
#X connect 28 0 21 1;
#X connect 29 0 24 0;
#X connect 29 0 25 0;
#X connect 30 0 17 0;
#X connect 31 0 17 0;
#X connect 32 0 1 0;
#X connect 33 0 5 0;
#X connect 34 0 6 0;
#X connect 35 0 7 0;
