#N canvas 952 327 1144 1070 10;
#X obj 120 240 dac~ 1;
#X obj 120 156 osc~ 111;
#X obj 191 240 dac~ 2;
#X obj 261 240 dac~ 3;
#X obj 331 240 dac~ 4;
#X obj 190 156 osc~ 222;
#X obj 260 156 osc~ 333;
#X obj 330 156 osc~ 444;
#X msg 151 43 \; pd dsp 0;
#X obj 120 179 *~ 0.1;
#X obj 190 179 *~ 0.1;
#X obj 260 179 *~ 0.1;
#X obj 330 179 *~ 0.1;
#X obj 892 114 bng 15 250 50 0 empty empty empty 17 7 0 10 -258113
-1 -1;
#X msg 70 44 \; pd dsp 1;
#X floatatom 347 -19 5 0 0 0 - - -;
#X obj 699 426 netsend -u -b;
#X obj 699 388 list trim;
#X obj 699 345 list prepend send;
#X obj 715 201 pack i i f;
#X floatatom 785 68 5 0 0 0 - - -;
#X obj 775 100 t b b f;
#X floatatom 664 105 5 0 0 0 - - -;
#X floatatom 708 104 5 0 0 0 - - -;
#X obj 649 168 i;
#X obj 693 168 i;
#X floatatom 611 75 5 0 0 0 - - -;
#X msg 826 392 connect localhost 57120;
#X msg 846 357 disconnect;
#X floatatom 120 124 5 0 0 0 - - -;
#X floatatom 190 124 5 0 0 0 - - -;
#X floatatom 260 124 5 0 0 0 - - -;
#X floatatom 330 124 5 0 0 0 - - -;
#X obj 892 134 oscformat all_silent;
#X obj 680 282 oscformat route speaker;
#X obj 355 871 netsend -u -b;
#X obj 355 833 list trim;
#X obj 355 790 list prepend send;
#X floatatom 438 467 5 0 0 0 - - -;
#X floatatom 546 470 5 0 0 0 - - -;
#X msg 502 802 disconnect;
#X msg 482 837 connect localhost 4002;
#X obj 188 727 oscformat track 1 azim;
#X obj 493 650 pack f f f;
#X obj 495 719 oscformat track 1 aed;
#X obj 438 564 f;
#X obj 547 562 f;
#X obj 613 566 f;
#X floatatom 632 475 5 0 0 0 - - -;
#X obj 532 522 bng 15 250 50 0 empty empty empty 17 7 0 10 -262144
-1 -1;
#X text 433 445 azim;
#X text 542 446 elev;
#X text 627 453 dist;
#X obj 328 560 bang;
#X obj 869 633 vsl 15 128 0 127 0 0 empty empty empty 0 -9 0 10 -262144
-1 -1 0 1;
#X obj 179 505 hsl 128 15 -180 180 0 0 empty empty empty -2 -8 0 10
-232576 -1 -1 12600 1;
#X floatatom 176 525 5 0 0 0 - - -;
#X floatatom 869 769 5 0 0 0 - - -;
#X obj 532 282 oscformat route pi;
#X msg 686 61 2;
#X connect 1 0 9 0;
#X connect 5 0 10 0;
#X connect 6 0 11 0;
#X connect 7 0 12 0;
#X connect 9 0 0 0;
#X connect 10 0 2 0;
#X connect 11 0 3 0;
#X connect 12 0 4 0;
#X connect 13 0 33 0;
#X connect 17 0 16 0;
#X connect 18 0 17 0;
#X connect 19 0 34 0;
#X connect 20 0 21 0;
#X connect 21 0 24 0;
#X connect 21 1 25 0;
#X connect 21 2 19 2;
#X connect 22 0 24 1;
#X connect 23 0 25 1;
#X connect 24 0 19 0;
#X connect 25 0 19 1;
#X connect 26 0 22 0;
#X connect 26 0 23 0;
#X connect 27 0 16 0;
#X connect 28 0 16 0;
#X connect 29 0 1 0;
#X connect 30 0 5 0;
#X connect 31 0 6 0;
#X connect 32 0 7 0;
#X connect 33 0 18 0;
#X connect 34 0 18 0;
#X connect 36 0 35 0;
#X connect 37 0 36 0;
#X connect 38 0 45 0;
#X connect 38 0 49 0;
#X connect 39 0 46 0;
#X connect 39 0 49 0;
#X connect 40 0 35 0;
#X connect 41 0 35 0;
#X connect 42 0 37 0;
#X connect 43 0 44 0;
#X connect 45 0 43 0;
#X connect 46 0 43 1;
#X connect 47 0 43 2;
#X connect 48 0 47 0;
#X connect 48 0 49 0;
#X connect 49 0 46 0;
#X connect 49 0 47 0;
#X connect 49 0 45 0;
#X connect 54 0 57 0;
#X connect 55 0 56 0;
#X connect 59 0 22 0;
#X connect 59 0 23 0;
