#N canvas 0 119 2560 1321 10;
#X obj 21 652 dac~ 1;
#X obj 21 568 osc~ 111;
#X obj 92 652 dac~ 2;
#X obj 162 652 dac~ 3;
#X obj 232 652 dac~ 4;
#X obj 91 568 osc~ 222;
#X obj 161 568 osc~ 333;
#X obj 231 568 osc~ 444;
#X msg 108 26 \; pd dsp 0;
#X obj 21 591 *~ 0.1;
#X obj 91 591 *~ 0.1;
#X obj 161 591 *~ 0.1;
#X obj 231 591 *~ 0.1;
#X obj 1074 201 bng 15 250 50 0 empty empty empty 17 7 0 10 -258113
-1 -1;
#X msg 27 27 \; pd dsp 1;
#X obj 692 407 netsend -u -b;
#X obj 692 369 list trim;
#X obj 692 326 list prepend send;
#X obj 749 186 pack i i f;
#X floatatom 819 53 5 0 0 0 - - -, f 5;
#X obj 809 85 t b b f;
#X floatatom 698 90 5 0 0 0 - - -, f 5;
#X floatatom 742 59 5 0 0 0 - - -, f 5;
#X obj 683 153 i;
#X obj 727 153 i;
#X msg 819 373 connect localhost 57120;
#X msg 839 338 disconnect;
#X floatatom 21 536 5 0 0 0 - - -, f 5;
#X floatatom 91 536 5 0 0 0 - - -, f 5;
#X floatatom 161 536 5 0 0 0 - - -, f 5;
#X floatatom 231 536 5 0 0 0 - - -, f 5;
#X obj 1074 221 oscformat all_silent;
#X obj 348 852 netsend -u -b;
#X obj 348 814 list trim;
#X obj 348 771 list prepend send;
#X floatatom 720 614 5 0 0 0 - - -, f 5;
#X floatatom 828 617 5 0 0 0 - - -, f 5;
#X msg 495 783 disconnect;
#X msg 475 818 connect localhost 4002;
#X obj 181 708 oscformat track 1 azim;
#X obj 775 797 pack f f f;
#X obj 777 866 oscformat track 1 aed;
#X obj 720 711 f;
#X obj 829 709 f;
#X obj 895 713 f;
#X floatatom 914 622 5 0 0 0 - - -, f 5;
#X obj 814 669 bng 15 250 50 0 empty empty empty 17 7 0 10 -262144
-1 -1;
#X text 715 592 azim;
#X text 824 593 elev;
#X text 909 600 dist;
#X obj 321 541 bang;
#X obj 172 486 hsl 128 15 -180 180 0 0 empty empty empty -2 -8 0 10
-232576 -1 -1 0 1;
#X floatatom 169 506 5 0 0 0 - - -, f 5;
#X obj 456 207 oscformat route pi;
#X obj 456 179 pack i i f;
#X floatatom 526 46 5 0 0 0 - - -, f 5;
#X obj 516 78 t b b f;
#X floatatom 405 83 5 0 0 0 - - -, f 5;
#X floatatom 449 52 5 0 0 0 - - -, f 5;
#X obj 390 146 i;
#X obj 434 146 i;
#X text 378 51 set target;
#X text 337 82 set source;
#X text 666 58 set target;
#X text 625 89 set source;
#X obj 749 213 oscformat route binaural;
#X connect 1 0 9 0;
#X connect 5 0 10 0;
#X connect 6 0 11 0;
#X connect 7 0 12 0;
#X connect 9 0 0 0;
#X connect 10 0 2 0;
#X connect 11 0 3 0;
#X connect 12 0 4 0;
#X connect 13 0 31 0;
#X connect 16 0 15 0;
#X connect 17 0 16 0;
#X connect 18 0 65 0;
#X connect 19 0 20 0;
#X connect 20 0 23 0;
#X connect 20 1 24 0;
#X connect 20 2 18 2;
#X connect 21 0 23 1;
#X connect 22 0 24 1;
#X connect 23 0 18 0;
#X connect 24 0 18 1;
#X connect 25 0 15 0;
#X connect 26 0 15 0;
#X connect 27 0 1 0;
#X connect 28 0 5 0;
#X connect 29 0 6 0;
#X connect 30 0 7 0;
#X connect 31 0 17 0;
#X connect 33 0 32 0;
#X connect 34 0 33 0;
#X connect 35 0 42 0;
#X connect 35 0 46 0;
#X connect 36 0 43 0;
#X connect 36 0 46 0;
#X connect 37 0 32 0;
#X connect 38 0 32 0;
#X connect 39 0 34 0;
#X connect 40 0 41 0;
#X connect 42 0 40 0;
#X connect 43 0 40 1;
#X connect 44 0 40 2;
#X connect 45 0 44 0;
#X connect 45 0 46 0;
#X connect 46 0 43 0;
#X connect 46 0 44 0;
#X connect 46 0 42 0;
#X connect 51 0 52 0;
#X connect 53 0 17 0;
#X connect 54 0 53 0;
#X connect 55 0 56 0;
#X connect 56 0 59 0;
#X connect 56 1 60 0;
#X connect 56 2 54 2;
#X connect 57 0 59 1;
#X connect 58 0 60 1;
#X connect 59 0 54 0;
#X connect 60 0 54 1;
#X connect 65 0 17 0;
