#N canvas 95 95 984 553 10;
#X obj 469 509 netsend -u -b;
#X obj 469 471 list trim;
#X obj 468 445 list prepend send;
#X msg 275 468 disconnect;
#X text 165 11 Example patch for controlling send properties of a sound
on the SPRAWL server., f 83;
#X text 274 425 1: connect;
#X text 384 52 Send to access points;
#X msg 275 445 connect 85.214.78.6 57120;
#X floatatom 352 105 5 0 0 0 - - -;
#X text 332 87 Source Index;
#N canvas 238 47 398 578 sub1 0;
#X obj 192 434 oscformat route pi;
#X obj 192 407 pack i i i i f;
#X obj 210 175 t b b b b f;
#X obj 192 457 outlet;
#X text 104 211 Target;
#X obj 39 331 inlet;
#X obj 156 229 1;
#X text 12 311 Source Index;
#X text 104 312 Source Channel;
#X text 232 313 Target Channel;
#X obj 135 333 inlet;
#X obj 249 333 inlet;
#X obj 115 126 vsl 20 60 0 5 0 0 empty empty empty 0 -9 0 10 -203904
-1 -1 0 1;
#X text 110 105 GAIN;
#X text 120 229 1;
#X floatatom 111 194 5 0 5 0 - - -;
#X obj 49 383 i;
#X obj 136 359 i;
#X obj 247 364 i;
#X connect 0 0 3 0;
#X connect 1 0 0 0;
#X connect 2 0 16 0;
#X connect 2 1 17 0;
#X connect 2 2 6 0;
#X connect 2 3 18 0;
#X connect 2 4 1 4;
#X connect 5 0 16 1;
#X connect 6 0 1 2;
#X connect 10 0 17 1;
#X connect 11 0 18 1;
#X connect 12 0 2 0;
#X connect 12 0 15 0;
#X connect 16 0 1 0;
#X connect 17 0 1 1;
#X connect 18 0 1 3;
#X coords 0 -1 1 1 50 150 2 100 100;
#X restore 28 229 pd sub1;
#X floatatom 440 104 5 0 2 0 - - -;
#X text 420 86 Source Channel;
#X floatatom 543 104 5 0 1 0 - - -;
#X text 523 86 Target Channel;
#N canvas 508 47 398 578 sub1 0;
#X obj 192 434 oscformat route pi;
#X obj 192 407 pack i i i i f;
#X obj 210 175 t b b b b f;
#X obj 192 457 outlet;
#X text 104 211 Target;
#X obj 39 331 inlet;
#X text 12 311 Source Index;
#X text 104 312 Source Channel;
#X text 232 313 Target Channel;
#X obj 135 333 inlet;
#X obj 249 333 inlet;
#X obj 115 126 vsl 20 60 0 5 0 0 empty empty empty 0 -9 0 10 -203904
-1 -1 0 1;
#X text 110 105 GAIN;
#X floatatom 111 194 5 0 5 0 - - -;
#X obj 49 383 i;
#X obj 136 359 i;
#X obj 247 364 i;
#X obj 156 229 2;
#X text 120 229 2;
#X connect 0 0 3 0;
#X connect 1 0 0 0;
#X connect 2 0 14 0;
#X connect 2 1 15 0;
#X connect 2 2 17 0;
#X connect 2 3 16 0;
#X connect 2 4 1 4;
#X connect 5 0 14 1;
#X connect 9 0 15 1;
#X connect 10 0 16 1;
#X connect 11 0 2 0;
#X connect 11 0 13 0;
#X connect 14 0 1 0;
#X connect 15 0 1 1;
#X connect 16 0 1 3;
#X connect 17 0 1 2;
#X coords 0 -1 1 1 50 150 2 100 100;
#X restore 88 229 pd sub1;
#N canvas 508 47 398 578 sub1 0;
#X obj 192 434 oscformat route pi;
#X obj 192 407 pack i i i i f;
#X obj 210 175 t b b b b f;
#X obj 192 457 outlet;
#X text 104 211 Target;
#X obj 39 331 inlet;
#X text 12 311 Source Index;
#X text 104 312 Source Channel;
#X text 232 313 Target Channel;
#X obj 135 333 inlet;
#X obj 249 333 inlet;
#X obj 115 126 vsl 20 60 0 5 0 0 empty empty empty 0 -9 0 10 -203904
-1 -1 0 1;
#X text 110 105 GAIN;
#X floatatom 111 194 5 0 5 0 - - -;
#X obj 49 383 i;
#X obj 136 359 i;
#X obj 247 364 i;
#X text 120 229 3;
#X obj 156 229 3;
#X connect 0 0 3 0;
#X connect 1 0 0 0;
#X connect 2 0 14 0;
#X connect 2 1 15 0;
#X connect 2 2 18 0;
#X connect 2 3 16 0;
#X connect 2 4 1 4;
#X connect 5 0 14 1;
#X connect 9 0 15 1;
#X connect 10 0 16 1;
#X connect 11 0 2 0;
#X connect 11 0 13 0;
#X connect 14 0 1 0;
#X connect 15 0 1 1;
#X connect 16 0 1 3;
#X connect 18 0 1 2;
#X coords 0 -1 1 1 50 150 2 100 100;
#X restore 143 229 pd sub1;
#N canvas 508 47 398 578 sub1 0;
#X obj 192 434 oscformat route pi;
#X obj 192 407 pack i i i i f;
#X obj 210 175 t b b b b f;
#X obj 192 457 outlet;
#X text 104 211 Target;
#X obj 39 331 inlet;
#X text 12 311 Source Index;
#X text 104 312 Source Channel;
#X text 232 313 Target Channel;
#X obj 135 333 inlet;
#X obj 249 333 inlet;
#X obj 115 126 vsl 20 60 0 5 0 0 empty empty empty 0 -9 0 10 -203904
-1 -1 0 1;
#X text 110 105 GAIN;
#X floatatom 111 194 5 0 5 0 - - -;
#X obj 49 383 i;
#X obj 136 359 i;
#X obj 247 364 i;
#X text 120 229 4;
#X obj 156 229 4;
#X connect 0 0 3 0;
#X connect 1 0 0 0;
#X connect 2 0 14 0;
#X connect 2 1 15 0;
#X connect 2 2 18 0;
#X connect 2 3 16 0;
#X connect 2 4 1 4;
#X connect 5 0 14 1;
#X connect 9 0 15 1;
#X connect 10 0 16 1;
#X connect 11 0 2 0;
#X connect 11 0 13 0;
#X connect 14 0 1 0;
#X connect 15 0 1 1;
#X connect 16 0 1 3;
#X connect 18 0 1 2;
#X coords 0 -1 1 1 50 150 2 100 100;
#X restore 197 229 pd sub1;
#N canvas 508 47 398 578 sub1 0;
#X obj 192 434 oscformat route pi;
#X obj 192 407 pack i i i i f;
#X obj 210 175 t b b b b f;
#X obj 192 457 outlet;
#X text 104 211 Target;
#X obj 39 331 inlet;
#X text 12 311 Source Index;
#X text 104 312 Source Channel;
#X text 232 313 Target Channel;
#X obj 135 333 inlet;
#X obj 249 333 inlet;
#X obj 115 126 vsl 20 60 0 5 0 0 empty empty empty 0 -9 0 10 -203904
-1 -1 0 1;
#X text 110 105 GAIN;
#X floatatom 111 194 5 0 5 0 - - -;
#X obj 49 383 i;
#X obj 136 359 i;
#X obj 247 364 i;
#X text 120 229 5;
#X obj 155 229 5;
#X connect 0 0 3 0;
#X connect 1 0 0 0;
#X connect 2 0 14 0;
#X connect 2 1 15 0;
#X connect 2 2 18 0;
#X connect 2 3 16 0;
#X connect 2 4 1 4;
#X connect 5 0 14 1;
#X connect 9 0 15 1;
#X connect 10 0 16 1;
#X connect 11 0 2 0;
#X connect 11 0 13 0;
#X connect 14 0 1 0;
#X connect 15 0 1 1;
#X connect 16 0 1 3;
#X connect 18 0 1 2;
#X coords 0 -1 1 1 50 150 2 100 100;
#X restore 251 229 pd sub1;
#N canvas 508 47 398 578 sub1 0;
#X obj 192 434 oscformat route pi;
#X obj 192 407 pack i i i i f;
#X obj 210 175 t b b b b f;
#X obj 192 457 outlet;
#X text 104 211 Target;
#X obj 39 331 inlet;
#X text 12 311 Source Index;
#X text 104 312 Source Channel;
#X text 232 313 Target Channel;
#X obj 135 333 inlet;
#X obj 249 333 inlet;
#X obj 115 126 vsl 20 60 0 5 0 0 empty empty empty 0 -9 0 10 -203904
-1 -1 0 1;
#X text 110 105 GAIN;
#X floatatom 111 194 5 0 5 0 - - -;
#X obj 49 383 i;
#X obj 136 359 i;
#X obj 247 364 i;
#X text 120 229 6;
#X obj 156 229 6;
#X connect 0 0 3 0;
#X connect 1 0 0 0;
#X connect 2 0 14 0;
#X connect 2 1 15 0;
#X connect 2 2 18 0;
#X connect 2 3 16 0;
#X connect 2 4 1 4;
#X connect 5 0 14 1;
#X connect 9 0 15 1;
#X connect 10 0 16 1;
#X connect 11 0 2 0;
#X connect 11 0 13 0;
#X connect 14 0 1 0;
#X connect 15 0 1 1;
#X connect 16 0 1 3;
#X connect 18 0 1 2;
#X coords 0 -1 1 1 50 150 2 100 100;
#X restore 305 229 pd sub1;
#N canvas 508 47 398 578 sub1 0;
#X obj 192 434 oscformat route pi;
#X obj 192 407 pack i i i i f;
#X obj 210 175 t b b b b f;
#X obj 192 457 outlet;
#X text 104 211 Target;
#X obj 39 331 inlet;
#X text 12 311 Source Index;
#X text 104 312 Source Channel;
#X text 232 313 Target Channel;
#X obj 135 333 inlet;
#X obj 249 333 inlet;
#X obj 115 126 vsl 20 60 0 5 0 0 empty empty empty 0 -9 0 10 -203904
-1 -1 0 1;
#X text 110 105 GAIN;
#X floatatom 111 194 5 0 5 0 - - -;
#X obj 49 383 i;
#X obj 136 359 i;
#X obj 247 364 i;
#X text 120 229 7;
#X obj 156 229 7;
#X connect 0 0 3 0;
#X connect 1 0 0 0;
#X connect 2 0 14 0;
#X connect 2 1 15 0;
#X connect 2 2 18 0;
#X connect 2 3 16 0;
#X connect 2 4 1 4;
#X connect 5 0 14 1;
#X connect 9 0 15 1;
#X connect 10 0 16 1;
#X connect 11 0 2 0;
#X connect 11 0 13 0;
#X connect 14 0 1 0;
#X connect 15 0 1 1;
#X connect 16 0 1 3;
#X connect 18 0 1 2;
#X coords 0 -1 1 1 50 150 2 100 100;
#X restore 359 229 pd sub1;
#N canvas 508 47 398 578 sub1 0;
#X obj 192 434 oscformat route pi;
#X obj 192 407 pack i i i i f;
#X obj 210 175 t b b b b f;
#X obj 192 457 outlet;
#X text 104 211 Target;
#X obj 39 331 inlet;
#X text 12 311 Source Index;
#X text 104 312 Source Channel;
#X text 232 313 Target Channel;
#X obj 135 333 inlet;
#X obj 249 333 inlet;
#X obj 115 126 vsl 20 60 0 5 0 0 empty empty empty 0 -9 0 10 -203904
-1 -1 0 1;
#X text 110 105 GAIN;
#X floatatom 111 194 5 0 5 0 - - -;
#X obj 49 383 i;
#X obj 136 359 i;
#X obj 247 364 i;
#X text 120 229 8;
#X obj 156 229 8;
#X connect 0 0 3 0;
#X connect 1 0 0 0;
#X connect 2 0 14 0;
#X connect 2 1 15 0;
#X connect 2 2 18 0;
#X connect 2 3 16 0;
#X connect 2 4 1 4;
#X connect 5 0 14 1;
#X connect 9 0 15 1;
#X connect 10 0 16 1;
#X connect 11 0 2 0;
#X connect 11 0 13 0;
#X connect 14 0 1 0;
#X connect 15 0 1 1;
#X connect 16 0 1 3;
#X connect 18 0 1 2;
#X coords 0 -1 1 1 50 150 2 100 100;
#X restore 413 229 pd sub1;
#N canvas 508 47 398 578 sub1 0;
#X obj 192 434 oscformat route pi;
#X obj 192 407 pack i i i i f;
#X obj 210 175 t b b b b f;
#X obj 192 457 outlet;
#X text 104 211 Target;
#X obj 39 331 inlet;
#X text 12 311 Source Index;
#X text 104 312 Source Channel;
#X text 232 313 Target Channel;
#X obj 135 333 inlet;
#X obj 249 333 inlet;
#X obj 115 126 vsl 20 60 0 5 0 0 empty empty empty 0 -9 0 10 -203904
-1 -1 0 1;
#X text 110 105 GAIN;
#X floatatom 111 194 5 0 5 0 - - -;
#X obj 49 383 i;
#X obj 136 359 i;
#X obj 247 364 i;
#X text 120 229 9;
#X obj 156 229 9;
#X connect 0 0 3 0;
#X connect 1 0 0 0;
#X connect 2 0 14 0;
#X connect 2 1 15 0;
#X connect 2 2 18 0;
#X connect 2 3 16 0;
#X connect 2 4 1 4;
#X connect 5 0 14 1;
#X connect 9 0 15 1;
#X connect 10 0 16 1;
#X connect 11 0 2 0;
#X connect 11 0 13 0;
#X connect 14 0 1 0;
#X connect 15 0 1 1;
#X connect 16 0 1 3;
#X connect 18 0 1 2;
#X coords 0 -1 1 1 50 150 2 100 100;
#X restore 466 229 pd sub1;
#N canvas 508 47 398 578 sub1 0;
#X obj 192 434 oscformat route pi;
#X obj 192 407 pack i i i i f;
#X obj 210 175 t b b b b f;
#X obj 192 457 outlet;
#X text 104 211 Target;
#X obj 39 331 inlet;
#X text 12 311 Source Index;
#X text 104 312 Source Channel;
#X text 232 313 Target Channel;
#X obj 135 333 inlet;
#X obj 249 333 inlet;
#X obj 115 126 vsl 20 60 0 5 0 0 empty empty empty 0 -9 0 10 -203904
-1 -1 0 1;
#X text 110 105 GAIN;
#X floatatom 111 194 5 0 5 0 - - -;
#X obj 49 383 i;
#X obj 136 359 i;
#X obj 247 364 i;
#X text 117 229 10;
#X obj 156 229 10;
#X connect 0 0 3 0;
#X connect 1 0 0 0;
#X connect 2 0 14 0;
#X connect 2 1 15 0;
#X connect 2 2 18 0;
#X connect 2 3 16 0;
#X connect 2 4 1 4;
#X connect 5 0 14 1;
#X connect 9 0 15 1;
#X connect 10 0 16 1;
#X connect 11 0 2 0;
#X connect 11 0 13 0;
#X connect 14 0 1 0;
#X connect 15 0 1 1;
#X connect 16 0 1 3;
#X connect 18 0 1 2;
#X coords 0 -1 1 1 50 150 2 100 100;
#X restore 520 229 pd sub1;
#N canvas 508 47 398 578 sub1 0;
#X obj 192 434 oscformat route pi;
#X obj 192 407 pack i i i i f;
#X obj 210 175 t b b b b f;
#X obj 192 457 outlet;
#X text 104 211 Target;
#X obj 39 331 inlet;
#X text 12 311 Source Index;
#X text 104 312 Source Channel;
#X text 232 313 Target Channel;
#X obj 135 333 inlet;
#X obj 249 333 inlet;
#X obj 115 126 vsl 20 60 0 5 0 0 empty empty empty 0 -9 0 10 -203904
-1 -1 0 1;
#X text 110 105 GAIN;
#X floatatom 111 194 5 0 5 0 - - -;
#X obj 49 383 i;
#X obj 136 359 i;
#X obj 247 364 i;
#X text 118 229 11;
#X obj 156 229 11;
#X connect 0 0 3 0;
#X connect 1 0 0 0;
#X connect 2 0 14 0;
#X connect 2 1 15 0;
#X connect 2 2 18 0;
#X connect 2 3 16 0;
#X connect 2 4 1 4;
#X connect 5 0 14 1;
#X connect 9 0 15 1;
#X connect 10 0 16 1;
#X connect 11 0 2 0;
#X connect 11 0 13 0;
#X connect 14 0 1 0;
#X connect 15 0 1 1;
#X connect 16 0 1 3;
#X connect 18 0 1 2;
#X coords 0 -1 1 1 50 150 2 100 100;
#X restore 573 229 pd sub1;
#N canvas 508 47 398 578 sub1 0;
#X obj 192 434 oscformat route pi;
#X obj 192 407 pack i i i i f;
#X obj 210 175 t b b b b f;
#X obj 192 457 outlet;
#X text 104 211 Target;
#X obj 39 331 inlet;
#X text 12 311 Source Index;
#X text 104 312 Source Channel;
#X text 232 313 Target Channel;
#X obj 135 333 inlet;
#X obj 249 333 inlet;
#X obj 115 126 vsl 20 60 0 5 0 0 empty empty empty 0 -9 0 10 -203904
-1 -1 0 1;
#X text 110 105 GAIN;
#X floatatom 111 194 5 0 5 0 - - -;
#X obj 49 383 i;
#X obj 136 359 i;
#X obj 247 364 i;
#X text 118 229 12;
#X obj 156 229 12;
#X connect 0 0 3 0;
#X connect 1 0 0 0;
#X connect 2 0 14 0;
#X connect 2 1 15 0;
#X connect 2 2 18 0;
#X connect 2 3 16 0;
#X connect 2 4 1 4;
#X connect 5 0 14 1;
#X connect 9 0 15 1;
#X connect 10 0 16 1;
#X connect 11 0 2 0;
#X connect 11 0 13 0;
#X connect 14 0 1 0;
#X connect 15 0 1 1;
#X connect 16 0 1 3;
#X connect 18 0 1 2;
#X coords 0 -1 1 1 50 150 2 100 100;
#X restore 626 229 pd sub1;
#N canvas 508 47 398 578 sub1 0;
#X obj 192 434 oscformat route pi;
#X obj 192 407 pack i i i i f;
#X obj 210 175 t b b b b f;
#X obj 192 457 outlet;
#X text 104 211 Target;
#X obj 39 331 inlet;
#X text 12 311 Source Index;
#X text 104 312 Source Channel;
#X text 232 313 Target Channel;
#X obj 135 333 inlet;
#X obj 249 333 inlet;
#X obj 115 126 vsl 20 60 0 5 0 0 empty empty empty 0 -9 0 10 -203904
-1 -1 0 1;
#X text 110 105 GAIN;
#X floatatom 111 194 5 0 5 0 - - -;
#X obj 49 383 i;
#X obj 136 359 i;
#X obj 247 364 i;
#X text 117 229 13;
#X obj 156 229 13;
#X connect 0 0 3 0;
#X connect 1 0 0 0;
#X connect 2 0 14 0;
#X connect 2 1 15 0;
#X connect 2 2 18 0;
#X connect 2 3 16 0;
#X connect 2 4 1 4;
#X connect 5 0 14 1;
#X connect 9 0 15 1;
#X connect 10 0 16 1;
#X connect 11 0 2 0;
#X connect 11 0 13 0;
#X connect 14 0 1 0;
#X connect 15 0 1 1;
#X connect 16 0 1 3;
#X connect 18 0 1 2;
#X coords 0 -1 1 1 50 150 2 100 100;
#X restore 679 229 pd sub1;
#N canvas 508 47 398 578 sub1 0;
#X obj 192 434 oscformat route pi;
#X obj 192 407 pack i i i i f;
#X obj 210 175 t b b b b f;
#X obj 192 457 outlet;
#X text 104 211 Target;
#X obj 39 331 inlet;
#X text 12 311 Source Index;
#X text 104 312 Source Channel;
#X text 232 313 Target Channel;
#X obj 135 333 inlet;
#X obj 249 333 inlet;
#X obj 115 126 vsl 20 60 0 5 0 0 empty empty empty 0 -9 0 10 -203904
-1 -1 0 1;
#X text 110 105 GAIN;
#X floatatom 111 194 5 0 5 0 - - -;
#X obj 49 383 i;
#X obj 136 359 i;
#X obj 247 364 i;
#X text 117 229 14;
#X obj 156 229 14;
#X connect 0 0 3 0;
#X connect 1 0 0 0;
#X connect 2 0 14 0;
#X connect 2 1 15 0;
#X connect 2 2 18 0;
#X connect 2 3 16 0;
#X connect 2 4 1 4;
#X connect 5 0 14 1;
#X connect 9 0 15 1;
#X connect 10 0 16 1;
#X connect 11 0 2 0;
#X connect 11 0 13 0;
#X connect 14 0 1 0;
#X connect 15 0 1 1;
#X connect 16 0 1 3;
#X connect 18 0 1 2;
#X coords 0 -1 1 1 50 150 2 100 100;
#X restore 732 229 pd sub1;
#N canvas 508 47 398 578 sub1 0;
#X obj 192 434 oscformat route pi;
#X obj 192 407 pack i i i i f;
#X obj 210 175 t b b b b f;
#X obj 192 457 outlet;
#X text 104 211 Target;
#X obj 39 331 inlet;
#X text 12 311 Source Index;
#X text 104 312 Source Channel;
#X text 232 313 Target Channel;
#X obj 135 333 inlet;
#X obj 249 333 inlet;
#X obj 115 126 vsl 20 60 0 5 0 0 empty empty empty 0 -9 0 10 -203904
-1 -1 0 1;
#X text 110 105 GAIN;
#X floatatom 111 194 5 0 5 0 - - -;
#X obj 49 383 i;
#X obj 136 359 i;
#X obj 247 364 i;
#X text 117 229 15;
#X obj 156 229 15;
#X connect 0 0 3 0;
#X connect 1 0 0 0;
#X connect 2 0 14 0;
#X connect 2 1 15 0;
#X connect 2 2 18 0;
#X connect 2 3 16 0;
#X connect 2 4 1 4;
#X connect 5 0 14 1;
#X connect 9 0 15 1;
#X connect 10 0 16 1;
#X connect 11 0 2 0;
#X connect 11 0 13 0;
#X connect 14 0 1 0;
#X connect 15 0 1 1;
#X connect 16 0 1 3;
#X connect 18 0 1 2;
#X coords 0 -1 1 1 50 150 2 100 100;
#X restore 786 229 pd sub1;
#N canvas 508 47 398 578 sub1 0;
#X obj 192 434 oscformat route pi;
#X obj 192 407 pack i i i i f;
#X obj 210 175 t b b b b f;
#X obj 192 457 outlet;
#X text 104 211 Target;
#X obj 39 331 inlet;
#X text 12 311 Source Index;
#X text 104 312 Source Channel;
#X text 232 313 Target Channel;
#X obj 135 333 inlet;
#X obj 249 333 inlet;
#X obj 115 126 vsl 20 60 0 5 0 0 empty empty empty 0 -9 0 10 -203904
-1 -1 0 1;
#X text 110 105 GAIN;
#X floatatom 111 194 5 0 5 0 - - -;
#X obj 49 383 i;
#X obj 136 359 i;
#X obj 247 364 i;
#X text 117 229 16;
#X obj 156 229 16;
#X connect 0 0 3 0;
#X connect 1 0 0 0;
#X connect 2 0 14 0;
#X connect 2 1 15 0;
#X connect 2 2 18 0;
#X connect 2 3 16 0;
#X connect 2 4 1 4;
#X connect 5 0 14 1;
#X connect 9 0 15 1;
#X connect 10 0 16 1;
#X connect 11 0 2 0;
#X connect 11 0 13 0;
#X connect 14 0 1 0;
#X connect 15 0 1 1;
#X connect 16 0 1 3;
#X connect 18 0 1 2;
#X coords 0 -1 1 1 50 150 2 100 100;
#X restore 840 229 pd sub1;
#X connect 1 0 0 0;
#X connect 2 0 1 0;
#X connect 3 0 0 0;
#X connect 7 0 0 0;
#X connect 8 0 10 0;
#X connect 8 0 15 0;
#X connect 8 0 16 0;
#X connect 8 0 17 0;
#X connect 8 0 18 0;
#X connect 8 0 19 0;
#X connect 8 0 20 0;
#X connect 8 0 21 0;
#X connect 8 0 22 0;
#X connect 8 0 23 0;
#X connect 8 0 24 0;
#X connect 8 0 25 0;
#X connect 8 0 26 0;
#X connect 8 0 27 0;
#X connect 8 0 28 0;
#X connect 8 0 29 0;
#X connect 10 0 2 0;
#X connect 11 0 10 1;
#X connect 11 0 15 1;
#X connect 11 0 16 1;
#X connect 11 0 17 1;
#X connect 11 0 18 1;
#X connect 11 0 19 1;
#X connect 11 0 20 1;
#X connect 11 0 21 1;
#X connect 11 0 22 1;
#X connect 11 0 23 1;
#X connect 11 0 24 1;
#X connect 11 0 25 1;
#X connect 11 0 26 1;
#X connect 11 0 27 1;
#X connect 11 0 28 1;
#X connect 11 0 29 1;
#X connect 13 0 10 2;
#X connect 13 0 15 2;
#X connect 13 0 16 2;
#X connect 13 0 17 2;
#X connect 13 0 18 2;
#X connect 13 0 19 2;
#X connect 13 0 20 2;
#X connect 13 0 21 2;
#X connect 13 0 22 2;
#X connect 13 0 23 2;
#X connect 13 0 24 2;
#X connect 13 0 25 2;
#X connect 13 0 26 2;
#X connect 13 0 27 2;
#X connect 13 0 28 2;
#X connect 13 0 29 2;
#X connect 15 0 2 0;
#X connect 16 0 2 0;
#X connect 17 0 2 0;
#X connect 18 0 2 0;
#X connect 19 0 2 0;
#X connect 20 0 2 0;
#X connect 21 0 2 0;
#X connect 22 0 2 0;
#X connect 23 0 2 0;
#X connect 24 0 2 0;
#X connect 25 0 2 0;
#X connect 26 0 2 0;
#X connect 27 0 2 0;
#X connect 28 0 2 0;
#X connect 29 0 2 0;
