#N canvas 1 119 628 353 10;
#N canvas 0 25 1280 747 sub2 0;
#X obj 824 338 list trim;
#X obj 823 312 list prepend send;
#N canvas 0 25 1280 747 sub2 0;
#X floatatom 103 197 5 0 5 0 - - -, f 5;
#X floatatom 104 239 5 0 0 0 - - -, f 5;
#X obj 227 299 i;
#X obj 235 379 oscformat route spatial;
#X obj 235 352 pack i i i f;
#X floatatom 274 320 5 0 0 0 - - -, f 5;
#X obj 293 246 t b b b f;
#X obj 235 402 outlet;
#X text 193 282 target source;
#X text 267 303 channel;
#X obj 112 120 vsl 15 70 0 5 0 0 empty empty empty 0 -9 0 10 -203904
-1 -1 0 1;
#X text 103 100 GAIN;
#X text 112 214 0;
#X obj 93 57 inlet;
#X connect 0 0 6 0;
#X connect 0 0 10 0;
#X connect 1 0 2 1;
#X connect 1 0 4 0;
#X connect 2 0 4 2;
#X connect 3 0 7 0;
#X connect 4 0 3 0;
#X connect 5 0 4 1;
#X connect 6 0 1 0;
#X connect 6 1 2 0;
#X connect 6 2 5 0;
#X connect 6 3 4 3;
#X connect 10 0 0 0;
#X connect 13 0 10 0;
#X coords 0 -1 1 1 38 133 2 100 100;
#X restore 108 180 pd sub2;
#X text 106 312 Source Index;
#N canvas 0 25 1280 747 sub2 0;
#X floatatom 103 197 5 0 5 0 - - -, f 5;
#X obj 198 296 i;
#X obj 206 376 oscformat route spatial;
#X obj 206 349 pack i i i f;
#X floatatom 245 317 5 0 0 0 - - -, f 5;
#X obj 264 243 t b b b f;
#X obj 206 399 outlet;
#X text 164 279 target source;
#X text 238 300 channel;
#X obj 112 120 vsl 15 70 0 5 0 0 empty empty empty 0 -9 0 10 -203904
-1 -1 0 1;
#X text 103 100 GAIN;
#X text 112 214 1;
#X obj 109 239 1;
#X obj 99 72 inlet;
#X connect 0 0 5 0;
#X connect 0 0 9 0;
#X connect 1 0 3 2;
#X connect 2 0 6 0;
#X connect 3 0 2 0;
#X connect 4 0 3 1;
#X connect 5 0 12 0;
#X connect 5 1 1 0;
#X connect 5 2 4 0;
#X connect 5 3 3 3;
#X connect 9 0 0 0;
#X connect 12 0 1 1;
#X connect 12 0 3 0;
#X connect 13 0 9 0;
#X coords 0 -1 1 1 38 133 2 100 100;
#X restore 149 180 pd sub2;
#N canvas 0 25 1280 747 sub2 0;
#X floatatom 103 197 5 0 5 0 - - -, f 5;
#X obj 198 293 i;
#X obj 206 373 oscformat route spatial;
#X obj 206 346 pack i i i f;
#X floatatom 245 314 5 0 0 0 - - -, f 5;
#X obj 264 240 t b b b f;
#X obj 206 396 outlet;
#X text 164 276 target source;
#X text 238 297 channel;
#X obj 112 120 vsl 15 70 0 5 0 0 empty empty empty 0 -9 0 10 -203904
-1 -1 0 1;
#X text 103 100 GAIN;
#X text 112 214 2;
#X obj 109 236 2;
#X obj 99 72 inlet;
#X connect 0 0 5 0;
#X connect 0 0 9 0;
#X connect 1 0 3 2;
#X connect 2 0 6 0;
#X connect 3 0 2 0;
#X connect 4 0 3 1;
#X connect 5 0 12 0;
#X connect 5 1 1 0;
#X connect 5 2 4 0;
#X connect 5 3 3 3;
#X connect 9 0 0 0;
#X connect 12 0 1 1;
#X connect 12 0 3 0;
#X connect 13 0 9 0;
#X coords 0 -1 1 1 38 133 2 100 100;
#X restore 189 180 pd sub2;
#N canvas 0 25 1280 747 sub2 0;
#X floatatom 103 197 5 0 5 0 - - -, f 5;
#X obj 196 293 i;
#X obj 204 373 oscformat route spatial;
#X obj 204 346 pack i i i f;
#X floatatom 243 314 5 0 0 0 - - -, f 5;
#X obj 262 240 t b b b f;
#X obj 204 396 outlet;
#X text 162 276 target source;
#X text 236 297 channel;
#X obj 112 120 vsl 15 70 0 5 0 0 empty empty empty 0 -9 0 10 -203904
-1 -1 0 1;
#X text 103 100 GAIN;
#X text 112 214 3;
#X obj 107 236 3;
#X obj 104 63 inlet;
#X connect 0 0 5 0;
#X connect 0 0 9 0;
#X connect 1 0 3 2;
#X connect 2 0 6 0;
#X connect 3 0 2 0;
#X connect 4 0 3 1;
#X connect 5 0 12 0;
#X connect 5 1 1 0;
#X connect 5 2 4 0;
#X connect 5 3 3 3;
#X connect 9 0 0 0;
#X connect 12 0 1 1;
#X connect 12 0 3 0;
#X connect 13 0 9 0;
#X coords 0 -1 1 1 38 133 2 100 100;
#X restore 229 179 pd sub2;
#N canvas 0 25 1280 747 sub2 0;
#X floatatom 103 197 5 0 5 0 - - -, f 5;
#X obj 197 294 i;
#X obj 205 374 oscformat route spatial;
#X obj 205 347 pack i i i f;
#X floatatom 244 315 5 0 0 0 - - -, f 5;
#X obj 263 241 t b b b f;
#X obj 205 397 outlet;
#X text 163 277 target source;
#X text 237 298 channel;
#X obj 112 120 vsl 15 70 0 5 0 0 empty empty empty 0 -9 0 10 -203904
-1 -1 0 1;
#X text 103 100 GAIN;
#X text 112 214 4;
#X obj 108 237 4;
#X obj 99 76 inlet;
#X connect 0 0 5 0;
#X connect 0 0 9 0;
#X connect 1 0 3 2;
#X connect 2 0 6 0;
#X connect 3 0 2 0;
#X connect 4 0 3 1;
#X connect 5 0 12 0;
#X connect 5 1 1 0;
#X connect 5 2 4 0;
#X connect 5 3 3 3;
#X connect 9 0 0 0;
#X connect 12 0 1 1;
#X connect 12 0 3 0;
#X connect 13 0 9 0;
#X coords 0 -1 1 1 38 133 2 100 100;
#X restore 269 179 pd sub2;
#N canvas 0 25 1280 747 sub2 0;
#X floatatom 103 197 5 0 5 0 - - -, f 5;
#X obj 199 294 i;
#X obj 207 374 oscformat route spatial;
#X obj 207 347 pack i i i f;
#X floatatom 246 315 5 0 0 0 - - -, f 5;
#X obj 265 241 t b b b f;
#X obj 207 397 outlet;
#X text 165 277 target source;
#X text 239 298 channel;
#X obj 112 120 vsl 15 70 0 5 0 0 empty empty empty 0 -9 0 10 -203904
-1 -1 0 1;
#X text 103 100 GAIN;
#X text 112 214 5;
#X obj 110 237 5;
#X obj 98 80 inlet;
#X connect 0 0 5 0;
#X connect 0 0 9 0;
#X connect 1 0 3 2;
#X connect 2 0 6 0;
#X connect 3 0 2 0;
#X connect 4 0 3 1;
#X connect 5 0 12 0;
#X connect 5 1 1 0;
#X connect 5 2 4 0;
#X connect 5 3 3 3;
#X connect 9 0 0 0;
#X connect 12 0 1 1;
#X connect 12 0 3 0;
#X connect 13 0 9 0;
#X coords 0 -1 1 1 38 133 2 100 100;
#X restore 309 179 pd sub2;
#N canvas 0 25 1280 747 sub2 0;
#X floatatom 103 197 5 0 5 0 - - -, f 5;
#X obj 196 292 i;
#X obj 204 372 oscformat route spatial;
#X obj 204 345 pack i i i f;
#X floatatom 243 313 5 0 0 0 - - -, f 5;
#X obj 262 239 t b b b f;
#X obj 204 395 outlet;
#X text 162 275 target source;
#X text 236 296 channel;
#X obj 112 120 vsl 15 70 0 5 0 0 empty empty empty 0 -9 0 10 -203904
-1 -1 0 1;
#X text 103 100 GAIN;
#X text 112 214 6;
#X obj 107 235 6;
#X obj 102 74 inlet;
#X connect 0 0 5 0;
#X connect 0 0 9 0;
#X connect 1 0 3 2;
#X connect 2 0 6 0;
#X connect 3 0 2 0;
#X connect 4 0 3 1;
#X connect 5 0 12 0;
#X connect 5 1 1 0;
#X connect 5 2 4 0;
#X connect 5 3 3 3;
#X connect 9 0 0 0;
#X connect 12 0 1 1;
#X connect 12 0 3 0;
#X connect 13 0 9 0;
#X coords 0 -1 1 1 38 133 2 100 100;
#X restore 349 179 pd sub2;
#N canvas 0 25 1280 747 sub2 0;
#X floatatom 103 197 5 0 5 0 - - -, f 5;
#X obj 199 294 i;
#X obj 207 374 oscformat route spatial;
#X obj 207 347 pack i i i f;
#X floatatom 246 315 5 0 0 0 - - -, f 5;
#X obj 265 241 t b b b f;
#X obj 207 397 outlet;
#X text 165 277 target source;
#X text 239 298 channel;
#X obj 112 120 vsl 15 70 0 5 0 0 empty empty empty 0 -9 0 10 -203904
-1 -1 0 1;
#X text 103 100 GAIN;
#X text 112 214 7;
#X obj 110 237 7;
#X obj 95 80 inlet;
#X connect 0 0 5 0;
#X connect 0 0 9 0;
#X connect 1 0 3 2;
#X connect 2 0 6 0;
#X connect 3 0 2 0;
#X connect 4 0 3 1;
#X connect 5 0 12 0;
#X connect 5 1 1 0;
#X connect 5 2 4 0;
#X connect 5 3 3 3;
#X connect 9 0 0 0;
#X connect 12 0 1 1;
#X connect 12 0 3 0;
#X connect 13 0 9 0;
#X coords 0 -1 1 1 38 133 2 100 100;
#X restore 389 179 pd sub2;
#N canvas 0 25 1280 747 sub2 0;
#X floatatom 103 197 5 0 5 0 - - -, f 5;
#X obj 197 293 i;
#X obj 205 373 oscformat route spatial;
#X obj 205 346 pack i i i f;
#X floatatom 244 314 5 0 0 0 - - -, f 5;
#X obj 263 240 t b b b f;
#X obj 205 396 outlet;
#X text 163 276 target source;
#X text 237 297 channel;
#X obj 112 120 vsl 15 70 0 5 0 0 empty empty empty 0 -9 0 10 -203904
-1 -1 0 1;
#X text 103 100 GAIN;
#X text 112 214 8;
#X obj 108 236 8;
#X obj 96 79 inlet;
#X connect 0 0 5 0;
#X connect 0 0 9 0;
#X connect 1 0 3 2;
#X connect 2 0 6 0;
#X connect 3 0 2 0;
#X connect 4 0 3 1;
#X connect 5 0 12 0;
#X connect 5 1 1 0;
#X connect 5 2 4 0;
#X connect 5 3 3 3;
#X connect 9 0 0 0;
#X connect 12 0 1 1;
#X connect 12 0 3 0;
#X connect 13 0 9 0;
#X coords 0 -1 1 1 38 133 2 100 100;
#X restore 429 179 pd sub2;
#N canvas 0 25 1280 747 sub2 0;
#X floatatom 103 197 5 0 5 0 - - -, f 5;
#X obj 193 297 i;
#X obj 201 377 oscformat route spatial;
#X obj 201 350 pack i i i f;
#X floatatom 240 318 5 0 0 0 - - -, f 5;
#X obj 259 244 t b b b f;
#X obj 201 400 outlet;
#X text 159 280 target source;
#X text 233 301 channel;
#X obj 112 120 vsl 15 70 0 5 0 0 empty empty empty 0 -9 0 10 -203904
-1 -1 0 1;
#X text 103 100 GAIN;
#X text 112 214 9;
#X obj 108 238 9;
#X obj 97 77 inlet;
#X connect 0 0 5 0;
#X connect 0 0 9 0;
#X connect 1 0 3 2;
#X connect 2 0 6 0;
#X connect 3 0 2 0;
#X connect 4 0 3 1;
#X connect 5 0 12 0;
#X connect 5 1 1 0;
#X connect 5 2 4 0;
#X connect 5 3 3 3;
#X connect 9 0 0 0;
#X connect 12 0 1 1;
#X connect 12 0 3 0;
#X connect 13 0 9 0;
#X coords 0 -1 1 1 38 133 2 100 100;
#X restore 469 179 pd sub2;
#N canvas 0 25 1280 747 sub2 0;
#X floatatom 103 197 5 0 5 0 - - -, f 5;
#X obj 198 293 i;
#X obj 206 373 oscformat route spatial;
#X obj 206 346 pack i i i f;
#X floatatom 245 314 5 0 0 0 - - -, f 5;
#X obj 264 240 t b b b f;
#X obj 206 396 outlet;
#X text 164 276 target source;
#X text 238 297 channel;
#X obj 112 120 vsl 15 70 0 5 0 0 empty empty empty 0 -9 0 10 -203904
-1 -1 0 1;
#X text 103 100 GAIN;
#X text 112 214 10;
#X obj 109 236 10;
#X obj 94 78 inlet;
#X connect 0 0 5 0;
#X connect 0 0 9 0;
#X connect 1 0 3 2;
#X connect 2 0 6 0;
#X connect 3 0 2 0;
#X connect 4 0 3 1;
#X connect 5 0 12 0;
#X connect 5 1 1 0;
#X connect 5 2 4 0;
#X connect 5 3 3 3;
#X connect 9 0 0 0;
#X connect 12 0 1 1;
#X connect 12 0 3 0;
#X connect 13 0 9 0;
#X coords 0 -1 1 1 38 133 2 100 100;
#X restore 509 179 pd sub2;
#X obj 718 296 metro 500;
#X obj 450 357 tgl 15 0 empty empty empty 17 7 0 10 -262130 -1 -1 0
1;
#X text 121 106 Patch for controlling gains of all sources. Sending
continously but not receiving... yet., f 94;
#X text 311 352 2: activate continous gain sends, f 21;
#X obj 824 373 outlet;
#X obj 126 68 inlet;
#X obj 174 68 netreceive;
#X text 258 69 Receive gains how...?;
#X obj 318 142 bng 15 250 50 0 empty empty empty 17 7 0 10 -204786
-1 -1;
#X obj 45 162 1;
#X text 295 125 Unmute all;
#X text 379 126 Mute all;
#X obj 394 142 bng 15 250 50 0 empty empty empty 17 7 0 10 -261234
-1 -1;
#X obj 74 162 0;
#X connect 0 0 18 0;
#X connect 1 0 0 0;
#X connect 2 0 1 0;
#X connect 4 0 1 0;
#X connect 5 0 1 0;
#X connect 6 0 1 0;
#X connect 7 0 1 0;
#X connect 8 0 1 0;
#X connect 9 0 1 0;
#X connect 10 0 1 0;
#X connect 11 0 1 0;
#X connect 12 0 1 0;
#X connect 13 0 1 0;
#X connect 14 0 1 0;
#X connect 15 0 14 0;
#X connect 22 0 23 0;
#X connect 23 0 2 0;
#X connect 23 0 4 0;
#X connect 23 0 5 0;
#X connect 23 0 6 0;
#X connect 23 0 7 0;
#X connect 23 0 8 0;
#X connect 23 0 9 0;
#X connect 23 0 10 0;
#X connect 23 0 11 0;
#X connect 23 0 12 0;
#X connect 23 0 13 0;
#X connect 26 0 27 0;
#X connect 27 0 2 0;
#X connect 27 0 4 0;
#X connect 27 0 5 0;
#X connect 27 0 6 0;
#X connect 27 0 7 0;
#X connect 27 0 8 0;
#X connect 27 0 9 0;
#X connect 27 0 10 0;
#X connect 27 0 11 0;
#X connect 27 0 12 0;
#X connect 27 0 13 0;
#X coords 0 -1 1 1 600 300 2 100 100;
#X restore 8 11 pd sub2;
#X obj 9 321 netsend -u -b;
#X msg 27 288 disconnect;
#X text 25 252 1: connect;
#X msg 27 268 connect 85.214.78.6 57120;
#X connect 0 0 1 0;
#X connect 2 0 1 0;
#X connect 4 0 1 0;
