#N canvas 45 23 1440 794 10;
#X obj 224 445 netsend -u -b;
#X obj 224 407 list trim;
#X obj 223 381 list prepend send;
#X msg 29 442 disconnect;
#X text 146 14 Example patch for controlling send properties of a sound
on the SPRAWL server., f 83;
#X text 28 399 1: connect;
#N canvas 0 23 1440 794 sub1 0;
#X obj 192 384 oscformat route pi;
#X floatatom 362 132 5 0 0 0 - - -;
#X floatatom 117 166 5 0 0 0 - - -;
#X obj 146 192 i;
#X floatatom 145 239 5 0 0 0 - - -;
#X obj 132 274 i;
#X text 124 210 set channel;
#X obj 192 357 pack i i i i f;
#X obj 203 32 t b b b b f;
#X floatatom 245 167 5 0 0 0 - - -;
#X obj 284 167 i;
#X floatatom 244 241 5 0 0 0 - - -;
#X obj 300 242 i;
#X text 225 212 set channel;
#X obj 192 407 outlet;
#X text 198 110 2: set arguments;
#X text 112 145 set source index;
#X text 227 145 set target index;
#X text 338 112 3: Set GAIN;
#X obj 611 634 oscformat route pi;
#X floatatom 483 283 5 0 0 0 - - -;
#X obj 443 445 i;
#X floatatom 555 423 5 0 0 0 - - -;
#X obj 518 458 i;
#X text 543 460 set channel;
#X obj 611 607 pack i i i i f;
#X floatatom 659 431 5 0 0 0 - - -;
#X obj 642 469 i;
#X floatatom 782 434 5 0 0 0 - - -;
#X obj 753 464 i;
#X obj 611 657 outlet;
#X text 413 399 set source index;
#X text 612 411 set target index;
#X text 876 442 3: Set GAIN;
#X floatatom 839 442 5 0 0 0 - - -;
#X text 723 325;
#X text 630 32;
#X obj 652 26 bng 15 250 50 0 empty empty empty 17 7 0 10 -262144 -1
-1;
#X obj 699 470 + 1;
#X floatatom 845 73 5 0 0 0 - - -;
#X obj 798 174 i;
#X obj 855 175 + 1;
#X obj 789 27 > 10;
#X msg 749 95 stop;
#X obj 748 73 sel 1;
#X obj 556 181 0;
#X obj 551 117 t b b;
#X floatatom 644 517 5 0 0 0 - - -;
#X msg 846 398 1;
#X obj 874 377 loadbang;
#X obj 837 488 i;
#X obj 622 281 t b b b b b;
#X obj 1125 628 oscformat route pi;
#X floatatom 1021 389 5 0 0 0 - - -;
#X obj 984 421 i;
#X floatatom 1102 421 5 0 0 0 - - -;
#X obj 1050 422 i;
#X text 1057 454 set channel;
#X obj 1125 601 pack i i i i f;
#X floatatom 1173 425 5 0 0 0 - - -;
#X obj 1156 463 i;
#X floatatom 1316 428 5 0 0 0 - - -;
#X obj 1287 458 i;
#X text 1330 455 set channel;
#X obj 1125 651 outlet;
#X text 964 368 set source index;
#X text 1126 405 set target index;
#X text 1444 421 3: Set GAIN;
#X floatatom 1407 421 5 0 0 0 - - -;
#X text 1237 319 comment;
#X obj 1213 464 + 1;
#X floatatom 1158 511 5 0 0 0 - - -;
#X msg 1414 377 1;
#X obj 1442 356 loadbang;
#X obj 1405 467 i;
#X obj 1122 251 t b b b b b;
#X text 796 461;
#X obj 670 155 metro 50;
#X connect 0 0 14 0;
#X connect 1 0 8 0;
#X connect 2 0 3 1;
#X connect 3 0 7 0;
#X connect 4 0 5 1;
#X connect 5 0 7 1;
#X connect 7 0 0 0;
#X connect 8 0 3 0;
#X connect 8 1 5 0;
#X connect 8 2 10 0;
#X connect 8 3 12 0;
#X connect 8 4 7 4;
#X connect 9 0 10 1;
#X connect 10 0 7 2;
#X connect 11 0 12 1;
#X connect 12 0 7 3;
#X connect 19 0 30 0;
#X connect 20 0 21 1;
#X connect 20 0 53 0;
#X connect 21 0 25 0;
#X connect 22 0 23 1;
#X connect 23 0 25 1;
#X connect 25 0 19 0;
#X connect 26 0 27 1;
#X connect 27 0 38 0;
#X connect 27 0 47 0;
#X connect 28 0 29 1;
#X connect 29 0 25 3;
#X connect 34 0 50 0;
#X connect 37 0 46 0;
#X connect 38 0 26 0;
#X connect 39 0 40 1;
#X connect 39 0 42 0;
#X connect 40 0 41 0;
#X connect 41 0 39 0;
#X connect 42 0 44 0;
#X connect 43 0 77 0;
#X connect 44 0 43 0;
#X connect 45 0 26 0;
#X connect 45 0 39 0;
#X connect 45 0 59 0;
#X connect 46 0 77 0;
#X connect 46 1 45 0;
#X connect 47 0 25 2;
#X connect 48 0 34 0;
#X connect 49 0 48 0;
#X connect 50 0 25 4;
#X connect 51 0 21 0;
#X connect 51 1 23 0;
#X connect 51 2 27 0;
#X connect 51 3 29 0;
#X connect 51 4 34 0;
#X connect 52 0 64 0;
#X connect 53 0 54 1;
#X connect 54 0 58 0;
#X connect 55 0 56 1;
#X connect 56 0 58 1;
#X connect 58 0 52 0;
#X connect 59 0 60 1;
#X connect 60 0 70 0;
#X connect 60 0 71 0;
#X connect 61 0 62 1;
#X connect 62 0 58 3;
#X connect 68 0 74 0;
#X connect 70 0 59 0;
#X connect 71 0 58 2;
#X connect 72 0 68 0;
#X connect 72 0 61 0;
#X connect 72 0 55 0;
#X connect 73 0 72 0;
#X connect 74 0 58 4;
#X connect 75 0 54 0;
#X connect 75 1 56 0;
#X connect 75 2 60 0;
#X connect 75 3 62 0;
#X connect 75 4 68 0;
#X connect 77 0 40 0;
#X connect 77 0 51 0;
#X connect 77 0 75 0;
#X coords 0 -1 1 1 338 171 2 100 100;
#X restore 21 63 pd sub1;
#N canvas 0 119 2560 1321 sub2 0;
#X floatatom 369 134 5 0 0 0 - - -;
#X floatatom 148 161 5 0 0 0 - - -;
#X floatatom 278 197 5 0 0 0 - - -;
#X obj 172 178 i;
#X obj 324 219 i;
#X obj 286 299 oscformat route spatial;
#X obj 286 272 pack i i i f;
#X floatatom 148 235 5 0 0 0 - - -;
#X obj 151 259 i;
#X text 128 216 set channel;
#X obj 406 171 t b b b f;
#X obj 286 322 outlet;
#X text 117 136 set source index;
#X text 245 172 set target source;
#X text 356 111 Set GAIN;
#X connect 0 0 10 0;
#X connect 1 0 3 1;
#X connect 2 0 4 1;
#X connect 3 0 6 0;
#X connect 4 0 6 2;
#X connect 5 0 11 0;
#X connect 6 0 5 0;
#X connect 7 0 8 1;
#X connect 8 0 6 1;
#X connect 10 0 3 0;
#X connect 10 1 4 0;
#X connect 10 2 8 0;
#X connect 10 3 6 3;
#X coords 0 -1 1 1 331 171 2 100 100;
#X restore 366 63 pd sub2;
#X text 116 41 Send to access points;
#X text 481 40 Send to sptialization;
#N canvas 0 119 2560 1321 sub2 0;
#X floatatom 140 196 5 0 0 0 - - -;
#X floatatom 139 137 5 0 0 0 - - -;
#X obj 230 185 i;
#X obj 286 356 outlet;
#X text 127 173 Set GAIN;
#X obj 286 306 pack i f;
#X text 108 112 set access point index;
#X obj 159 287 t b f;
#X obj 286 333 oscformat monitor gain;
#X connect 0 0 7 0;
#X connect 1 0 2 1;
#X connect 2 0 5 0;
#X connect 5 0 8 0;
#X connect 7 0 2 0;
#X connect 7 1 5 1;
#X connect 8 0 3 0;
#X coords 0 -1 1 1 160 133 2 100 100;
#X restore 368 246 pd sub2;
#N canvas 0 119 2560 1321 sub2 0;
#X floatatom 139 137 5 0 0 0 - - -;
#X obj 232 211 i;
#X obj 286 356 outlet;
#X obj 286 306 pack i f;
#X text 108 112 set access point index;
#X obj 159 287 t b f;
#X obj 286 333 oscformat monitor mono;
#X obj 125 197 tgl 15 0 empty empty empty 17 7 0 10 -262144 -1 -1 0
1;
#X text 112 178 MONO (left only);
#X connect 0 0 1 1;
#X connect 1 0 3 0;
#X connect 3 0 6 0;
#X connect 5 0 1 0;
#X connect 5 1 3 1;
#X connect 6 0 2 0;
#X connect 7 0 5 0;
#X coords 0 -1 1 1 160 134 2 100 100;
#X restore 539 245 pd sub2;
#N canvas 178 113 1440 794 more 1;
#X obj 190 409 outlet;
#X msg -28 275 1;
#X obj 144 144 bng 22 250 50 0 empty empty empty 17 7 0 10 -258113
-1 -1;
#X obj 209 300 oscformat mute_all_spatial;
#X msg 208 274 1;
#X obj 266 134 bng 22 250 50 0 empty empty empty 17 7 0 10 -258113
-1 -1;
#X text 229 112 Mute all spatial;
#X obj -27 301 oscformat default_spatial_routing;
#X msg 392 278 1;
#X obj 376 147 bng 22 250 50 0 empty empty empty 17 7 0 10 -258113
-1 -1;
#X text 353 125 Mute all AP;
#X obj 393 304 oscformat mute_all_ap;
#X text 107 122 Default spatial;
#X connect 1 0 7 0;
#X connect 2 0 1 0;
#X connect 3 0 0 0;
#X connect 4 0 3 0;
#X connect 5 0 4 0;
#X connect 7 0 0 0;
#X connect 8 0 11 0;
#X connect 9 0 8 0;
#X connect 11 0 0 0;
#X coords 0 -1 1 1 333 77 2 100 100;
#X restore 369 384 pd more;
#X msg 28 416 connect 85.214.78.6 57120;
#N canvas 202 35 1215 688 sendall 0;
#X obj 333 616 oscformat route pi;
#X floatatom 148 151 5 0 0 0 - - -;
#X obj 165 427 i;
#X floatatom 277 405 5 0 0 0 - - -;
#X obj 240 440 i;
#X text 265 442 set channel;
#X obj 333 589 pack i i i i f;
#X floatatom 381 413 5 0 0 0 - - -;
#X obj 364 451 i;
#X floatatom 504 416 5 0 0 0 - - -;
#X obj 475 446 i;
#X obj 333 639 outlet;
#X text 118 129 set source index;
#X text 334 393 set target index;
#X text 598 424 3: Set GAIN;
#X floatatom 561 424 5 0 0 0 - - -;
#X text 445 307 comment;
#X text 352 14 comment;
#X obj 248 152 bng 15 250 50 0 empty empty empty 17 7 0 10 -262144
-1 -1;
#X obj 421 452 + 1;
#X floatatom 567 55 5 0 0 0 - - -;
#X obj 520 156 i;
#X obj 577 157 + 1;
#X obj 511 9 > 10;
#X msg 471 77 stop;
#X obj 470 55 sel 1;
#X obj 320 142 0;
#X obj 337 97 t b b;
#X floatatom 366 499 5 0 0 0 - - -;
#X msg 568 380 1;
#X obj 596 359 loadbang;
#X obj 559 470 i;
#X obj 344 263 t b b b b b;
#X obj 847 610 oscformat route pi;
#X floatatom 743 371 5 0 0 0 - - -;
#X obj 706 403 i;
#X floatatom 824 403 5 0 0 0 - - -;
#X obj 772 404 i;
#X text 779 436 set channel;
#X obj 847 583 pack i i i i f;
#X floatatom 895 407 5 0 0 0 - - -;
#X obj 878 445 i;
#X floatatom 1038 410 5 0 0 0 - - -;
#X obj 1009 440 i;
#X text 1052 437 set channel;
#X obj 847 633 outlet;
#X text 686 350 set source index;
#X text 848 387 set target index;
#X text 1166 403 3: Set GAIN;
#X floatatom 1129 403 5 0 0 0 - - -;
#X text 959 301 comment;
#X obj 935 446 + 1;
#X floatatom 880 493 5 0 0 0 - - -;
#X msg 1136 359 1;
#X obj 1164 338 loadbang;
#X obj 1127 449 i;
#X obj 844 233 t b b b b b;
#X text 518 443 comment;
#X obj 392 137 metro 50;
#X connect 0 0 11 0;
#X connect 1 0 2 1;
#X connect 1 0 34 0;
#X connect 2 0 6 0;
#X connect 3 0 4 1;
#X connect 4 0 6 1;
#X connect 6 0 0 0;
#X connect 7 0 8 1;
#X connect 8 0 19 0;
#X connect 8 0 28 0;
#X connect 9 0 10 1;
#X connect 10 0 6 3;
#X connect 15 0 31 0;
#X connect 18 0 27 0;
#X connect 19 0 7 0;
#X connect 20 0 21 1;
#X connect 20 0 23 0;
#X connect 21 0 22 0;
#X connect 22 0 20 0;
#X connect 23 0 25 0;
#X connect 24 0 58 0;
#X connect 25 0 24 0;
#X connect 26 0 7 0;
#X connect 26 0 20 0;
#X connect 26 0 40 0;
#X connect 27 0 58 0;
#X connect 27 1 26 0;
#X connect 28 0 6 2;
#X connect 29 0 15 0;
#X connect 30 0 29 0;
#X connect 31 0 6 4;
#X connect 32 0 2 0;
#X connect 32 1 4 0;
#X connect 32 2 8 0;
#X connect 32 3 10 0;
#X connect 32 4 15 0;
#X connect 33 0 45 0;
#X connect 34 0 35 1;
#X connect 35 0 39 0;
#X connect 36 0 37 1;
#X connect 37 0 39 1;
#X connect 39 0 33 0;
#X connect 40 0 41 1;
#X connect 41 0 51 0;
#X connect 41 0 52 0;
#X connect 42 0 43 1;
#X connect 43 0 39 3;
#X connect 49 0 55 0;
#X connect 51 0 40 0;
#X connect 52 0 39 2;
#X connect 53 0 49 0;
#X connect 53 0 42 0;
#X connect 53 0 36 0;
#X connect 54 0 53 0;
#X connect 55 0 39 4;
#X connect 56 0 35 0;
#X connect 56 1 37 0;
#X connect 56 2 41 0;
#X connect 56 3 43 0;
#X connect 56 4 49 0;
#X connect 58 0 21 0;
#X connect 58 0 32 0;
#X connect 58 0 56 0;
#X coords 0 -1 10 1 200 100 1 100 100;
#X restore 704 63 pd sendall;
#X obj 705 178 s links;
#X obj 873 179 s rechts;
#X obj 161 283 r links;
#X obj 233 281 r rechts;
#X text 734 38 send to all access points;
#X connect 1 0 0 0;
#X connect 2 0 1 0;
#X connect 3 0 0 0;
#X connect 6 0 2 0;
#X connect 7 0 2 0;
#X connect 10 0 2 0;
#X connect 11 0 2 0;
#X connect 12 0 2 0;
#X connect 13 0 0 0;
#X connect 14 0 15 0;
#X connect 14 1 16 0;
#X connect 17 0 2 0;
#X connect 18 0 2 0;
