#N canvas 70 23 1323 649 12;
#X obj 315 606 netsend -u -b;
#X obj 310 549 list trim;
#X obj 304 525 list prepend send;
#X msg 52 568 disconnect;
#X text 52 514 1: connect;
#X msg 52 531 connect 85.214.78.6 57120;
#X obj 258 455 oscformat monitor mono;
#X obj 53 452 loadbang;
#X obj 490 423 oscformat route pi;
#X obj 647 430 oscformat route pi;
#X obj 259 416 pack i 1;
#X obj 657 512 print;
#X floatatom 318 154 10 0 15 0 - - -;
#X obj 419 336 t b i;
#X obj 491 398 pack i 0 i 1 1;
#X obj 647 398 pack i 1 i 1 1;
#X obj 334 339 spigot;
#X obj 265 382 tgl 15 0 empty empty empty 17 7 0 10 -262144 -1 -1 0
1;
#X obj 178 148 bng 30 250 50 0 empty empty empty 17 7 0 10 -258113
-1 -1;
#X obj 240 338 t b b b b;
#X msg 448 156 0 \, 1;
#X text 272 127 set source index;
#X text 414 128 set target list;
#N canvas 89 23 1036 676 control 0;
#X obj 204 551 outlet;
#X msg -28 275 1;
#X obj 119 177 bng 22 250 50 0 empty empty empty 17 7 0 10 -258113
-1 -1;
#X obj 209 300 oscformat mute_all_spatial;
#X msg 208 274 1;
#X obj 306 175 bng 22 250 50 0 empty empty empty 17 7 0 10 -258113
-1 -1;
#X text 339 176 Mute all spatial;
#X obj -27 301 oscformat default_spatial_routing;
#X msg 392 278 1;
#X obj 306 140 bng 22 250 50 0 empty empty empty 17 7 0 10 -258113
-1 -1;
#X text 340 143 Mute all AP;
#X obj 393 304 oscformat mute_all_ap;
#X text 153 179 Default spatial;
#X obj 643 384 oscformat monitor gain;
#X msg 643 222 0 \, 1 \, 2 \, 3 \, 4 \, 5 \, 6 \, 7 \, 8 \, 9 \, 10
\, 11 \, 12 \, 13 \, 14 \, 15;
#X text 641 193 silence all binaural monitors;
#X obj 643 357 pack \$1 1;
#X obj 119 142 bng 22 250 50 0 empty empty empty 17 7 0 10 -204786
-1 -1;
#X text 152 142 default monitor;
#X connect 1 0 7 0;
#X connect 2 0 1 0;
#X connect 3 0 0 0;
#X connect 4 0 3 0;
#X connect 5 0 4 0;
#X connect 7 0 0 0;
#X connect 8 0 11 0;
#X connect 9 0 8 0;
#X connect 11 0 0 0;
#X connect 13 0 0 0;
#X connect 14 0 16 0;
#X connect 16 0 13 0;
#X connect 17 0 14 0;
#X coords 0 -1 1 1 400 150 1 100 100;
#X restore 718 128 pd control;
#X text 171 125 start;
#X connect 1 0 0 0;
#X connect 2 0 1 0;
#X connect 3 0 0 0;
#X connect 5 0 0 0;
#X connect 6 0 2 0;
#X connect 7 0 5 0;
#X connect 8 0 2 0;
#X connect 9 0 2 0;
#X connect 10 0 6 0;
#X connect 12 0 16 0;
#X connect 13 0 14 0;
#X connect 13 1 14 2;
#X connect 14 0 8 0;
#X connect 14 0 11 0;
#X connect 15 0 9 0;
#X connect 16 0 14 0;
#X connect 17 0 16 1;
#X connect 18 0 19 0;
#X connect 19 0 20 0;
#X connect 19 1 17 0;
#X connect 19 2 12 0;
#X connect 19 3 17 0;
#X connect 20 0 13 0;
